<?xml version="1.0" encoding="utf-8"?>
<!-- Generator: Adobe Illustrator 26.5.0, SVG Export Plug-In . SVG Version: 6.00 Build 0)  -->
<svg version="1.1" id="Layer_1" xmlns="http://www.w3.org/2000/svg" xmlns:xlink="http://www.w3.org/1999/xlink" x="0px" y="0px"
	 width="298px" height="78px" viewBox="0 0 298 78" style="enable-background:new 0 0 298 78;" xml:space="preserve">
<style type="text/css">
	.st0{clip-path:url(#SVGID_00000116201446346738175520000001753066390962380427_);}
	.st1{fill-rule:evenodd;clip-rule:evenodd;fill:#E40D0D;}
	.st2{fill-rule:evenodd;clip-rule:evenodd;fill:#FFFFFF;}
	.st3{fill:#EAEAEA;}
</style>
<g>
	<defs>
		<rect id="SVGID_1_" width="72" height="72"/>
	</defs>
	<clipPath id="SVGID_00000170993697619333174470000000354021147322702744_">
		<use xlink:href="#SVGID_1_"  style="overflow:visible;"/>
	</clipPath>
	<g style="clip-path:url(#SVGID_00000170993697619333174470000000354021147322702744_);">
		<path class="st1" d="M23.6,0c-1.6,0-3.1,0.6-4.2,1.8L1.8,19.3C0.6,20.5,0,22,0,23.6v24.9c0,1.6,0.6,3.1,1.8,4.2l17.6,17.6
			c1.1,1.1,2.7,1.8,4.2,1.8h24.9c1.6,0,3.1-0.6,4.2-1.8l17.6-17.6c1.1-1.1,1.8-2.7,1.8-4.2V23.6c0-1.6-0.6-3.1-1.8-4.2L52.7,1.8
			C51.5,0.6,50,0,48.4,0H23.6z"/>
		<path class="st2" d="M34.4,62.1c11.9,0,14.8-10.9,14.8-10.9L56,31.5c0,0,0.6-2,0.5-2.1c-6.4-1.2-7.7,3.3-7.7,3.3s-2.5,6.4-2.8,6.4
			c-0.4,0-0.4-0.5-0.4-0.5V15.8c0,0,0.1-2.9-2.9-2.9c-3,0-2.9,3-2.9,3l0,16.9c0,0,0,0.7-0.5,0.7c-0.5,0-0.5-0.7-0.5-0.7V12.3
			c0,0,0.2-3.3-2.9-3.3S33,12.3,33,12.3l0,20.1c0,0,0,0.6-0.5,0.6c-0.5,0-0.5-0.6-0.5-0.6V15.6c0,0,0.2-3.4-2.9-3.4
			c-3.1,0-2.9,3.5-2.9,3.5l0,17.8c0,0,0.1,0.5-0.4,0.5c-0.5,0-0.5-0.5-0.5-0.5l0-10.7c0,0,0-3-2.5-3c-2.7,0-2.7,3-2.7,3v23.2
			C20,45.9,19.3,62.1,34.4,62.1z"/>
	</g>
</g>
<path class="st3" d="M105,17.9h6L127.9,57h-8l-3.6-9h-17l-3.5,9H88L105,17.9z M113.9,42.1l-6-15.9l-6.1,15.9H113.9z"/>
<path class="st3" d="M152.6,53h-0.1c-1,1.6-2.2,2.8-3.9,3.5c-1.6,0.7-3.4,1.1-5.3,1.1c-2.1,0-3.9-0.4-5.5-1.1
	c-1.6-0.7-2.9-1.7-4.1-3c-1.1-1.3-2-2.7-2.6-4.4c-0.6-1.7-0.9-3.5-0.9-5.5c0-2,0.3-3.8,0.9-5.5c0.6-1.7,1.5-3.2,2.6-4.4
	c1.1-1.3,2.5-2.2,4.1-2.9c1.6-0.7,3.3-1.1,5.2-1.1c1.3,0,2.4,0.1,3.3,0.4c1,0.3,1.8,0.6,2.5,1c0.7,0.4,1.4,0.8,1.9,1.3
	c0.5,0.4,0.9,0.9,1.3,1.3h0.2V15.2h6.6V57h-6.3V53z M137,43.7c0,1,0.2,2,0.5,3c0.4,1,0.9,1.8,1.5,2.5c0.7,0.7,1.5,1.3,2.5,1.8
	c1,0.4,2,0.7,3.3,0.7c1.2,0,2.3-0.2,3.3-0.7c1-0.4,1.8-1,2.4-1.8c0.7-0.7,1.2-1.6,1.5-2.5c0.4-1,0.6-2,0.6-3c0-1-0.2-2-0.6-3
	c-0.3-1-0.8-1.8-1.5-2.5c-0.7-0.7-1.5-1.3-2.4-1.8c-1-0.4-2-0.7-3.3-0.7c-1.2,0-2.3,0.2-3.3,0.7c-1,0.4-1.8,1-2.5,1.8
	c-0.7,0.7-1.2,1.6-1.5,2.5C137.1,41.7,137,42.7,137,43.7z"/>
<path class="st3" d="M167.6,17.9h11.9c1.6,0,3.2,0.2,4.8,0.5c1.5,0.3,2.9,0.9,4.1,1.7c1.2,0.7,2.2,1.7,2.9,2.9
	c0.8,1.2,1.2,2.7,1.2,4.5c0,2.3-0.6,4.2-1.9,5.7c-1.2,1.5-2.9,2.5-5,3.2v0.1c1.3,0.1,2.4,0.4,3.5,1c1.1,0.5,2,1.2,2.8,2
	c0.8,0.8,1.4,1.8,1.9,3c0.4,1.1,0.7,2.3,0.7,3.6c0,2.2-0.5,4-1.4,5.4c-0.9,1.4-2.1,2.5-3.5,3.4c-1.4,0.8-3.1,1.4-4.9,1.7
	c-1.8,0.3-3.6,0.5-5.4,0.5h-11.7V17.9z M172.2,34.4h6.4c1.1,0,2.2-0.1,3.2-0.2c1.1-0.1,2-0.4,2.9-0.9c0.8-0.5,1.5-1.1,2-1.9
	c0.5-0.8,0.8-2,0.8-3.3c0-1.2-0.2-2.2-0.7-2.9c-0.5-0.8-1.1-1.4-1.9-1.8c-0.8-0.4-1.7-0.7-2.7-0.9c-1-0.2-2-0.3-3-0.3h-6.9V34.4z
	 M172.2,52.7h7.8c1.1,0,2.3-0.1,3.4-0.3c1.1-0.3,2.2-0.6,3-1.2c0.9-0.6,1.7-1.3,2.2-2.1c0.6-0.9,0.8-2,0.8-3.2
	c0-1.4-0.3-2.5-0.8-3.4c-0.5-0.9-1.2-1.7-2.1-2.2c-0.8-0.6-1.8-0.9-3-1.2c-1.1-0.2-2.2-0.3-3.4-0.3h-8V52.7z"/>
<path class="st3" d="M202,15.2h4.3V57H202V15.2z"/>
<path class="st3" d="M213.4,44.1c0-2,0.3-3.9,1-5.5c0.7-1.7,1.7-3.1,2.9-4.3c1.2-1.2,2.7-2.2,4.4-2.8c1.7-0.7,3.5-1,5.5-1
	c2,0,3.8,0.3,5.5,1c1.7,0.7,3.2,1.6,4.4,2.8c1.2,1.2,2.2,2.6,2.9,4.3s1.1,3.5,1.1,5.5c0,2-0.4,3.9-1.1,5.5s-1.7,3.1-2.9,4.3
	c-1.2,1.2-2.7,2.1-4.4,2.8c-1.7,0.7-3.5,1-5.5,1c-2,0-3.8-0.3-5.5-1c-1.7-0.7-3.1-1.6-4.4-2.8c-1.2-1.2-2.2-2.7-2.9-4.3
	C213.7,47.9,213.4,46.1,213.4,44.1z M218,44.1c0,1.4,0.2,2.6,0.6,3.8c0.4,1.1,1.1,2.2,1.9,3c0.8,0.8,1.8,1.5,2.9,2
	c1.1,0.5,2.4,0.7,3.8,0.7c1.4,0,2.7-0.2,3.8-0.7c1.1-0.5,2.1-1.2,2.9-2c0.8-0.9,1.4-1.9,1.8-3c0.4-1.2,0.7-2.5,0.7-3.8
	c0-1.4-0.2-2.6-0.7-3.8c-0.4-1.2-1-2.2-1.8-3c-0.8-0.9-1.8-1.6-2.9-2c-1.1-0.5-2.4-0.8-3.8-0.8c-1.4,0-2.7,0.3-3.8,0.8
	c-1.1,0.5-2.1,1.2-2.9,2c-0.8,0.8-1.4,1.9-1.9,3C218.2,41.5,218,42.7,218,44.1z"/>
<path class="st3" d="M266.1,37.6c-0.9-1.1-1.9-1.9-3-2.4c-1.1-0.5-2.2-0.8-3.5-0.8c-1.4,0-2.7,0.3-3.8,0.8c-1.1,0.5-2,1.2-2.8,2
	c-0.7,0.9-1.2,1.9-1.6,3.1c-0.4,1.1-0.6,2.4-0.6,3.7c0,1.3,0.2,2.6,0.6,3.8c0.4,1.1,1,2.2,1.8,3c0.8,0.9,1.7,1.6,2.8,2.1
	c1.1,0.5,2.3,0.7,3.6,0.7c2.8,0,5-1.1,6.6-3.2l3.2,3c-1.3,1.4-2.7,2.5-4.4,3.2c-1.7,0.7-3.5,1-5.4,1c-2,0-3.8-0.3-5.5-1
	c-1.7-0.7-3.1-1.6-4.3-2.8c-1.1-1.2-2-2.7-2.7-4.3c-0.6-1.7-0.9-3.5-0.9-5.5c0-2,0.3-3.8,0.9-5.4c0.7-1.7,1.6-3.1,2.8-4.3
	c1.2-1.2,2.6-2.2,4.2-2.8c1.7-0.7,3.5-1.1,5.5-1.1c1.9,0,3.7,0.3,5.4,1c1.7,0.7,3.2,1.7,4.5,3.1L266.1,37.6z"/>
<path class="st3" d="M274.4,15.2h4.3v27.3l11.8-11.4h6.1l-12.5,11.8L297.9,57h-6.4l-12.8-13.6V57h-4.3V15.2z"/>
</svg>
