<svg xmlns="http://www.w3.org/2000/svg" xmlns:xlink="http://www.w3.org/1999/xlink" width="298" height="78" viewBox="0 0 298 78" style="enable-background:new 0 0 298 78" xml:space="preserve"><defs><path id="a" d="M0 0h72v72H0z"/></defs><clipPath id="b"><use xlink:href="#a" style="overflow:visible"/></clipPath><g style="clip-path:url(#b)"><path d="M23.6 0c-1.6 0-3.1.6-4.2 1.8L1.8 19.3C.6 20.5 0 22 0 23.6v24.9c0 1.6.6 3.1 1.8 4.2l17.6 17.6c1.1 1.1 2.7 1.8 4.2 1.8h24.9c1.6 0 3.1-.6 4.2-1.8l17.6-17.6c1.1-1.1 1.8-2.7 1.8-4.2V23.6c0-1.6-.6-3.1-1.8-4.2L52.7 1.8C51.5.6 50 0 48.4 0H23.6z" style="fill-rule:evenodd;clip-rule:evenodd;fill:#e40d0d"/><path d="M34.4 62.1c11.9 0 14.8-10.9 14.8-10.9L56 31.5s.6-2 .5-2.1c-6.4-1.2-7.7 3.3-7.7 3.3s-2.5 6.4-2.8 6.4c-.4 0-.4-.5-.4-.5V15.8s.1-2.9-2.9-2.9-2.9 3-2.9 3v16.9s0 .7-.5.7-.5-.7-.5-.7V12.3S39 9 35.9 9 33 12.3 33 12.3v20.1s0 .6-.5.6-.5-.6-.5-.6V15.6s.2-3.4-2.9-3.4-2.9 3.5-2.9 3.5v17.8s.1.5-.4.5-.5-.5-.5-.5V22.8s0-3-2.5-3c-2.7 0-2.7 3-2.7 3V46c-.1-.1-.8 16.1 14.3 16.1z" style="fill-rule:evenodd;clip-rule:evenodd;fill:#fff"/></g><path d="M105 17.9h6L127.9 57h-8l-3.6-9h-17l-3.5 9H88l17-39.1zm8.9 24.2-6-15.9-6.1 15.9h12.1zM152.6 53h-.1c-1 1.6-2.2 2.8-3.9 3.5-1.6.7-3.4 1.1-5.3 1.1-2.1 0-3.9-.4-5.5-1.1-1.6-.7-2.9-1.7-4.1-3-1.1-1.3-2-2.7-2.6-4.4-.6-1.7-.9-3.5-.9-5.5s.3-3.8.9-5.5c.6-1.7 1.5-3.2 2.6-4.4 1.1-1.3 2.5-2.2 4.1-2.9 1.6-.7 3.3-1.1 5.2-1.1 1.3 0 2.4.1 3.3.4 1 .3 1.8.6 2.5 1s1.4.8 1.9 1.3c.5.4.9.9 1.3 1.3h.2V15.2h6.6V57h-6.3v-4zM137 43.7c0 1 .2 2 .5 3 .4 1 .9 1.8 1.5 2.5.7.7 1.5 1.3 2.5 1.8 1 .4 2 .7 3.3.7 1.2 0 2.3-.2 3.3-.7 1-.4 1.8-1 2.4-1.8.7-.7 1.2-1.6 1.5-2.5.4-1 .6-2 .6-3s-.2-2-.6-3c-.3-1-.8-1.8-1.5-2.5s-1.5-1.3-2.4-1.8c-1-.4-2-.7-3.3-.7-1.2 0-2.3.2-3.3.7-1 .4-1.8 1-2.5 1.8-.7.7-1.2 1.6-1.5 2.5-.4 1-.5 2-.5 3zm30.6-25.8h11.9c1.6 0 3.2.2 4.8.5 1.5.3 2.9.9 4.1 1.7 1.2.7 2.2 1.7 2.9 2.9.8 1.2 1.2 2.7 1.2 4.5 0 2.3-.6 4.2-1.9 5.7-1.2 1.5-2.9 2.5-5 3.2v.1c1.3.1 2.4.4 3.5 1 1.1.5 2 1.2 2.8 2 .8.8 1.4 1.8 1.9 3 .4 1.1.7 2.3.7 3.6 0 2.2-.5 4-1.4 5.4-.9 1.4-2.1 2.5-3.5 3.4-1.4.8-3.1 1.4-4.9 1.7-1.8.3-3.6.5-5.4.5h-11.7V17.9zm4.6 16.5h6.4c1.1 0 2.2-.1 3.2-.2 1.1-.1 2-.4 2.9-.9.8-.5 1.5-1.1 2-1.9.5-.8.8-2 .8-3.3 0-1.2-.2-2.2-.7-2.9-.5-.8-1.1-1.4-1.9-1.8-.8-.4-1.7-.7-2.7-.9-1-.2-2-.3-3-.3h-6.9v12.2zm0 18.3h7.8c1.1 0 2.3-.1 3.4-.3 1.1-.3 2.2-.6 3-1.2.9-.6 1.7-1.3 2.2-2.1.6-.9.8-2 .8-3.2 0-1.4-.3-2.5-.8-3.4-.5-.9-1.2-1.7-2.1-2.2-.8-.6-1.8-.9-3-1.2-1.1-.2-2.2-.3-3.4-.3h-8v13.9zM202 15.2h4.3V57H202V15.2zm11.4 28.9c0-2 .3-3.9 1-5.5.7-1.7 1.7-3.1 2.9-4.3 1.2-1.2 2.7-2.2 4.4-2.8 1.7-.7 3.5-1 5.5-1s3.8.3 5.5 1c1.7.7 3.2 1.6 4.4 2.8 1.2 1.2 2.2 2.6 2.9 4.3s1.1 3.5 1.1 5.5-.4 3.9-1.1 5.5-1.7 3.1-2.9 4.3c-1.2 1.2-2.7 2.1-4.4 2.8-1.7.7-3.5 1-5.5 1s-3.8-.3-5.5-1c-1.7-.7-3.1-1.6-4.4-2.8-1.2-1.2-2.2-2.7-2.9-4.3-.7-1.7-1-3.5-1-5.5zm4.6 0c0 1.4.2 2.6.6 3.8.4 1.1 1.1 2.2 1.9 3 .8.8 1.8 1.5 2.9 2 1.1.5 2.4.7 3.8.7s2.7-.2 3.8-.7c1.1-.5 2.1-1.2 2.9-2 .8-.9 1.4-1.9 1.8-3 .4-1.2.7-2.5.7-3.8 0-1.4-.2-2.6-.7-3.8-.4-1.2-1-2.2-1.8-3-.8-.9-1.8-1.6-2.9-2-1.1-.5-2.4-.8-3.8-.8s-2.7.3-3.8.8c-1.1.5-2.1 1.2-2.9 2-.8.8-1.4 1.9-1.9 3-.4 1.2-.6 2.4-.6 3.8zm48.1-6.5c-.9-1.1-1.9-1.9-3-2.4s-2.2-.8-3.5-.8c-1.4 0-2.7.3-3.8.8-1.1.5-2 1.2-2.8 2-.7.9-1.2 1.9-1.6 3.1-.4 1.1-.6 2.4-.6 3.7 0 1.3.2 2.6.6 3.8.4 1.1 1 2.2 1.8 3 .8.9 1.7 1.6 2.8 2.1 1.1.5 2.3.7 3.6.7 2.8 0 5-1.1 6.6-3.2l3.2 3c-1.3 1.4-2.7 2.5-4.4 3.2-1.7.7-3.5 1-5.4 1-2 0-3.8-.3-5.5-1-1.7-.7-3.1-1.6-4.3-2.8-1.1-1.2-2-2.7-2.7-4.3-.6-1.7-.9-3.5-.9-5.5s.3-3.8.9-5.4c.7-1.7 1.6-3.1 2.8-4.3 1.2-1.2 2.6-2.2 4.2-2.8 1.7-.7 3.5-1.1 5.5-1.1 1.9 0 3.7.3 5.4 1 1.7.7 3.2 1.7 4.5 3.1l-3.4 3.1zm8.3-22.4h4.3v27.3l11.8-11.4h6.1l-12.5 11.8L297.9 57h-6.4l-12.8-13.6V57h-4.3V15.2z" style="fill:#eaeaea"/></svg>