<?xml version="1.0" encoding="utf-8"?>
<!-- Generator: Adobe Illustrator 26.5.0, SVG Export Plug-In . SVG Version: 6.00 Build 0)  -->
<svg version="1.1" id="Layer_1" xmlns:xodm="http://www.corel.com/coreldraw/odm/2003"
	 xmlns="http://www.w3.org/2000/svg" xmlns:xlink="http://www.w3.org/1999/xlink" x="0px" y="0px" width="16px" height="16px"
	 viewBox="0 0 16 16" style="enable-background:new 0 0 16 16;" xml:space="preserve">
<style type="text/css">
	.st0{fill-rule:evenodd;clip-rule:evenodd;fill:#FFFFFF;}
</style>
<g id="Layer_x0020_1">
	<path class="st0" d="M6,1h4c1.1,0,2,0.9,2,2v1h2c1.1,0,2,0.9,2,2v7c0,1.1-0.9,2-2,2H2c-1.1,0-2-0.9-2-2V6c0-1.1,0.9-2,2-2h2V3
		C4,1.9,4.9,1,6,1z M11,4V3c0-0.3-0.1-0.5-0.3-0.7C10.5,2.1,10.3,2,10,2H6C5.7,2,5.5,2.1,5.3,2.3C5.1,2.5,5,2.7,5,3v1H11z M14,5H2
		C1.7,5,1.5,5.1,1.3,5.3C1.1,5.5,1,5.7,1,6v7c0,0.3,0.1,0.5,0.3,0.7C1.5,13.9,1.7,14,2,14h12c0.3,0,0.5-0.1,0.7-0.3
		c0.2-0.2,0.3-0.4,0.3-0.7V6c0-0.3-0.1-0.5-0.3-0.7C14.5,5.1,14.3,5,14,5z"/>
	<path class="st0" d="M1,8h3V7c0-0.3,0.2-0.5,0.5-0.5S5,6.7,5,7v1h6V7c0-0.3,0.2-0.5,0.5-0.5S12,6.7,12,7v1h3v1h-3v1
		c0,0.3-0.2,0.5-0.5,0.5S11,10.3,11,10V9H5v1c0,0.3-0.2,0.5-0.5,0.5S4,10.3,4,10V9H1V8z"/>
</g>
</svg>
