<?xml version="1.0" encoding="utf-8"?>
<!-- Generator: Adobe Illustrator 26.5.0, SVG Export Plug-In . SVG Version: 6.00 Build 0)  -->
<svg version="1.1" id="Layer_1" xmlns:xodm="http://www.corel.com/coreldraw/odm/2003"
	 xmlns="http://www.w3.org/2000/svg" xmlns:xlink="http://www.w3.org/1999/xlink" x="0px" y="0px" width="16px" height="16px"
	 viewBox="0 0 16 16" style="enable-background:new 0 0 16 16;" xml:space="preserve">
<style type="text/css">
	.st0{fill-rule:evenodd;clip-rule:evenodd;fill:#FFFFFF;}
</style>
<g id="Layer_x0020_1">
	<path class="st0" d="M6,0h4c1.1,0,2,0.9,2,2v1h2c1.1,0,2,0.9,2,2v9c0,1.1-0.9,2-2,2H2c-1.1,0-2-0.9-2-2V5c0-1.1,0.9-2,2-2h2V2
		C4,0.9,4.9,0,6,0z M11,3V2c0-0.3-0.1-0.5-0.3-0.7C10.5,1.1,10.3,1,10,1H6C5.7,1,5.5,1.1,5.3,1.3C5.1,1.5,5,1.7,5,2v1H11z M14,4H2
		C1.7,4,1.5,4.1,1.3,4.3C1.1,4.5,1,4.7,1,5v9c0,0.3,0.1,0.5,0.3,0.7C1.5,14.9,1.7,15,2,15h12c0.3,0,0.5-0.1,0.7-0.3
		c0.2-0.2,0.3-0.4,0.3-0.7V5c0-0.3-0.1-0.5-0.3-0.7C14.5,4.1,14.3,4,14,4z"/>
	<path class="st0" d="M1,8h3V7c0-0.3,0.2-0.5,0.5-0.5S5,6.7,5,7v1h6V7c0-0.3,0.2-0.5,0.5-0.5S12,6.7,12,7v1h3v1h-3v1
		c0,0.3-0.2,0.5-0.5,0.5S11,10.3,11,10V9H5v1c0,0.3-0.2,0.5-0.5,0.5S4,10.3,4,10V9H1V8z"/>
</g>
</svg>
