<svg viewBox="49 -217 253 253" xmlns="http://www.w3.org/2000/svg"><path d="M283.875-90.25q0-22.375-8.375-41.938-8.375-19.562-23.25-34.437t-34.5-23.313q-19.625-8.436-42-8.437t-42 8.437q-19.624 8.438-34.437 23.313-14.814 14.875-23.25 34.437-8.439 19.563-8.438 41.938t8.438 42q8.436 19.624 23.25 34.5T133.75 9.5q19.625 8.375 42 8.375t42-8.375 34.5-23.25 23.25-34.5q8.375-19.624 8.375-42" fill="#e6e6e6"/><path d="M176-171.125q-3.75 0-6.375 2.625T167-162.125v72q0 3.75 2.625 6.375T176-81.125t6.375-2.625T185-90.125v-72q0-3.75-2.625-6.375T176-171.125" fill="#ca0b4a"/><path d="M238.828-90.248q0-3.754-2.594-6.37t-6.345-2.614l-53.817.037q-3.752.002-6.368 2.594t-2.614 6.345q0 3.752 2.625 6.423 2.624 2.67 6.377 2.669l53.814-.037q3.645.06 6.284-2.617 2.64-2.678 2.638-6.43"/><path d="M175.75 8.875q-20.5 0-38.437-7.687Q119.374-6.5 105.75-20.125 92.125-33.75 84.375-51.75t-7.75-38.5 7.75-38.5 21.375-31.625 31.563-21.313 38.437-7.687 38.5 7.687q18 7.688 31.625 21.313t21.313 31.625 7.687 38.5-7.687 38.5q-7.688 18-21.313 31.625T214.25 1.188t-38.5 7.687m0 27q26.125 0 49-9.812 22.875-9.813 40.188-27.125 17.312-17.313 27.125-40.188t9.812-49-9.812-49q-9.813-22.875-27.125-40.188-17.313-17.312-40.188-27.125t-49-9.812-49 9.812q-22.875 9.813-40.187 27.125-17.313 17.313-27.126 40.188-9.812 22.875-9.812 49t9.813 49Q69.25-18.375 86.562-1.062q17.313 17.312 40.188 27.125t49 9.812" fill="#636363"/><path d="M193.949-90.102q0-3.708-1.388-6.952a18.13 18.13 0 0 0-9.574-9.573q-3.252-1.398-6.962-1.398-3.708 0-6.962 1.398a18 18 0 0 0-5.709 3.864 18.3 18.3 0 0 0-3.854 5.71q-1.398 3.242-1.398 6.951 0 3.71 1.398 6.962a18.2 18.2 0 0 0 3.854 5.72 17.9 17.9 0 0 0 5.709 3.854q3.254 1.388 6.962 1.388 3.71 0 6.962-1.388a18 18 0 0 0 5.719-3.855 18 18 0 0 0 3.855-5.719q1.388-3.252 1.388-6.962" fill="#9b9b9b"/></svg>