<?xml version="1.0" encoding="utf-8"?>
<!-- Generator: Adobe Illustrator 26.5.0, SVG Export Plug-In . SVG Version: 6.00 Build 0)  -->
<svg version="1.1" id="Layer_1" xmlns:xodm="http://www.corel.com/coreldraw/odm/2003"
	 xmlns="http://www.w3.org/2000/svg" xmlns:xlink="http://www.w3.org/1999/xlink" x="0px" y="0px" width="20px" height="20px"
	 viewBox="0 0 20 20" style="enable-background:new 0 0 20 20;" xml:space="preserve">
<path d="M15.4,6.4l-3.8-3.8C11.2,2.2,10.7,2,10.2,2H6C4.9,2,4,2.9,4,4v12c0,1.1,0.9,2,2,2h8c1.1,0,2-0.9,2-2V7.8
	C16,7.3,15.8,6.8,15.4,6.4z M14.6,7H12c-0.6,0-1-0.4-1-1V3.4L14.6,7z M14,17H6c-0.6,0-1-0.4-1-1V4c0-0.6,0.4-1,1-1h4v3
	c0,1.1,0.9,2,2,2h3v8C15,16.6,14.6,17,14,17z"/>
</svg>
