<?xml version="1.0" encoding="UTF-8"?>
<!DOCTYPE svg PUBLIC "-//W3C//DTD SVG 1.1//EN" "http://www.w3.org/Graphics/SVG/1.1/DTD/svg11.dtd">
<!-- Creator: CorelDRAW -->
<svg xmlns="http://www.w3.org/2000/svg" xml:space="preserve" width="16px" height="16px" version="1.1" style="shape-rendering:geometricPrecision; text-rendering:geometricPrecision; image-rendering:optimizeQuality; fill-rule:evenodd; clip-rule:evenodd"
viewBox="0 0 16 16"
 xmlns:xlink="http://www.w3.org/1999/xlink"
 xmlns:xodm="http://www.corel.com/coreldraw/odm/2003">
 <defs>
  <style type="text/css">
   <![CDATA[
    .fil0 {fill:#2C2C2C;fill-rule:nonzero}
    .fil2 {fill:#4CC2FF;fill-rule:nonzero}
    .fil1 {fill:white;fill-rule:nonzero}
   ]]>
  </style>
 </defs>
 <g id="Layer_x0020_1">
  <metadata id="CorelCorpID_0Corel-Layer"/>
  <path class="fil0" d="M15.23 0.76c-1.02,-1.02 -2.67,-1.02 -3.69,0l-1.04 1.04 -0.35 -0.35c-0.58,-0.58 -1.52,-0.58 -2.11,0l-0.58 0.58c-0.58,0.58 -0.58,1.53 0,2.11l0.35 0.35 -6.32 6.32c-0.28,0.28 -0.44,0.66 -0.44,1.06l0 0.5 -0.96 2.24c-0.35,0.83 0.49,1.67 1.32,1.3l2.23 -0.97 0.48 0c0.4,0 0.78,-0.16 1.06,-0.44l6.32 -6.32 0.35 0.35c0.58,0.58 1.53,0.58 2.11,0l0.58 -0.58c0.59,-0.59 0.59,-1.53 0,-2.11l-0.35 -0.35 1.04 -1.04c1.01,-1.02 1.01,-2.67 0,-3.69z"/>
  <path class="fil1" d="M7.81 4.49l-6.32 6.32c-0.28,0.28 -0.44,0.66 -0.44,1.06l0 0.5 -0.96 2.24c-0.35,0.83 0.49,1.67 1.32,1.3l2.23 -0.97 0.48 0c0.4,0 0.78,-0.16 1.06,-0.44l6.32 -6.32 -0.7 -0.7 -6.33 6.32c-0.09,0.09 -0.21,0.14 -0.35,0.14l-0.58 0c-0.07,0 -0.14,0.02 -0.2,0.04l-2.33 1.02 1 -2.34c0.03,-0.06 0.04,-0.13 0.04,-0.19l0 -0.6c0,-0.14 0.05,-0.26 0.14,-0.36l6.32 -6.32 -0.7 -0.7 0 0 0 0z"/>
  <path class="fil2" d="M15.23 0.76c-1.02,-1.02 -2.67,-1.02 -3.69,0l-1.04 1.04 -0.35 -0.35c-0.58,-0.58 -1.52,-0.58 -2.11,0l-0.58 0.58c-0.58,0.58 -0.58,1.53 0,2.11 1.46,1.46 2.93,2.93 4.39,4.39 0.58,0.58 1.53,0.58 2.11,0l0.58 -0.58c0.59,-0.59 0.59,-1.53 0,-2.11l-0.35 -0.35 1.04 -1.04c1.01,-1.02 1.01,-2.67 0,-3.69zm-2.99 0.71c0.63,-0.63 1.65,-0.63 2.28,0 0.63,0.63 0.63,1.65 0,2.28l-1.38 1.38c-0.2,0.2 -0.2,0.51 0,0.71l0.7 0.7c0.19,0.19 0.19,0.51 0,0.7l-0.58 0.59c-0.2,0.19 -0.51,0.19 -0.71,0l-4.38 -4.39c-0.2,-0.2 -0.2,-0.51 0,-0.71l0.58 -0.58c0.19,-0.19 0.51,-0.19 0.7,0l0.7 0.7c0.1,0.1 0.22,0.15 0.35,0.15 0.14,0 0.26,-0.05 0.36,-0.15l1.38 -1.38z"/>
 </g>
</svg>
