<svg xmlns="http://www.w3.org/2000/svg" xml:space="preserve" width="16" height="16" shape-rendering="geometricPrecision" text-rendering="geometricPrecision" image-rendering="optimizeQuality" fill-rule="evenodd" clip-rule="evenodd" viewBox="0 0 16 16"><g fill-rule="nonzero"><path fill="#fff" d="m7.81 4.49-6.32 6.32c-.28.28-.44.66-.44 1.06v.5l-.96 2.24c-.35.83.49 1.67 1.32 1.3l2.23-.97h.48c.4 0 .78-.16 1.06-.44l6.32-6.32-.7-.7-6.33 6.32c-.09.09-.21.14-.35.14h-.58c-.07 0-.14.02-.2.04L1.01 15l1-2.34c.03-.06.04-.13.04-.19v-.6c0-.14.05-.26.14-.36l6.32-6.32-.7-.7z"/><path fill="#4CC2FF" d="M15.23.76a2.607 2.607 0 0 0-3.69 0L10.5 1.8l-.35-.35c-.58-.58-1.52-.58-2.11 0l-.58.58c-.58.58-.58 1.53 0 2.11l4.39 4.39c.58.58 1.53.58 2.11 0l.58-.58c.59-.59.59-1.53 0-2.11l-.35-.35 1.04-1.04a2.626 2.626 0 0 0 0-3.69zm-2.99.71a1.611 1.611 0 1 1 2.28 2.28l-1.38 1.38c-.2.2-.2.51 0 .71l.7.7c.19.19.19.51 0 .7l-.58.59c-.2.19-.51.19-.71 0L8.17 3.44c-.2-.2-.2-.51 0-.71l.58-.58c.19-.19.51-.19.7 0l.7.7a.491.491 0 0 0 .71 0l1.38-1.38z"/></g></svg>