<?xml version="1.0" encoding="utf-8"?>
<!-- Generator: Adobe Illustrator 26.5.0, SVG Export Plug-In . SVG Version: 6.00 Build 0)  -->
<svg version="1.1" id="Layer_1" xmlns="http://www.w3.org/2000/svg" xmlns:xlink="http://www.w3.org/1999/xlink" x="0px" y="0px"
	 width="259px" height="74px" viewBox="0 0 259 74" style="enable-background:new 0 0 259 74;" xml:space="preserve">
<style type="text/css">
	.st0{fill-rule:evenodd;clip-rule:evenodd;fill:#03BCFC;}
	.st1{fill-rule:evenodd;clip-rule:evenodd;fill:#2284F7;}
	.st2{fill-rule:evenodd;clip-rule:evenodd;fill:#FFCA00;}
	.st3{fill-rule:evenodd;clip-rule:evenodd;fill:#FF9C00;}
	.st4{fill-rule:evenodd;clip-rule:evenodd;fill:#FF363B;}
	.st5{fill-rule:evenodd;clip-rule:evenodd;fill:#E40D0D;}
	.st6{fill:none;stroke:#CCCCCC;}
	.st7{fill:#CCCCCC;}
</style>
<g id="Page-1">
	<g id="Welcome_new-Copy-9" transform="translate(-426.000000, -923.000000)">
		<g id="AdBlock-Premium" transform="translate(400.000000, 540.000000)">
			<g id="themes" transform="translate(0.000000, 300.000000)">
				<g id="Group-8" transform="translate(27.000000, 84.000000)">
					<g id="image" transform="translate(136.000000, 0.000000)">
						<g id="Group-2">
							<path id="Rectangle" class="st0" d="M3.9,0h90.3c2.2,0,3.9,1.7,3.9,3.9v64.2c0,2.2-1.7,3.9-3.9,3.9H3.9C1.7,72,0,70.3,0,68.1
								V3.9C0,1.7,1.7,0,3.9,0z"/>
							<path id="Rectangle_00000139265064540940444510000006821071759894989501_" class="st1" d="M0,41.1h98.1v27
								c0,2.2-1.7,3.9-3.9,3.9H3.9C1.7,72,0,70.3,0,68.1V41.1L0,41.1z"/>
						</g>
						<g id="Group-2-Copy" transform="translate(22.966790, 0.000000)">
							<path id="Rectangle_00000041284219464293278600000003794970962257118360_" class="st2" d="M3.9,0h90.3c2.2,0,3.9,1.7,3.9,3.9
								v64.2c0,2.2-1.7,3.9-3.9,3.9H3.9C1.7,72,0,70.3,0,68.1V3.9C0,1.7,1.7,0,3.9,0z"/>
							<path id="Rectangle_00000138552496686977045630000011579471976334928007_" class="st3" d="M0,41.1h98.1v27
								c0,2.2-1.7,3.9-3.9,3.9H3.9C1.7,72,0,70.3,0,68.1V41.1L0,41.1z"/>
						</g>
						<g id="Group-2-Copy-2" transform="translate(54.933579, 0.000000)">
							<path id="Rectangle_00000116214767312302044850000007076101480898644922_" class="st4" d="M3.9,0h58.2C64.3,0,66,1.7,66,3.9
								v64.2c0,2.2-1.7,3.9-3.9,3.9H3.9C1.7,72,0,70.3,0,68.1V3.9C0,1.7,1.7,0,3.9,0z"/>
							<path id="Rectangle_00000116943837066849288780000007310190135167208580_" class="st5" d="M0,41.1h66v27
								c0,2.2-1.7,3.9-3.9,3.9H3.9C1.7,72,0,70.3,0,68.1V41.1L0,41.1z"/>
						</g>
					</g>
					<g id="Group">
						<path id="Rectangle_00000163755522881963329500000008071611001716006051_" class="st6" d="M3.9,0h112.2c2.2,0,3.9,1.7,3.9,3.9
							v64.2c0,2.2-1.7,3.9-3.9,3.9H3.9C1.7,72,0,70.3,0,68.1V3.9C0,1.7,1.7,0,3.9,0z"/>
						<path id="Aa" class="st7" d="M39.8,40.6c0.7,0,1.3,0.1,1.8,0.3c0.5,0.2,1,0.5,1.3,0.9c0.4,0.4,0.6,0.9,0.8,1.5
							c0.2,0.6,0.3,1.2,0.3,1.9V53h-0.9c-0.2,0-0.4,0-0.5-0.1s-0.2-0.2-0.3-0.4l-0.2-1.1c-0.3,0.3-0.6,0.5-0.9,0.8
							c-0.3,0.2-0.6,0.4-1,0.6c-0.3,0.2-0.7,0.3-1.1,0.4c-0.4,0.1-0.8,0.1-1.3,0.1c-0.5,0-0.9-0.1-1.3-0.2s-0.8-0.3-1.1-0.6
							c-0.3-0.3-0.5-0.6-0.7-1c-0.2-0.4-0.3-0.9-0.3-1.4c0-0.5,0.1-0.9,0.4-1.4c0.3-0.4,0.7-0.8,1.3-1.2c0.6-0.3,1.4-0.6,2.3-0.8
							c1-0.2,2.1-0.3,3.5-0.4v-0.9c0-0.9-0.2-1.7-0.6-2.1c-0.4-0.5-1-0.7-1.8-0.7c-0.5,0-1,0.1-1.3,0.2s-0.7,0.3-0.9,0.4l-0.4,0.2
							c-0.1,0.1-0.2,0.1-0.3,0.2c-0.2,0.1-0.4,0.2-0.6,0.2c-0.1,0-0.3,0-0.4-0.1s-0.2-0.2-0.3-0.3L35,42.6c0.7-0.6,1.4-1.1,2.2-1.5
							C38,40.8,38.8,40.6,39.8,40.6z M26.4,35.8L33.2,53h-1.8c-0.2,0-0.4-0.1-0.5-0.2c-0.1-0.1-0.2-0.2-0.3-0.4L29,48.3h-7.7
							l-1.6,4.2c-0.1,0.1-0.2,0.3-0.3,0.4c-0.1,0.1-0.3,0.2-0.5,0.2h-1.8L24,35.8H26.4z M41.9,47.5c-1,0-1.8,0.1-2.5,0.2
							s-1.2,0.3-1.7,0.5c-0.4,0.2-0.7,0.4-0.9,0.7c-0.2,0.3-0.3,0.6-0.3,0.9c0,0.3,0.1,0.6,0.2,0.8c0.1,0.2,0.2,0.4,0.4,0.6
							c0.2,0.1,0.4,0.3,0.6,0.3s0.5,0.1,0.8,0.1c0.4,0,0.7,0,1-0.1c0.3-0.1,0.6-0.2,0.9-0.3c0.3-0.1,0.5-0.3,0.8-0.5
							c0.3-0.2,0.5-0.4,0.7-0.7l0,0V47.5z M25.2,38L25,38.6c0,0.1-0.1,0.2-0.1,0.3l-0.1,0.4c0,0.1-0.1,0.2-0.1,0.3l-2.7,7h6.4
							l-2.7-7C25.5,39.2,25.3,38.6,25.2,38z"/>
						<path id="Aa_00000083771380104134974910000007363398906143881868_" class="st7" d="M86.8,61h-3.3c-0.4,0-0.7-0.1-0.9-0.3
							c-0.2-0.2-0.4-0.4-0.5-0.7l-2.9-7.6H64.9L62,60c-0.1,0.3-0.3,0.5-0.5,0.7c-0.2,0.2-0.6,0.3-0.9,0.3h-3.3l12.6-31.5h4.3
							L86.8,61z M66.1,49.3h11.8l-4.9-12.8c-0.3-0.8-0.6-1.8-0.9-3c-0.2,0.6-0.3,1.2-0.5,1.7c-0.2,0.5-0.3,0.9-0.5,1.3L66.1,49.3z
							 M98.7,38.3c1.2,0,2.4,0.2,3.3,0.6c1,0.4,1.8,1,2.4,1.7c0.7,0.7,1.2,1.6,1.5,2.7c0.3,1,0.5,2.2,0.5,3.4V61h-1.7
							c-0.4,0-0.7-0.1-0.9-0.2c-0.2-0.1-0.4-0.4-0.5-0.7l-0.4-2.1c-0.6,0.5-1.2,1-1.7,1.4c-0.6,0.4-1.1,0.8-1.8,1.1
							c-0.6,0.3-1.3,0.5-2,0.6s-1.5,0.2-2.3,0.2c-0.9,0-1.7-0.1-2.4-0.4c-0.8-0.2-1.4-0.6-2-1.1c-0.6-0.5-1-1.1-1.3-1.8
							s-0.5-1.6-0.5-2.6c0-0.9,0.2-1.7,0.7-2.5c0.5-0.8,1.3-1.5,2.3-2.2c1.1-0.6,2.5-1.1,4.2-1.6c1.7-0.4,3.9-0.6,6.4-0.7v-1.7
							c0-1.7-0.4-3-1.1-3.9c-0.7-0.9-1.8-1.3-3.3-1.3c-1,0-1.8,0.1-2.4,0.4c-0.7,0.2-1.2,0.5-1.7,0.8c-0.5,0.3-0.9,0.6-1.2,0.8
							s-0.7,0.4-1,0.4c-0.3,0-0.5-0.1-0.7-0.2c-0.2-0.1-0.4-0.3-0.5-0.5L90,41.9c1.2-1.2,2.6-2.1,4-2.7C95.4,38.6,97,38.3,98.7,38.3
							z M102.7,51c-1.8,0.1-3.3,0.2-4.6,0.4c-1.3,0.2-2.3,0.5-3.1,0.9c-0.8,0.4-1.4,0.8-1.7,1.3c-0.4,0.5-0.5,1.1-0.5,1.7
							c0,0.6,0.1,1.1,0.3,1.5c0.2,0.4,0.4,0.8,0.8,1s0.7,0.5,1.1,0.6s0.9,0.2,1.4,0.2c0.7,0,1.3-0.1,1.9-0.2
							c0.6-0.1,1.1-0.3,1.6-0.6s1-0.6,1.5-0.9c0.5-0.4,0.9-0.8,1.4-1.3l0,0V51z"/>
					</g>
				</g>
			</g>
		</g>
	</g>
</g>
</svg>
