<svg xmlns="http://www.w3.org/2000/svg" xml:space="preserve" width="144" height="27" style="shape-rendering:geometricPrecision;text-rendering:geometricPrecision;image-rendering:optimizeQuality;fill-rule:evenodd;clip-rule:evenodd" viewBox="0 0 144 27"><path d="M3.728 3.965c4.099-4.1 10.797-4.1 14.896 0a10.451 10.451 0 0 1 2.921 5.641h-4.32a6.258 6.258 0 0 0-1.586-2.657A6.302 6.302 0 0 0 11.183 5.1a6.278 6.278 0 0 0-4.456 1.857 6.257 6.257 0 0 0-1.585 2.656H.822a10.426 10.426 0 0 1 2.92-5.641l-.014-.007zm1.4 9.247a6.298 6.298 0 0 0 1.585 2.657 6.294 6.294 0 0 0 4.463 1.849 6.294 6.294 0 0 0 4.463-1.849 6.3 6.3 0 0 0 1.586-2.657h4.32a10.433 10.433 0 0 1-2.921 5.642l-7.448 7.448-7.448-7.448a10.457 10.457 0 0 1-2.921-5.642h4.321zm6.048-5.177a3.38 3.38 0 0 0-3.378 3.378 3.38 3.38 0 0 0 3.378 3.378 3.38 3.38 0 0 0 3.378-3.378 3.38 3.38 0 0 0-3.378-3.378z" style="fill:#00bc6c"/><path d="M26.222 7.485h10.255v2.25h-3.785v9.961h-2.685V9.735h-3.785v-2.25zm77.446 3.671c-.443-.871-1.029-1.514-1.764-1.928a4.897 4.897 0 0 0-2.443-.622c-.892 0-1.678.2-2.392.607a4.438 4.438 0 0 0-1.678 1.729c-.407.742-.614 1.628-.614 2.649 0 1.021.207 1.892.614 2.635a4.342 4.342 0 0 0 1.678 1.728c.708.407 1.507.614 2.392.614.665 0 1.279-.114 1.85-.343a4.27 4.27 0 0 0 1.485-.978 4.19 4.19 0 0 0 .957-1.528v-1.414h-4.184V13.17h5.598v2.613a5.865 5.865 0 0 1-1.221 2.078 5.983 5.983 0 0 1-1.971 1.429c-.764.349-1.607.521-2.514.521-.864 0-1.663-.15-2.399-.457a5.831 5.831 0 0 1-3.228-3.257c-.307-.764-.464-1.599-.464-2.52 0-.922.157-1.757.464-2.521a5.735 5.735 0 0 1 1.293-1.971c.55-.55 1.2-.978 1.935-1.286a6.314 6.314 0 0 1 2.399-.456c.8 0 1.557.128 2.257.392a5.845 5.845 0 0 1 1.878 1.136c.55.492.978 1.092 1.293 1.806l-1.221.458v.021zm3.463-3.663h1.392v7.712c0 .799.143 1.457.436 1.956.293.5.686.865 1.178 1.1.493.236 1.057.35 1.686.35.628 0 1.171-.114 1.656-.35a2.7 2.7 0 0 0 1.171-1.1c.293-.499.436-1.149.436-1.956V7.493h1.392v7.691c0 .799-.128 1.492-.378 2.078a3.902 3.902 0 0 1-1.035 1.442 4.446 4.446 0 0 1-1.5.843 5.551 5.551 0 0 1-1.764.278 5.352 5.352 0 0 1-2.321-.5 3.946 3.946 0 0 1-1.706-1.528c-.429-.685-.643-1.557-.643-2.613V7.493zm11.89 0h1.392v12.211h-1.392V7.493zm8.048 0c1.349 0 2.506.249 3.463.742.957.493 1.7 1.2 2.214 2.121s.778 2.014.778 3.278c0 1.264-.257 2.335-.778 3.242a5.176 5.176 0 0 1-2.214 2.092c-.957.486-2.114.736-3.463.736h-4.028V7.493h4.028zm0 10.99c1.664 0 2.92-.422 3.77-1.271.85-.85 1.271-2.043 1.271-3.578 0-1.536-.421-2.756-1.271-3.621-.85-.864-2.106-1.299-3.77-1.299h-2.635v9.769h2.635zm16.353-9.769h-6.613v4.17h4.971v1.221h-4.971v4.378h6.613v1.221h-8.006V7.493h8.006v1.221zM85.75 7.492h2.685v12.212H85.75V7.492zm-6.298 0c.985 0 1.814.179 2.471.536.657.357 1.15.828 1.471 1.414.328.586.485 1.228.485 1.928 0 .478-.085.943-.25 1.407a3.7 3.7 0 0 1-.785 1.256c-.35.372-.8.672-1.357.893l2.642 4.785h-2.985l-2.32-4.449h-2.007v4.449h-2.685V7.499h5.32v-.007zm1.692 3.871c0-.5-.15-.893-.442-1.186-.3-.292-.757-.435-1.386-.435h-2.492v3.263h2.492c.421 0 .764-.064 1.028-.193.265-.128.472-.314.6-.564.136-.25.2-.542.2-.878v-.007zm-11.282.071c-.336-.614-.765-1.064-1.286-1.349a3.509 3.509 0 0 0-1.735-.429c-.672 0-1.286.171-1.821.514a3.57 3.57 0 0 0-1.272 1.407c-.306.593-.463 1.264-.463 2.021 0 .757.149 1.478.457 2.064a3.385 3.385 0 0 0 1.271 1.378c.55.328 1.185.5 1.921.5a3.282 3.282 0 0 0 2.285-.893c.3-.279.557-.6.764-.957v-.557h-3.142v-2.128h5.67v3.178a5.956 5.956 0 0 1-1.221 1.785c-.536.55-1.179 1-1.936 1.343-.756.343-1.614.514-2.578.514-.906 0-1.735-.15-2.492-.457a5.776 5.776 0 0 1-1.971-1.293 5.915 5.915 0 0 1-1.299-1.978 6.635 6.635 0 0 1-.465-2.506c0-.914.158-1.743.465-2.5a5.77 5.77 0 0 1 3.256-3.27c.757-.3 1.585-.45 2.492-.45.85 0 1.65.136 2.4.4a5.809 5.809 0 0 1 1.963 1.157 4.582 4.582 0 0 1 1.236 1.842l-2.492.664h-.007zM58.943 7.492v12.212h-2.721l-4.956-7.784v7.784h-2.685V7.492h2.721l4.934 7.82v-7.82h2.707zM46.96 9.742h-6.177v2.792h4.62v2.128h-4.62v2.792h6.177v2.25h-8.862V7.492h8.862v2.25z" style="fill:#d2d3d5"/></svg>