<svg xmlns="http://www.w3.org/2000/svg" xml:space="preserve" width="142" height="27" style="shape-rendering:geometricPrecision;text-rendering:geometricPrecision;image-rendering:optimizeQuality;fill-rule:evenodd;clip-rule:evenodd" viewBox="0 0 142 26.999">
  <path d="M7.784 23.728h7.627l-7.627-5.792v5.792zM1.429 9.746h6.355l7.627 5.791V9.746h6.355V3.39H1.429v6.356z" style="fill:#03ab02"/>
  <path d="M26.449 7.496h10.255v2.249h-3.785v9.962h-2.685V9.745h-3.785V7.496zm77.216.007v12.211h-1.414l-6.526-9.976v9.976h-1.393V7.503h1.414l6.527 9.962V7.503h1.392zm10.633 1.221h-6.612v4.17h4.97v1.221h-4.97v4.378h6.612v1.221h-8.005V7.503h8.005v1.221zm6.256 10.99h-1.535l-3.435-12.211h1.485l2.721 10.519 2.999-10.519h1.55l2.985 10.505 2.742-10.505h1.464l-3.435 12.211h-1.536L123.56 9.595l-2.999 10.119h-.007zm13.304-3.106c.071.314.221.628.442.935.229.307.543.564.943.764.4.207.914.308 1.542.308.893 0 1.557-.208 1.993-.629.428-.421.642-.914.642-1.485 0-.457-.121-.829-.364-1.115-.243-.292-.578-.535-.992-.721a10.292 10.292 0 0 0-1.414-.514 23.563 23.563 0 0 1-1.386-.428 5.904 5.904 0 0 1-1.249-.593 2.667 2.667 0 0 1-.893-.935c-.221-.386-.328-.864-.328-1.429 0-.685.164-1.285.485-1.785a3.24 3.24 0 0 1 1.378-1.178c.593-.279 1.286-.422 2.078-.422.686 0 1.286.101 1.8.301.514.199.943.471 1.285.828.343.357.593.764.757 1.228l-1.235.471a1.98 1.98 0 0 0-.471-.778 2.758 2.758 0 0 0-.907-.621 3.136 3.136 0 0 0-1.271-.243c-.472 0-.886.079-1.264.243a2.095 2.095 0 0 0-.9.7c-.222.299-.329.671-.329 1.099 0 .464.129.836.393 1.107.264.272.607.493 1.05.664.435.171.914.329 1.442.479.479.15.943.314 1.386.485.45.172.85.393 1.207.643.357.257.635.579.842.957.207.385.314.857.314 1.414 0 .614-.142 1.192-.435 1.721a3.187 3.187 0 0 1-1.314 1.271c-.586.321-1.343.478-2.257.478-.764 0-1.442-.121-2.021-.357a3.888 3.888 0 0 1-1.428-.971 3.362 3.362 0 0 1-.771-1.392l1.271-.508-.021.008zM85.977 7.503h2.685v12.211h-2.685V7.503zm-6.298 0c.985 0 1.813.179 2.47.529.657.357 1.15.828 1.471 1.413.329.586.486 1.229.486 1.928 0 .479-.086.943-.25 1.407a3.732 3.732 0 0 1-.786 1.257c-.35.371-.799.671-1.357.893l2.643 4.784h-2.985l-2.321-4.449h-2.007v4.449h-2.685V7.503h5.321zm1.692 3.87c0-.499-.15-.892-.443-1.185-.3-.293-.757-.436-1.385-.436h-2.492v3.264h2.492c.421 0 .764-.064 1.028-.193.264-.128.472-.314.6-.564.136-.25.2-.543.2-.878v-.008zm-11.283.072c-.336-.614-.764-1.064-1.285-1.35-.514-.286-1.093-.428-1.736-.428-.671 0-1.285.171-1.821.514a3.568 3.568 0 0 0-1.271 1.407c-.307.592-.464 1.271-.464 2.021 0 .749.15 1.478.457 2.063.3.586.728 1.05 1.271 1.379.55.328 1.186.499 1.921.499a3.283 3.283 0 0 0 2.285-.892c.3-.279.557-.6.764-.957v-.557h-3.142v-2.128h5.67v3.178a5.932 5.932 0 0 1-1.221 1.785c-.535.55-1.178 1-1.935 1.342-.757.343-1.614.514-2.578.514-.907 0-1.735-.149-2.492-.457a5.853 5.853 0 0 1-1.971-1.292 5.918 5.918 0 0 1-1.3-1.978 6.666 6.666 0 0 1-.464-2.507c0-.906.157-1.742.464-2.499a5.831 5.831 0 0 1 1.293-1.978 5.755 5.755 0 0 1 1.964-1.292 6.677 6.677 0 0 1 2.492-.457c.849 0 1.65.135 2.399.399a5.82 5.82 0 0 1 1.964 1.157 4.586 4.586 0 0 1 1.235 1.843l-2.492.664-.007.007zM59.169 7.503v12.211h-2.72l-4.956-7.784v7.784h-2.685V7.503h2.721l4.934 7.82v-7.82h2.706zM47.187 9.752H41.01v2.793h4.62v2.128h-4.62v2.792h6.177v2.249h-8.862V7.503h8.862v2.249z" style="fill:#d2d3d5"/>
</svg>
