<?xml version="1.0" encoding="UTF-8"?>
<!DOCTYPE svg PUBLIC "-//W3C//DTD SVG 1.1//EN" "http://www.w3.org/Graphics/SVG/1.1/DTD/svg11.dtd">
<!-- Creator: CorelDRAW -->
<svg xmlns="http://www.w3.org/2000/svg" xml:space="preserve" width="142px" height="27px" version="1.1" style="shape-rendering:geometricPrecision; text-rendering:geometricPrecision; image-rendering:optimizeQuality; fill-rule:evenodd; clip-rule:evenodd"
viewBox="0 0 142 26.999"
 xmlns:xlink="http://www.w3.org/1999/xlink"
 xmlns:xodm="http://www.corel.com/coreldraw/odm/2003">
 <defs>
  <style type="text/css">
   <![CDATA[
    .fil1 {fill:#03AB02}
    .fil0 {fill:#CCCCCC}
    .fil2 {fill:#D2D3D5}
   ]]>
  </style>
 </defs>
 <g id="Layer_x0020_1">
  <metadata id="CorelCorpID_0Corel-Layer"/>
  <polygon class="fil0" points="21.766,9.746 21.766,23.728 15.411,23.728 7.784,17.936 7.784,23.728 1.429,23.728 1.429,9.746 7.784,9.746 15.411,15.537 15.411,9.746 "/>
  <path class="fil1" d="M7.784 23.728l7.627 0 -7.627 -5.792 0 5.792zm-6.355 -13.982l6.355 0 7.627 5.791 0 -5.791 6.355 0 0 -6.356 -20.337 0 0 6.356z"/>
  <path class="fil2" d="M26.449 7.496l10.255 0 0 2.249 -3.785 0 0 9.962 -2.685 0 0 -9.962 -3.785 0 0 -2.249zm77.216 0.007l0 12.211 -1.414 0 -6.526 -9.976 0 9.976 -1.393 0 0 -12.211 1.414 0 6.527 9.962 0 -9.962 1.392 0zm10.633 1.221l-6.612 0 0 4.17 4.97 0 0 1.221 -4.97 0 0 4.378 6.612 0 0 1.221 -8.005 0 0 -12.211 8.005 0 0 1.221zm6.256 10.99l-1.535 0 -3.435 -12.21 1.485 -0.001 2.721 10.519 2.999 -10.519 1.55 0 2.985 10.505 2.742 -10.505 1.464 0 -3.435 12.211 -1.536 0 -2.999 -10.119 -2.999 10.119 -0.007 0zm13.304 -3.106c0.071,0.314 0.221,0.629 0.442,0.935 0.229,0.307 0.543,0.564 0.943,0.764 0.4,0.207 0.914,0.308 1.542,0.308 0.893,0 1.557,-0.208 1.993,-0.629 0.428,-0.421 0.642,-0.913 0.642,-1.485 0,-0.457 -0.121,-0.828 -0.364,-1.115 -0.243,-0.292 -0.578,-0.535 -0.992,-0.721 -0.457,-0.205 -0.933,-0.379 -1.414,-0.514 -0.464,-0.127 -0.933,-0.274 -1.387,-0.429 -0.436,-0.147 -0.857,-0.347 -1.248,-0.592 -0.369,-0.233 -0.677,-0.555 -0.893,-0.935 -0.221,-0.386 -0.328,-0.864 -0.328,-1.429 0,-0.685 0.164,-1.285 0.485,-1.785 0.337,-0.515 0.816,-0.925 1.378,-1.178 0.593,-0.279 1.286,-0.422 2.078,-0.422 0.686,0 1.286,0.101 1.8,0.301 0.514,0.199 0.943,0.47 1.285,0.828 0.344,0.357 0.593,0.763 0.757,1.228l-1.235 0.471c-0.094,-0.292 -0.256,-0.559 -0.471,-0.778 -0.257,-0.266 -0.566,-0.477 -0.907,-0.621 -0.383,-0.16 -0.796,-0.243 -1.212,-0.243 -0.019,0 -0.04,0 -0.059,0 -0.472,0 -0.886,0.079 -1.264,0.243 -0.359,0.146 -0.671,0.389 -0.9,0.7 -0.222,0.299 -0.329,0.671 -0.329,1.1 0,0.464 0.129,0.836 0.393,1.107 0.264,0.272 0.607,0.492 1.05,0.664 0.435,0.17 0.914,0.328 1.442,0.478 0.479,0.151 0.943,0.315 1.386,0.485 0.45,0.172 0.85,0.393 1.207,0.643 0.357,0.257 0.635,0.579 0.842,0.957 0.207,0.385 0.314,0.857 0.314,1.414 0,0.614 -0.142,1.192 -0.435,1.721 -0.304,0.542 -0.762,0.984 -1.314,1.27 -0.586,0.321 -1.343,0.478 -2.257,0.478 -0.764,0 -1.442,-0.121 -2.021,-0.357 -0.543,-0.212 -1.031,-0.544 -1.428,-0.971 -0.364,-0.395 -0.629,-0.874 -0.771,-1.392l1.271 -0.508 -0.021 0.008 0 0.001zm-47.881 -9.105l2.685 0 0 12.211 -2.685 0 0 -12.211zm-6.298 0c0.985,0 1.813,0.179 2.47,0.529 0.657,0.357 1.15,0.828 1.471,1.413 0.329,0.586 0.486,1.23 0.486,1.928 0,0.479 -0.086,0.943 -0.25,1.407 -0.175,0.467 -0.443,0.895 -0.786,1.256 -0.35,0.372 -0.799,0.671 -1.357,0.894l2.643 4.784 -2.985 0 -2.321 -4.448 -2.007 -0.001 0 4.449 -2.685 0 0 -12.211 5.321 0zm1.692 3.87c0,-0.499 -0.15,-0.892 -0.443,-1.185 -0.3,-0.292 -0.757,-0.436 -1.385,-0.436l-2.492 0 0 3.264 2.492 0c0.421,0 0.764,-0.064 1.028,-0.193 0.264,-0.128 0.472,-0.314 0.6,-0.564 0.136,-0.25 0.2,-0.543 0.2,-0.878l0 -0.008zm-11.283 0.072c-0.336,-0.614 -0.764,-1.064 -1.285,-1.35 -0.514,-0.286 -1.093,-0.428 -1.736,-0.428 -0.671,0 -1.285,0.171 -1.821,0.514 -0.542,0.346 -0.982,0.833 -1.271,1.407 -0.307,0.592 -0.464,1.271 -0.464,2.021 0,0.749 0.15,1.479 0.457,2.063 0.3,0.586 0.728,1.05 1.271,1.379 0.55,0.328 1.186,0.499 1.921,0.499 0.012,-0.001 0.024,-0.001 0.036,-0.001 0.836,0 1.64,-0.319 2.249,-0.892 0.3,-0.279 0.557,-0.6 0.764,-0.957l0 -0.557 -3.142 0.001 0 -2.128 5.67 0 0 3.178c-0.294,0.664 -0.709,1.27 -1.221,1.784 -0.536,0.55 -1.179,1 -1.936,1.342 -0.757,0.343 -1.613,0.514 -2.578,0.514 -0.907,0 -1.735,-0.149 -2.491,-0.457 -0.736,-0.292 -1.409,-0.732 -1.971,-1.292 -0.561,-0.564 -1.004,-1.238 -1.3,-1.978 -0.305,-0.778 -0.464,-1.607 -0.464,-2.444 0,-0.02 0,-0.042 0,-0.062 0,-0.906 0.157,-1.742 0.464,-2.499 0.292,-0.74 0.732,-1.414 1.293,-1.978 0.559,-0.56 1.228,-1.001 1.964,-1.292 0.774,-0.301 1.598,-0.457 2.429,-0.457 0.02,0 0.043,0 0.064,0 0.848,0 1.65,0.135 2.398,0.399 0.723,0.253 1.393,0.646 1.964,1.157 0.557,0.504 0.981,1.138 1.235,1.844l-2.492 0.664 -0.007 0.007 0 -0.001zm-10.919 -3.942l0 12.211 -2.72 0 -4.956 -7.784 0 7.784 -2.685 0 0 -12.211 2.721 0 4.934 7.82 0 -7.82 2.706 0zm-11.982 2.249l-6.177 0 0 2.793 4.62 0 0 2.128 -4.62 0 0 2.792 6.177 0 0 2.249 -8.862 0 0 -12.211 8.862 0 0 2.249 0 0z"/>
 </g>
</svg>
