<svg xmlns="http://www.w3.org/2000/svg" xml:space="preserve" width="155" height="27" style="shape-rendering:geometricPrecision;text-rendering:geometricPrecision;image-rendering:optimizeQuality;fill-rule:evenodd;clip-rule:evenodd" viewBox="0 0 155 26.999">
  <path d="M14.579 22.762H7.788v3.921h7.141v-3.921h-.35zm3.013-3.013 1.215-1.214c4.098-4.099 4.098-10.798 0-14.896A10.6 10.6 0 0 0 16.35 1.81c.071.179.136.358.2.543.671 1.964 1.085 4.606 1.085 7.477 0 2.871-.414 5.513-1.085 7.476-.321.936-.722 1.757-1.193 2.443h2.235zm-9.804 0c-.472-.686-.871-1.507-1.193-2.443-.671-1.963-1.085-4.605-1.085-7.476 0-2.871.414-5.513 1.085-7.477.093-.278.2-.549.307-.807-1.085.5-2.099 1.2-2.992 2.093-4.099 4.098-4.099 10.797 0 14.896l1.214 1.214h2.664zM11.665.575h-.142C9.794.639 8.402 4.76 8.402 9.83c0 5.07 1.421 9.262 3.171 9.262 1.749 0 3.17-4.149 3.17-9.262S13.379.725 11.672.575h-.007z" style="fill:#3e6294"/>
  <path d="M26.554 7.509h10.254v2.249h-3.784v9.962h-2.686V9.758h-3.784V7.509zm97.433 12.218h1.414l-4.449-12.211h-2.513l-4.463 12.211h1.413l1.179-3.213h6.255l1.164 3.213zm-6.976-4.434 2.406-6.563h.579l2.385 6.563h-5.37zm31.285 3.213V7.516h-1.393v12.211h7.099v-1.221h-5.706zm-18.733-.257-3.927-10.733h-1.486l4.571 12.211h1.606l4.642-12.211h-1.485l-3.921 10.733zm7.055 1.478h8.005v-1.221h-6.612v-4.377h4.97v-1.221h-4.97v-4.17h6.612V7.516h-8.005v12.211zM93.709 8.738h3.885v10.989h1.399V8.738h3.871V7.516h-9.155v1.222zm17.224 5.705c.521-.2.957-.464 1.292-.8.336-.335.586-.721.743-1.149.157-.429.236-.886.236-1.364 0-.671-.15-1.285-.457-1.821-.307-.536-.757-.971-1.372-1.3-.614-.328-1.392-.485-2.349-.485h-4.292v12.211h1.393v-4.992h2.721l2.985 4.992h1.585l-3.142-5.12c.228-.043.45-.093.65-.165l.007-.007zm-4.799-5.705h2.899c.979 0 1.678.214 2.114.642.428.429.643 1.014.643 1.743 0 .478-.093.893-.286 1.256a1.919 1.919 0 0 1-.893.836c-.399.2-.921.3-1.564.3h-2.913V8.738zM86.081 7.516h2.685v12.211h-2.685V7.516zm-6.298 0c.986 0 1.814.179 2.471.536.657.357 1.149.828 1.471 1.413.328.586.486 1.229.486 1.929 0 .478-.086.942-.251 1.407a3.71 3.71 0 0 1-.785 1.256c-.35.372-.8.671-1.357.893l2.642 4.784h-2.985l-2.32-4.448h-2.007v4.448h-2.685V7.523h5.32v-.007zm1.692 3.871c0-.5-.15-.893-.442-1.186-.3-.293-.757-.435-1.386-.435h-2.492v3.263h2.492c.422 0 .764-.064 1.029-.193.264-.128.471-.314.599-.564.136-.25.2-.543.2-.878v-.007zm-11.282.071c-.336-.614-.765-1.064-1.286-1.35a3.516 3.516 0 0 0-1.735-.428 3.32 3.32 0 0 0-1.821.514 3.56 3.56 0 0 0-1.271 1.407c-.307.593-.464 1.264-.464 2.021 0 .756.15 1.478.457 2.063.3.586.728 1.05 1.271 1.378.549.329 1.185.5 1.921.5a3.278 3.278 0 0 0 2.285-.892c.3-.279.557-.6.764-.957v-.557h-3.142v-2.128h5.67v3.178a5.938 5.938 0 0 1-1.221 1.785c-.536.55-1.179 1-1.936 1.343-.757.342-1.613.514-2.578.514-.906 0-1.735-.15-2.492-.45a5.763 5.763 0 0 1-1.97-1.293 5.903 5.903 0 0 1-1.3-1.978 6.634 6.634 0 0 1-.464-2.506c0-.914.157-1.743.464-2.5a5.829 5.829 0 0 1 1.292-1.978 5.838 5.838 0 0 1 1.964-1.292c.757-.3 1.585-.45 2.492-.45.85 0 1.65.136 2.4.4s1.406.657 1.964 1.157a4.583 4.583 0 0 1 1.235 1.842l-2.492.664-.007-.007zM59.274 7.516v12.211h-2.721l-4.956-7.783v7.783h-2.685V7.516h2.721l4.934 7.819V7.516h2.707zm-11.983 2.25h-6.177v2.791h4.621v2.129h-4.621v2.792h6.177v2.249h-8.862V7.516h8.862v2.25z" style="fill:#d2d3d5"/>
</svg>
