<svg xmlns="http://www.w3.org/2000/svg" xml:space="preserve" width="127" height="27" style="shape-rendering:geometricPrecision;text-rendering:geometricPrecision;image-rendering:optimizeQuality;fill-rule:evenodd;clip-rule:evenodd" viewBox="0 0 127 27">
  <path d="M12.433 3.253v10.555h9.976c.1-5.628-4.349-10.348-9.976-10.555zm-3.949.629v13.875h13.061c-1.607 3.656-5.263 6.226-9.498 6.226H1.678V13.615c0-4.449 2.843-8.27 6.799-9.733h.007z" style="fill:#00c5b0"/>
  <path d="M27.095 7.502h10.254v2.249h-3.784v9.962H30.88V9.751h-3.785V7.502zm69.282.007v10.99h5.706v1.221h-7.099V7.509h1.393zm7.334 0h1.392V19.72h-1.392V7.509zm4.02 0h8.005V8.73h-6.612v4.17h4.97v1.221h-4.97v5.599h-1.393V7.509zm17.91 1.221h-6.613v4.17h4.97v1.221h-4.97v4.378h6.613v1.221h-8.005V7.509h8.005V8.73zM86.622 7.509h2.685V19.72h-2.685V7.509zm-6.298 0c.986 0 1.814.178 2.471.528.657.357 1.149.829 1.471 1.414.328.586.486 1.228.486 1.928 0 .479-.086.943-.251 1.407a3.704 3.704 0 0 1-.785 1.257c-.35.371-.8.671-1.357.893l2.642 4.784h-2.985l-2.32-4.449h-2.007v4.449h-2.685V7.509h5.32zm1.692 3.87c0-.5-.15-.892-.442-1.185-.3-.293-.757-.436-1.386-.436h-2.492v3.264h2.492c.422 0 .764-.065 1.029-.193.264-.129.471-.314.599-.564.136-.25.2-.543.2-.878v-.008zm-11.282.071c-.336-.613-.765-1.063-1.286-1.349a3.506 3.506 0 0 0-1.735-.428 3.32 3.32 0 0 0-1.821.514 3.554 3.554 0 0 0-1.271 1.407c-.307.592-.464 1.264-.464 2.02 0 .757.15 1.479.457 2.064.3.586.728 1.05 1.271 1.378.55.329 1.185.5 1.921.5a3.26 3.26 0 0 0 1.256-.236 3.357 3.357 0 0 0 1.029-.656c.3-.279.557-.6.764-.957v-.557h-3.142v-2.128h5.67v3.177a5.924 5.924 0 0 1-1.221 1.786c-.536.549-1.179 1-1.936 1.342-.756.343-1.613.514-2.577.514-.907 0-1.736-.15-2.492-.457a5.764 5.764 0 0 1-1.971-1.292 5.903 5.903 0 0 1-1.3-1.978 6.666 6.666 0 0 1-.464-2.507c0-.907.157-1.742.464-2.499a5.787 5.787 0 0 1 3.256-3.271c.757-.299 1.585-.45 2.492-.45.85 0 1.65.136 2.4.4a5.83 5.83 0 0 1 1.964 1.157 4.59 4.59 0 0 1 1.235 1.842l-2.492.664h-.007zM59.815 7.509V19.72h-2.721l-4.956-7.784v7.784h-2.685V7.509h2.721l4.934 7.819V7.509h2.707zM47.832 9.758h-6.177v2.792h4.621v2.129h-4.621v2.792h6.177v2.249H38.97V7.509h8.862v2.249z" style="fill:#d2d3d5"/>
</svg>
