<svg xmlns="http://www.w3.org/2000/svg" xml:space="preserve" width="152" height="27" style="shape-rendering:geometricPrecision;text-rendering:geometricPrecision;image-rendering:optimizeQuality;fill-rule:evenodd;clip-rule:evenodd" viewBox="0 0 152 26.999"><defs><clipPath id="a"><path d="M.219 25.912h151.254V.935H.219v24.977z"/></clipPath></defs><g/><g style="clip-path:url(#a)"><path d="M60.436 9.759h-6.141v2.786h4.598v2.123h-4.598v2.786h6.141V19.7h-8.814V7.513h8.814v2.246zm65.882 5.454c0 .803-.143 1.453-.433 1.95a2.654 2.654 0 0 1-1.163 1.1 3.811 3.811 0 0 1-1.647.347 3.947 3.947 0 0 1-1.674-.347 2.65 2.65 0 0 1-1.173-1.1c-.289-.5-.432-1.15-.432-1.95v-7.7h-1.388v7.682c0 1.058.215 1.926.642 2.612a3.942 3.942 0 0 0 1.7 1.525c.705.33 1.474.497 2.307.497.611 0 1.196-.093 1.754-.279a4.41 4.41 0 0 0 1.492-.844 3.856 3.856 0 0 0 1.032-1.438c.248-.581.373-1.273.373-2.073V7.513h-1.387v7.697l-.003.003zm23.127 1.055c-.406.749-.955 1.327-1.65 1.734-.696.407-1.474.608-2.343.608-.868 0-1.668-.204-2.369-.608a4.346 4.346 0 0 1-1.656-1.734c-.405-.749-.608-1.636-.608-2.657 0-1.021.203-1.926.608-2.675.406-.749.958-1.324 1.656-1.725.701-.402 1.489-.602 2.369-.602.881 0 1.65.2 2.343.602.695.401 1.244.976 1.65 1.725.405.749.605 1.642.605 2.675s-.203 1.908-.605 2.657zm1.569-5.173a5.925 5.925 0 0 0-1.274-1.968 5.661 5.661 0 0 0-1.919-1.279 6.147 6.147 0 0 0-2.369-.452c-.844 0-1.65.149-2.387.452a5.83 5.83 0 0 0-1.927 1.279 5.81 5.81 0 0 0-1.283 1.968c-.307.761-.459 1.599-.459 2.519 0 .919.152 1.755.459 2.516a5.854 5.854 0 0 0 1.283 1.968c.549.551 1.19.98 1.927 1.282a6.217 6.217 0 0 0 2.387.452c.857 0 1.635-.15 2.369-.452a5.713 5.713 0 0 0 1.919-1.282 5.878 5.878 0 0 0 1.274-1.968c.307-.761.459-1.6.459-2.516 0-.917-.152-1.758-.459-2.519zm-21.515-2.364h3.87v10.975h1.39V8.731h3.852V7.513h-9.112v1.218zm-20.468 6.551 2.393-6.551h.573l2.372 6.551h-5.338zm1.42-7.769-4.442 12.193h1.405l1.17-3.205h6.224l1.16 3.205h1.406l-4.425-12.193h-2.498zm-38.099 0v12.19h-2.706l-4.926-7.776v7.776h-2.67V7.513h2.706l4.908 7.808V7.513h2.688zm10.861 3.935c-.334-.614-.761-1.066-1.274-1.348a3.515 3.515 0 0 0-1.727-.428c-.672 0-1.275.171-1.815.515-.537.342-.96.809-1.265 1.402-.307.593-.459 1.264-.459 2.019 0 .755.149 1.476.45 2.063a3.367 3.367 0 0 0 1.266 1.375c.542.33 1.178.497 1.906.497.451 0 .868-.077 1.25-.236a3.343 3.343 0 0 0 1.023-.653c.302-.278.556-.599.765-.958v-.56h-3.124v-2.124h5.639v3.172a6.01 6.01 0 0 1-1.215 1.785 6.24 6.24 0 0 1-1.927 1.342c-.752.341-1.608.515-2.566.515-.901 0-1.731-.15-2.483-.452a5.791 5.791 0 0 1-1.96-1.288 5.9 5.9 0 0 1-1.292-1.977c-.307-.761-.459-1.594-.459-2.498 0-.905.152-1.738.459-2.498a5.97 5.97 0 0 1 1.283-1.977 5.69 5.69 0 0 1 1.952-1.288c.752-.303 1.578-.453 2.479-.453a7.05 7.05 0 0 1 2.387.402 5.72 5.72 0 0 1 1.951 1.159 4.62 4.62 0 0 1 1.233 1.836l-2.48.662.003-.006zm11.225-.069c0-.5-.147-.895-.442-1.183-.295-.29-.755-.434-1.379-.434h-2.482v3.256h2.482c.415 0 .759-.063 1.024-.192.266-.129.466-.318.6-.566.134-.249.2-.542.2-.881h-.003zm-1.683-3.866c.982 0 1.802.176 2.456.529.653.354 1.142.824 1.465 1.411.325.587.486 1.228.486 1.923 0 .477-.084.944-.251 1.402a3.623 3.623 0 0 1-.782 1.255c-.349.372-.799.668-1.348.89l2.626 4.78h-2.966l-2.31-4.442h-1.993v4.442h-2.67V7.513h5.29-.003zm6.263 0h2.67v12.19h-2.67V7.513zm-59.209-.009h10.202V9.75h-3.766v9.944h-2.673V9.75h-3.766V7.504h.003z" style="fill:#d2d3d5"/><path d="M4.294 22.504v3.408h5.35l.982-3.408h12.215l.981 3.408h5.35V11.077h-.006l4.076-.012V7.599l-4.362-.006H4.581l-.287 3.481-4.076-.012V7.596l4.363-.006L7.314.935h18.842l2.73 6.658h-.003l.286 3.481H4.294v11.43zm2.322-7.599h5.713l-.838 3.481H6.616v-3.481zm20.235 0v3.481h-4.872l-.839-3.481h5.714-.003z" style="fill:#fdb714"/></g><path style="fill:none" d="M.219 25.912h151.254V.935H.219z"/></svg>