<?xml version="1.0" encoding="utf-8"?>
<!-- Generator: Adobe Illustrator 26.5.0, SVG Export Plug-In . SVG Version: 6.00 Build 0)  -->
<svg version="1.1" id="Layer_1" xmlns="http://www.w3.org/2000/svg" xmlns:xlink="http://www.w3.org/1999/xlink" x="0px" y="0px"
	 width="20px" height="20px" viewBox="0 0 20 20" style="enable-background:new 0 0 20 20;" xml:space="preserve">
<path d="M16,2H4C2.9,2,2,2.9,2,4v12c0,1.1,0.9,2,2,2h12c1.1,0,2-0.9,2-2V4C18,2.9,17.1,2,16,2z M17,16c0,0.6-0.4,1-1,1H4
	c-0.6,0-1-0.4-1-1v-3h3.6c0.7,1.2,2,2,3.4,2s2.8-0.8,3.4-2H17V16z M17,12h-4.2c-0.4,1.2-1.5,2-2.8,2s-2.4-0.8-2.8-2H3V4
	c0-0.6,0.4-1,1-1h12c0.6,0,1,0.4,1,1V12z"/>
</svg>
