<?xml version="1.0" encoding="utf-8"?>
<!-- Generator: Adobe Illustrator 26.5.0, SVG Export Plug-In . SVG Version: 6.00 Build 0)  -->
<svg version="1.1" id="Layer_1" xmlns="http://www.w3.org/2000/svg" xmlns:xlink="http://www.w3.org/1999/xlink" x="0px" y="0px"
	 width="20px" height="20px" viewBox="0 0 20 20" style="enable-background:new 0 0 20 20;" xml:space="preserve">
<path d="M18,0H2C0.9,0,0,0.9,0,2v10v1v5c0,1.1,0.9,2,2,2h16c1.1,0,2-0.9,2-2v-5v-1V2C20,0.9,19.1,0,18,0z M19,12h-6
	c-0.3,0.8-1,1.4-1.7,1.7c0,0,0,0,0,0c-0.2,0.1-0.3,0.1-0.5,0.2c0,0-0.1,0-0.1,0C10.4,14,10.2,14,10,14s-0.4,0-0.7-0.1
	c0,0-0.1,0-0.1,0c-0.2,0-0.4-0.1-0.5-0.2c0,0,0,0,0,0C8,13.4,7.3,12.8,7,12H1V2c0-0.6,0.4-1,1-1h16c0.6,0,1,0.4,1,1V12z"/>
</svg>
