<svg xmlns="http://www.w3.org/2000/svg" xml:space="preserve" width="140" height="32" shape-rendering="geometricPrecision" text-rendering="geometricPrecision" image-rendering="optimizeQuality" fill-rule="evenodd" clip-rule="evenodd" viewBox="0 0 140 32"><path fill="#fff" fill-rule="nonzero" d="M92.609 10.971q2.375 0 3.692 1.681 1.318 1.683 1.318 4.624v.182q0 2.874-1.347 4.59-1.348 1.716-3.64 1.716-1.769 0-2.908-1.243v6.225h-4.002V11.199h3.74l.119 1.14q1.152-1.368 3.028-1.368M15.501-.001c8.837 0 16 7.164 16 16.001 0 8.836-7.163 16-16 16S-.5 24.836-.5 16 6.664-.001 15.501-.001m49.207 10.972q2.458 0 3.883 1.151t1.46 3.159v5.461q.024 1.699.546 2.6v.194h-4.001q-.213-.377-.38-1.106-1.104 1.334-3.087 1.334-1.817 0-3.087-1.055t-1.27-2.651q0-2.007 1.543-3.033t4.488-1.026h1.235v-.65q0-1.7-1.532-1.699-1.424 0-1.424 1.346h-4.001q0-1.79 1.585-2.908t4.042-1.117m13.025 0q2.54 0 4.084 1.106 1.543 1.105 1.543 2.907h-4.013q0-1.482-1.627-1.482-.628 0-1.056.336-.428.337-.428.838 0 .513.523.833.522.319 1.668.524t2.012.49q2.898.958 2.897 3.433 0 1.687-1.561 2.747t-4.042 1.061q-1.651 0-2.945-.57-1.295-.57-2.018-1.551-.725-.981-.725-2.064h3.74q.024.855.594 1.249.57.393 1.46.393.82 0 1.229-.319t.41-.833q0-.49-.534-.786-.535-.297-2.031-.616-1.495-.32-2.469-.838-.974-.519-1.485-1.26a2.9 2.9 0 0 1-.51-1.699q0-1.699 1.46-2.799t3.824-1.1M47.671 6v8.255L53.334 6h5.153l-6.328 8.277 5.842 9.259h-4.939l-3.681-6.18-1.71 1.801v4.379h-4.167V6zm56.418 5.199v12.337h-4.013V11.199zm35.284 0v2.075l-5.722 7.297h5.853v2.965h-10.911v-2.144l5.699-7.229h-6.714l2.674-2.964zm-29.919 8.357c1.095 0 1.981.855 1.981 1.91s-.886 1.909-1.981 1.909c-1.094 0-1.981-.855-1.981-1.909s.887-1.91 1.981-1.91M118.746 6v9.214l.404-.508 3.024-3.568h4.809l-4.511 5.024 4.809 7.193h-4.595l-2.809-4.55-1.131 1.072v3.478h-4.012V6zM66.038 18.051h-1.163q-2.09 0-2.09 1.802 0 .525.368.849.368.325.938.325.748 0 1.241-.308.492-.308.706-.695zm25.585-4.116q-1.425 0-1.899.981v4.857q.522 1.026 1.923 1.026 1.911 0 1.971-3.169v-.411q0-3.284-1.995-3.284M102.137 6a1.99 1.99 0 0 1 1.981 2.001c0 1.104-.887 2-1.981 2a1.99 1.99 0 0 1-1.981-2A1.99 1.99 0 0 1 102.137 6"/><path fill="#f14635" d="M15.5-.001c4.418 0 8.418 1.791 11.314 4.686A15.95 15.95 0 0 1 31.5 16c0 4.418-1.791 8.418-4.686 11.314A15.95 15.95 0 0 1 15.5 32a15.95 15.95 0 0 1-11.314-4.686A15.95 15.95 0 0 1-.5 16c0-4.419 1.791-8.419 4.686-11.315A15.95 15.95 0 0 1 15.5-.001m.725 17.117c3.22.498 3.213 2.533 3.574 4.939.279 1.811 1.806 7.81-.032 8.865a15.4 15.4 0 0 0 3.593-1.542c-.969.022-1.401-5.552-.604-5.947.863-.417 2.887 3.538 2.378 4.73a15.6 15.6 0 0 0 2.306-2.254c-1.752-.895-3.334-7.495-3.334-9.172 0-.844 1.217-2.163 2.294-3.321.805-.872 1.568-1.693 1.849-2.339.357-.834.107-1.416-.288-1.613-.359-.175-.897-.048-1.274.623-.62 1.085-.818 1.288-1.722 2.014-.889.726-2.303 1.456-2.303.51 0-.51.788-1.666 1.177-2.477.397-.819-.031-1.413-.851-1.413-1.611 0-2.68 2.052-2.68 2.763s.345.811.345 1.638c0 .833-1.768 1.914-3.432 1.914-1.624 0-2.562-.167-3.078-1.696-.395-1.154-.678-1.99-1.171-2.865-.425-.752-1.627-1.348-1.758-1.99-.046-.242-.07-.698.71-1.747.779-1.044.889-1.832.499-2.239-.73-.749-2.26.317-2.783.848-1.218 1.248-.526 2.433-.526 2.953s-.223.814-.954 1.522c-.736.71-.99 1.319-1.075 3.766-.032 1.261-.254 1.987-.453 2.631-.172.564-.331 1.095-.34 1.861-.013.849.128 1.396.293 2.028.162.584.334 1.253.444 2.371.059.579.131 5.246-.614 6.1a15.5 15.5 0 0 0 3.519 1.909c-.164-.349-.292-.858-.376-1.503-.283-2.255-.037-5.632.612-5.672.602-.034.989 2.926 1.067 5.171.049 1.403-.079 2.065-.295 2.352 1.484.456 3.107.702 4.66.679-.544-.017-1.128-.271-1.423-.751-.819-1.333-.679-5.179-.692-7.137-.014-2.062-.602-7.035 2.738-6.509"/></svg>