<svg xmlns="http://www.w3.org/2000/svg" xml:space="preserve" width="140" height="32" shape-rendering="geometricPrecision" text-rendering="geometricPrecision" image-rendering="optimizeQuality" fill-rule="evenodd" clip-rule="evenodd" viewBox="0 0 140 32"><path fill="#fff" fill-rule="nonzero" d="M92.609 10.971q2.375 0 3.692 1.681 1.318 1.683 1.318 4.624v.182q0 2.874-1.347 4.59-1.348 1.716-3.64 1.716-1.769 0-2.908-1.243v6.225h-4.002V11.199h3.74l.119 1.14q1.152-1.368 3.028-1.368M15.501-.001c8.837 0 16 7.164 16 16.001 0 8.836-7.163 16-16 16S-.5 24.836-.5 16 6.664-.001 15.501-.001m49.207 10.972q2.458 0 3.883 1.151t1.46 3.159v5.461q.024 1.699.546 2.6v.194h-4.001q-.213-.377-.38-1.106-1.104 1.334-3.087 1.334-1.817 0-3.087-1.055t-1.27-2.651q0-2.007 1.543-3.033t4.488-1.026h1.235v-.65q0-1.7-1.532-1.699-1.424 0-1.424 1.346h-4.001q0-1.79 1.585-2.908t4.042-1.117m13.025 0q2.54 0 4.084 1.106 1.543 1.105 1.543 2.907h-4.013q0-1.482-1.627-1.482-.628 0-1.056.336-.428.337-.428.838 0 .513.523.833.522.319 1.668.524t2.012.49q2.898.958 2.897 3.433 0 1.687-1.561 2.747t-4.042 1.061q-1.651 0-2.945-.57-1.295-.57-2.018-1.551-.725-.981-.725-2.064h3.74q.024.855.594 1.249.57.393 1.46.393.82 0 1.229-.319t.41-.833q0-.49-.534-.786-.535-.297-2.031-.616-1.495-.32-2.469-.838-.974-.519-1.485-1.26a2.9 2.9 0 0 1-.51-1.699q0-1.699 1.46-2.799t3.824-1.1M47.671 6v8.255L53.334 6h5.153l-6.328 8.277 5.842 9.259h-4.939l-3.681-6.18-1.71 1.801v4.379h-4.167V6zm56.418 5.199v12.337h-4.013V11.199zm35.284 0v2.075l-5.722 7.297h5.853v2.965h-10.911v-2.144l5.699-7.229h-6.714l2.674-2.964zm-29.919 8.357c1.095 0 1.981.855 1.981 1.91s-.886 1.909-1.981 1.909c-1.094 0-1.981-.855-1.981-1.909s.887-1.91 1.981-1.91M118.746 6v9.214l.404-.508 3.024-3.568h4.809l-4.511 5.024 4.809 7.193h-4.595l-2.809-4.55-1.131 1.072v3.478h-4.012V6zM66.038 18.051h-1.163q-2.09 0-2.09 1.802 0 .525.368.849.368.325.938.325.748 0 1.241-.308.492-.308.706-.695zm25.585-4.116q-1.425 0-1.899.981v4.857q.522 1.026 1.923 1.026 1.911 0 1.971-3.169v-.411q0-3.284-1.995-3.284M102.137 6a1.99 1.99 0 0 1 1.981 2.001c0 1.104-.887 2-1.981 2a1.99 1.99 0 0 1-1.981-2A1.99 1.99 0 0 1 102.137 6"/><path fill="#f14635" d="M16.247 17.151c2.864.442 3.251 2.137 3.483 3.714l.038.269.027.183.139.928c.273 1.772.842 5.45.842 7.37 0 .48-.042.848-.119 1.05-.129.312-.503.611-1.02.86a16.3 16.3 0 0 1-3.905.475c-.143 0-.283-.007-.424-.011-.544-.155-.953-.413-1.17-.766-.654-1.064-.693-3.436-.707-6.208l-.001-.321-.005-.831c-.022-2.935-.04-5.465 1.026-6.372.413-.35 1-.465 1.796-.34m-6.243 6.389c.62-.035 1.019 3.017 1.1 5.332.056 1.611-.113 2.274-.384 2.512a15 15 0 0 1-.902-.332c-.198-.359-.349-.924-.445-1.664-.293-2.325-.038-5.807.631-5.848m15.558 4.561a2 2 0 0 1-.161.514q-.796.64-1.672 1.169c-.185.031-.35.009-.431-.127-.773-1.359-1.064-5.623-.315-5.994.975-.471 2.724 3.701 2.579 4.438M15.501 0c8.713 0 15.8 6.901 15.995 15.487l.004.297v.137c-.016 3.879-1.334 7.55-3.686 10.296-.085-.043-.35-.305-.632-.726-.292-.424-2.807-4.296-2.807-8.733 0-.871 1.255-2.231 2.366-3.425.83-.899 1.616-1.746 1.906-2.412.369-.86.111-1.46-.297-1.663-.37-.181-.925-.049-1.314.642-.639 1.119-.843 1.328-1.775 2.077-.917.748-2.375 1.502-2.375.526 0-.526.812-1.718 1.213-2.554.41-.845-.032-1.457-.878-1.457-1.66 0-2.763 2.116-2.763 2.848 0 .733.356.837.356 1.69 0 .859-1.823 1.974-3.539 1.974-1.653 0-2.612-.334-3.009-1.277l-.05-.132-.115-.34c-.407-1.19-.7-2.053-1.208-2.955-.27-.477-.687-.808-1.047-1.099-.471-.365-.715-.702-.766-.953-.047-.249-.072-.719.733-1.802.803-1.076.916-1.889.514-2.309-.146-.149-.395-.244-.714-.244-.564 0-1.348.299-2.155 1.119-1.257 1.287-.544 2.509-.544 3.046s-.23.839-.983 1.568c-.76.733-1.022 1.361-1.109 3.885-.033 1.3-.262 2.049-.467 2.713-.178.581-.341 1.129-.35 1.919-.014.876.131 1.44.302 2.091.167.602.344 1.292.458 2.445.18 1.786.118 3.295-.211 4.837l-.088.386-.02.111c-.068.271-.207.835-.315.958C2.081 26.095-.5 21.163-.5 15.853-.5 7.098 6.663 0 15.501 0"/></svg>