<svg xmlns="http://www.w3.org/2000/svg" xml:space="preserve" width="760" height="160" shape-rendering="geometricPrecision" text-rendering="geometricPrecision" image-rendering="optimizeQuality" fill-rule="evenodd" clip-rule="evenodd" viewBox="0 0 760 160"><path fill="#f14635" fill-rule="nonzero" d="M0 32.941C0 14.748 14.748 0 32.941 0h94.118C145.252 0 160 14.748 160 32.941v94.118C160 145.252 145.252 160 127.059 160H32.941C14.748 160 0 145.252 0 127.059z"/><path fill="#fff" d="M80.002 27c29.197 0 52.876 23.387 52.998 52.285 0 12.656-4.334 24.536-12.571 34.157-.283-.142-.798-.606-1.732-2.003-.966-1.404-9.299-14.229-9.299-28.927 0-5.13 11.788-13.898 14.152-19.336 1.222-2.847.367-4.835-.985-5.509-1.224-.599-3.062-.162-4.351 2.128-2.116 3.707-2.794 4.399-5.881 6.879-3.037 2.479-7.866 4.975-7.866 1.745 0-1.677 3.034-6.412 4.018-8.463 1.357-2.8-.105-4.826-2.907-4.826-5.502 0-9.154 7.008-9.154 9.436 0 2.103 1.177 3.278 1.177 5.598 0 2.846-6.036 6.538-11.723 6.538-5.723 0-8.933-1.211-10.132-4.668-1.254-3.708-2.457-7.5-4.381-10.914-1.263-2.231-5.602-4.808-6.006-6.799-.156-.825-.24-2.381 2.427-5.967 1.862-2.494 4.666-8.46-.66-8.46-1.869 0-4.466.99-7.142 3.71-4.236 4.342-1.799 6.36-1.799 10.088 0 1.776-.762 2.78-3.259 5.196-2.515 2.426-3.382 4.506-3.67 12.868-.11 4.307-.869 6.787-1.55 8.986-.588 1.927-1.13 3.739-1.159 6.357-.047 2.901.436 4.771 1 6.928.553 1.994 1.141 4.279 1.517 8.1.226 2.231.493 17.334-1.903 20.065C35.747 112.664 27 97.103 27 79.514 27 50.514 50.729 27 80.002 27m187.137-11.045v31.348l21.289-31.348h21.142l-23.994 31.396 23.994 39.698h-20.263l-15.155-26.44-7.013 7.672v18.768H250V15.955zm334.467 103.699v8.965h2.124l6.211-8.965h4.497l-7.268 10.191 7.928 11.137h-4.41l-6.505-9.17h-2.577v9.17h-3.662v-21.328zM580.703 134.2h-3.896v3.999h3.896q.938 0 1.553-.234t.908-.674q.308-.454.308-1.069 0-.63-.293-1.084-.294-.455-.908-.689-.601-.249-1.568-.249m-3.896-2.49h2.991q1.004-.003 1.652-.205.673-.206.996-.615.323-.425.323-1.026 0-.498-.191-.864a1.47 1.47 0 0 0-.586-.615q-.38-.249-.967-.352a6.7 6.7 0 0 0-1.333-.117h-2.885zm0 9.272h-3.531v-15.849h6.416q1.524 0 2.74.263 1.23.264 2.094.806.865.542 1.319 1.377.468.82.468 1.934 0 .732-.322 1.377-.307.644-.923 1.142a5.1 5.1 0 0 1-1.441.796q.785.167 1.383.493.996.543 1.494 1.363t.498 1.787q0 1.113-.425 1.963a3.64 3.64 0 0 1-1.23 1.42q-.806.558-1.978.85-1.172.278-2.666.278zm-18.897-21.401v21.401h-3.53v-17.211l-5.23 1.772v-2.915l8.335-3.047zm-13.476 13.213v2.095h-8.863v-2.095zm-9.463-7.002v-1.216q0-1.509.615-2.666a4.6 4.6 0 0 1 1.758-1.831q1.127-.659 2.666-.659 1.567 0 2.68.659a4.5 4.5 0 0 1 1.744 1.831q.615 1.157.615 2.666v1.216q0 1.51-.615 2.666a4.43 4.43 0 0 1-1.729 1.816q-1.113.66-2.666.66t-2.695-.66a4.6 4.6 0 0 1-1.758-1.816q-.615-1.157-.615-2.666m2.461-1.216v1.216q0 .894.278 1.582.279.688.864 1.084.586.396 1.465.396.864 0 1.436-.396a2.36 2.36 0 0 0 .849-1.084q.279-.688.279-1.582v-1.216q0-.879-.293-1.567a2.36 2.36 0 0 0-.85-1.084q-.571-.41-1.45-.41-.865 0-1.45.41a2.36 2.36 0 0 0-.85 1.084q-.279.688-.278 1.567m-4.512-4.922v21.328h-3.882l-7.339-15.278v15.278h-3.545v-21.328h3.882l7.354 15.308v-15.308zm-31.626 21.621q-1.758 0-3.179-.571a7 7 0 0 1-2.402-1.626 7.2 7.2 0 0 1-1.509-2.446 8.6 8.6 0 0 1-.527-3.032v-.586q0-1.862.542-3.369.541-1.51 1.509-2.579a6.5 6.5 0 0 1 2.285-1.655 7.1 7.1 0 0 1 2.856-.571q1.7 0 2.974.571a5.6 5.6 0 0 1 2.109 1.611q.85 1.025 1.26 2.447.425 1.42.425 3.135v1.508H497.24q.05.752.26 1.421.293.88.85 1.538.557.66 1.347 1.04.792.367 1.802.367 1.274 0 2.271-.513a5.2 5.2 0 0 0 1.728-1.45l1.86 1.801a7.2 7.2 0 0 1-1.333 1.436q-.82.673-2.006 1.099-1.173.424-2.725.424m-3.981-9.697h6.837v-.278a5 5 0 0 0-.38-1.787 3.04 3.04 0 0 0-1.041-1.348q-.702-.513-1.875-.513-.878 0-1.567.381a3.1 3.1 0 0 0-1.128 1.07q-.454.702-.703 1.699a8 8 0 0 0-.143.776m-16.498 4.248 6.226-10.693h3.53v15.849h-3.53v-10.708l-6.226 10.708h-3.53v-15.849h3.53zm-10.942-1.289h-6.196v6.445h-3.531v-15.849h3.531v6.621h6.196v-6.621h3.53v15.849h-3.53zm-18.94 6.738q-1.758 0-3.179-.571a7 7 0 0 1-2.402-1.626 7.2 7.2 0 0 1-1.509-2.446 8.6 8.6 0 0 1-.528-3.032v-.586q0-1.862.542-3.369.543-1.51 1.509-2.579a6.5 6.5 0 0 1 2.285-1.655 7.1 7.1 0 0 1 2.857-.571q1.7 0 2.973.571 1.275.572 2.11 1.611.849 1.025 1.26 2.447.424 1.42.424 3.135v1.508h-10.398q.053.752.262 1.421a4.6 4.6 0 0 0 .849 1.538q.557.66 1.348 1.04.79.367 1.802.367 1.274 0 2.27-.513a5.2 5.2 0 0 0 1.729-1.45l1.86 1.801a7.3 7.3 0 0 1-1.333 1.436q-.82.673-2.007 1.099-1.172.424-2.724.424m-3.982-9.697h6.838v-.278a4.9 4.9 0 0 0-.381-1.787 3.03 3.03 0 0 0-1.04-1.348q-.704-.513-1.875-.513-.879 0-1.567.381a3.1 3.1 0 0 0-1.128 1.07q-.454.702-.703 1.699a8 8 0 0 0-.144.776m-23.214 1.11-5.06-7.555h4.336l3.691 6.24h1.699v-6.24h3.516v6.24h1.728l3.692-6.24h4.35l-5.032 7.512 5.34 8.337h-4.38l-3.77-6.401h-1.928v6.401h-3.516v-6.401h-1.912l-3.757 6.401h-4.336zm-21.364.545v-.337q0-1.714.498-3.178.498-1.48 1.436-2.564a6.5 6.5 0 0 1 2.314-1.699q1.377-.615 3.106-.615 1.743 0 3.105.615a6.45 6.45 0 0 1 2.329 1.699q.952 1.084 1.45 2.564c.405 1.192.498 2.271.498 3.515q0 1.715-.498 3.179a7.6 7.6 0 0 1-1.45 2.564 6.7 6.7 0 0 1-2.314 1.699q-1.363.6-3.091.6-1.743 0-3.12-.6a6.7 6.7 0 0 1-2.315-1.699 7.6 7.6 0 0 1-1.45-2.564q-.498-1.464-.498-3.179m3.53 0q0 1.07.22 2.022t.689 1.67 1.201 1.128 1.743.41q.982 0 1.699-.41.733-.411 1.201-1.128a5.1 5.1 0 0 0 .689-1.67 8.5 8.5 0 0 0 .234-2.022c0-.813-.035-1.53-.234-2.329a5.1 5.1 0 0 0-.703-1.684 3.36 3.36 0 0 0-1.202-1.143q-.717-.425-1.713-.425t-1.729.425a3.4 3.4 0 0 0-1.186 1.143 5.3 5.3 0 0 0-.689 1.684c-.186.798-.22 1.519-.22 2.329m-10.136-5.288h-4.504l-.272 5.025q-.088 1.743-.351 3.076-.25 1.319-.674 2.27-.425.938-1.04 1.524t-1.436.864q-.82.279-1.845.278h-1.099l-.015-2.9.557-.044q.542-.044.937-.278.396-.25.674-.703.294-.455.469-1.172.19-.718.293-1.699.117-.982.176-2.286l.293-6.767h11.367v15.849h-3.53zm-23.379 7.881 6.225-10.693h3.531v15.849h-3.531v-10.708l-6.225 10.708h-3.531v-15.849h3.531zm-16.978-6.255v6.973a3.5 3.5 0 0 0 1.201 1.406q.791.513 2.022.513.953 0 1.626-.41a3.2 3.2 0 0 0 1.098-1.128q.44-.732.645-1.685c.171-.794.205-1.524.205-2.329a9.5 9.5 0 0 0-.205-2.036 5.3 5.3 0 0 0-.645-1.67 3.15 3.15 0 0 0-1.128-1.113q-.674-.41-1.625-.41-.938 0-1.612.322a3.1 3.1 0 0 0-1.128.864 4 4 0 0 0-.454.703m0 9.936v7.569h-3.53v-21.943h3.252l.151 1.652a5.2 5.2 0 0 1 1.709-1.389q1.099-.556 2.564-.556 1.494 0 2.651.586a5.34 5.34 0 0 1 1.948 1.64q.792 1.055 1.187 2.549.395 1.48.395 3.296c0 1.222-.08 2.329-.41 3.516q-.396 1.464-1.186 2.563a5.5 5.5 0 0 1-1.919 1.685q-1.143.6-2.637.6-1.48 0-2.593-.542a5.3 5.3 0 0 1-1.582-1.226m-10.825-11.562h-6.211v13.037h-3.53v-15.849h13.286v15.849h-3.545zm-23.189 1.626v6.973a3.5 3.5 0 0 0 1.202 1.406q.79.513 2.021.513.952 0 1.626-.41.674-.411 1.099-1.128.44-.732.644-1.685a9.6 9.6 0 0 0 .205-2.021v-.308a9.5 9.5 0 0 0-.205-2.036 5.3 5.3 0 0 0-.644-1.67 3.15 3.15 0 0 0-1.128-1.113q-.673-.41-1.626-.41-.937 0-1.611.322-.675.308-1.128.864a4 4 0 0 0-.455.703m0 9.936v7.569h-3.53v-21.943h3.252l.151 1.652a5.2 5.2 0 0 1 1.71-1.389q1.098-.556 2.563-.556 1.494 0 2.651.586a5.35 5.35 0 0 1 1.949 1.64q.79 1.055 1.186 2.549.396 1.48.396 3.296v.308q0 1.728-.411 3.208-.395 1.464-1.186 2.563a5.5 5.5 0 0 1-1.919 1.685q-1.143.6-2.637.6-1.479 0-2.592-.542a5.3 5.3 0 0 1-1.583-1.226m-12.641 1.768q-1.758 0-3.179-.571a7 7 0 0 1-2.402-1.626 7.2 7.2 0 0 1-1.509-2.446 8.6 8.6 0 0 1-.527-3.032v-.586q0-1.862.542-3.369.542-1.51 1.508-2.579a6.5 6.5 0 0 1 2.286-1.655 7.1 7.1 0 0 1 2.856-.571q1.7 0 2.974.571a5.6 5.6 0 0 1 2.109 1.611q.849 1.025 1.26 2.447.425 1.42.425 3.135v1.508H304.7q.052.752.261 1.421.292.88.85 1.538.556.66 1.347 1.04.792.367 1.802.367 1.274 0 2.27-.513a5.2 5.2 0 0 0 1.729-1.45l1.86 1.801a7.2 7.2 0 0 1-1.333 1.436q-.82.673-2.007 1.099-1.172.424-2.724.424m-3.981-9.697h6.837v-.278a4.9 4.9 0 0 0-.381-1.787 3.03 3.03 0 0 0-1.04-1.348q-.702-.513-1.875-.513-.879 0-1.567.381a3.1 3.1 0 0 0-1.128 1.07q-.454.702-.703 1.699a8 8 0 0 0-.143.776m-10.287-3.633h-6.211v13.037h-3.53v-15.849h13.286v15.849h-3.545zm-18.962 8.016 3.303-10.828h3.779l-6.357 18.266q-.22.586-.571 1.275a5.8 5.8 0 0 1-.923 1.304 4.1 4.1 0 0 1-1.392 1.01q-.834.396-2.021.396a4.7 4.7 0 0 1-.908-.088 15 15 0 0 1-.806-.161l-.015-2.696q.147.015.352.03.219.014.351.014.88 0 1.465-.219.586-.206.952-.674.381-.47.645-1.26l.515-1.387-5.613-15.81h3.809zm-12.254-1.922h3.663q-.176 2.095-1.172 3.735-.996 1.626-2.798 2.564-1.801.937-4.38.937-1.977 0-3.56-.703a7.8 7.8 0 0 1-2.71-2.021q-1.128-1.319-1.728-3.179-.586-1.86-.586-4.16v-1.773q0-2.299.601-4.16.615-1.86 1.757-3.178a7.6 7.6 0 0 1 2.74-2.037q1.611-.703 3.618-.703 2.549 0 4.306.938 1.759.937 2.725 2.593.981 1.655 1.201 3.794h-3.662q-.147-1.378-.644-2.359a3.33 3.33 0 0 0-1.436-1.494q-.952-.528-2.49-.527-1.26 0-2.197.468a4.16 4.16 0 0 0-1.568 1.377q-.63.909-.952 2.242-.308 1.317-.308 3.017v1.802q0 1.611.279 2.93.292 1.304.879 2.241.6.937 1.523 1.45t2.212.513q1.568 0 2.534-.498a3.32 3.32 0 0 0 1.48-1.451q.512-.966.673-2.358m486.724 7.236q-1.758 0-3.179-.571a7 7 0 0 1-2.402-1.626 7.2 7.2 0 0 1-1.509-2.446 8.6 8.6 0 0 1-.527-3.032v-.586q0-1.862.542-3.369.541-1.51 1.509-2.579a6.5 6.5 0 0 1 2.285-1.655 7.1 7.1 0 0 1 2.856-.571q1.7 0 2.974.571 1.275.572 2.109 1.611.85 1.025 1.26 2.447.425 1.42.425 3.135v1.508h-10.397q.053.752.26 1.421.293.88.85 1.538.556.66 1.347 1.04.792.367 1.802.367 1.275 0 2.271-.513a5.2 5.2 0 0 0 1.728-1.45l1.861 1.801a7.3 7.3 0 0 1-1.333 1.436q-.82.673-2.007 1.099-1.173.424-2.725.424m-3.981-9.697h6.838v-.278a5 5 0 0 0-.381-1.787 3.05 3.05 0 0 0-1.04-1.348q-.704-.513-1.875-.513-.88 0-1.568.381a3.1 3.1 0 0 0-1.128 1.07q-.454.702-.703 1.699a8 8 0 0 0-.143.776m-10.301 2.959h-6.196v6.445h-3.531v-15.849h3.531v6.621h6.196v-6.621h3.53v15.849h-3.53zm-17.08 1.971v-2.982h-1.992q-.982 0-1.729.191-.747.176-1.245.527a2.3 2.3 0 0 0-.747.85 2.5 2.5 0 0 0-.249 1.128q0 .63.293 1.157.292.513.849.806.571.293 1.377.293 1.084 0 1.89-.44.82-.454 1.289-1.099a3 3 0 0 0 .264-.431m0-5.164v-1.099q0-.85-.308-1.465a2.15 2.15 0 0 0-.937-.952q-.615-.337-1.553-.337-.864 0-1.494.293t-.982.791a1.9 1.9 0 0 0-.351 1.128h-3.516q0-.937.454-1.816.454-.88 1.319-1.568.864-.688 2.065-1.084 1.201-.395 2.695-.395 1.788 0 3.164.6 1.392.601 2.183 1.817.806 1.201.806 3.017v7.046q0 1.084.146 1.949.162.849.454 1.479v.234h-3.618q-.25-.57-.395-1.45l-.016-.115q-.21.23-.453.452-.673.615-1.626 1.011-.938.395-2.168.395-1.553 0-2.769-.615-1.215-.63-1.904-1.684-.688-1.07-.688-2.417 0-1.26.468-2.227a4.4 4.4 0 0 1 1.407-1.641q.937-.658 2.285-.996 1.347-.351 3.076-.351zm-16.26-3.428v13.066h-3.545v-13.066h-5.112v-2.783h13.857v2.783zm-16.553 10.547q.864 0 1.553-.337a2.94 2.94 0 0 0 1.128-.967q.44-.615.483-1.421h3.326a4.95 4.95 0 0 1-.909 2.798q-.879 1.26-2.329 2.007-1.45.732-3.208.732-1.816 0-3.164-.615a6.3 6.3 0 0 1-2.241-1.728 7.6 7.6 0 0 1-1.348-2.535 10.5 10.5 0 0 1-.439-3.076v-.512q0-1.641.439-3.077a7.6 7.6 0 0 1 1.348-2.548 6.1 6.1 0 0 1 2.241-1.714q1.348-.63 3.15-.63 1.904 0 3.339.762a5.63 5.63 0 0 1 2.256 2.094q.835 1.333.865 3.106h-3.326a3.5 3.5 0 0 0-.439-1.582 2.9 2.9 0 0 0-1.084-1.143q-.689-.425-1.655-.425-1.07 0-1.773.44a2.95 2.95 0 0 0-1.098 1.172 5.7 5.7 0 0 0-.572 1.655 11 11 0 0 0-.161 1.89v.512q0 .982.161 1.905t.557 1.655q.41.717 1.113 1.157.704.425 1.787.425m-18.574-13.33 3.018 5.259 3.076-5.259h3.882l-4.805 7.778 4.995 8.071h-3.882l-3.222-5.478-3.223 5.478h-3.897l4.981-8.071-4.79-7.778zm-9.932 11.375v-2.982h-1.992q-.981 0-1.728.191-.747.176-1.245.527a2.3 2.3 0 0 0-.747.85 2.5 2.5 0 0 0-.249 1.128q0 .63.293 1.157.293.513.849.806.572.293 1.377.293 1.084 0 1.89-.44.82-.454 1.289-1.099.156-.22.263-.431m0-5.164v-1.099q0-.85-.307-1.465a2.16 2.16 0 0 0-.938-.952q-.615-.337-1.552-.337-.865 0-1.495.293a2.4 2.4 0 0 0-.981.791 1.9 1.9 0 0 0-.352 1.128h-3.515q0-.937.454-1.816.454-.88 1.318-1.568t2.066-1.084q1.2-.395 2.695-.395 1.787 0 3.164.6 1.391.601 2.183 1.817.805 1.201.805 3.017v7.046q0 1.084.147 1.949.161.849.454 1.479v.234h-3.618q-.249-.57-.396-1.45l-.016-.113q-.21.228-.452.45-.675.615-1.626 1.011-.938.395-2.168.395-1.553 0-2.769-.615-1.216-.63-1.904-1.684-.689-1.07-.689-2.417 0-1.26.469-2.227a4.4 4.4 0 0 1 1.406-1.641q.938-.658 2.285-.996 1.348-.351 3.077-.351zm-20.771 2.065v-1.787h2.461q.938 0 1.494-.249.571-.249.806-.688.249-.455.249-1.055a2.1 2.1 0 0 0-.249-.996q-.235-.483-.806-.791t-1.553-.308q-.805 0-1.45.264-.63.264-.996.732a1.7 1.7 0 0 0-.366 1.084h-3.53q0-1.48.835-2.549.85-1.068 2.27-1.64t3.12-.572q1.45 0 2.608.308 1.156.292 1.962.879.82.571 1.246 1.436.44.849.439 1.977 0 .805-.381 1.524-.381.717-1.098 1.274a5 5 0 0 1-.977.567q.73.246 1.269.634.733.527 1.099 1.304.381.762.381 1.758 0 1.113-.483 2.006a4.3 4.3 0 0 1-1.348 1.495q-.864.615-2.066.937-1.2.322-2.651.322a9.2 9.2 0 0 1-3.076-.527q-1.48-.528-2.446-1.626-.952-1.113-.952-2.827h3.53q0 .6.366 1.128.366.526 1.055.864.688.322 1.655.322.996 0 1.626-.307.63-.322.937-.835a2.17 2.17 0 0 0 .308-1.113q0-.792-.308-1.275-.307-.483-.937-.703-.63-.234-1.582-.234h-2.461zm-10.752 3.099v-2.982h-1.992q-.981 0-1.729.191-.747.176-1.245.527a2.3 2.3 0 0 0-.747.85 2.5 2.5 0 0 0-.249 1.128q0 .63.293 1.157.293.513.85.806.572.293 1.377.293 1.083 0 1.889-.44.82-.454 1.289-1.099a3 3 0 0 0 .264-.431m0-5.164v-1.099q0-.85-.308-1.465a2.15 2.15 0 0 0-.937-.952q-.615-.337-1.553-.337-.864 0-1.494.293t-.981.791a1.9 1.9 0 0 0-.352 1.128h-3.516q0-.937.454-1.816.455-.88 1.319-1.568t2.065-1.084q1.202-.395 2.696-.395 1.787 0 3.164.6 1.391.601 2.182 1.817.806 1.201.806 3.017v7.046q0 1.084.146 1.949.162.849.455 1.479v.234h-3.619q-.249-.57-.395-1.45l-.016-.115q-.21.23-.453.452-.673.615-1.626 1.011-.938.395-2.168.395-1.553 0-2.768-.615-1.217-.63-1.905-1.684-.688-1.07-.688-2.417 0-1.26.469-2.227a4.4 4.4 0 0 1 1.406-1.641q.938-.658 2.285-.996 1.347-.351 3.076-.351zm4.092-56.991v12.696h-44.824v-9.18l23.408-30.957h-22.432V34.216h43.36v8.887l-23.507 31.25zM548.34 12v39.808l14.062-17.592h19.727l-18.546 21.743 19.767 31.09h-18.848l-11.548-19.702-4.614 4.614v15.088h-16.455V12zm-45.801 67.334q0-3.516 2.539-5.86 2.54-2.392 6.543-2.392 4.053 0 6.543 2.392 2.54 2.344 2.539 5.86t-2.539 5.908q-2.49 2.343-6.543 2.344-4.004 0-6.543-2.344-2.54-2.392-2.539-5.908m-11.23-45.118v52.833h-16.504V34.216zm-17.481-13.622q0-3.516 2.539-5.762t6.592-2.246 6.592 2.246 2.539 5.762q0 3.515-2.539 5.761t-6.592 2.246-6.592-2.246q-2.54-2.246-2.539-5.761M434.18 50.089v20.848a7.8 7.8 0 0 0 2.295 2.83q2.05 1.563 5.566 1.563 2.344 0 3.906-1.074 1.563-1.123 2.491-3.076.927-2.002 1.318-4.59.39-2.589.39-5.567v-1.025q0-3.077-.439-5.615-.44-2.588-1.416-4.492-.928-1.905-2.49-2.93t-3.858-1.026q-2.636 0-4.443.83-1.758.782-2.832 2.442-.263.414-.488.882m0 32.666v24.606h-16.455V34.216h15.332l.538 4.865a16.6 16.6 0 0 1 4.296-3.79q3.417-2.05 8.154-2.051 5.03 0 8.838 1.904 3.857 1.905 6.445 5.469 2.637 3.516 3.955 8.447 1.319 4.932 1.319 10.938v1.025q0 5.762-1.319 10.694-1.318 4.931-3.906 8.593t-6.445 5.713q-3.809 2.002-8.838 2.002-4.737 0-8.155-2.099a16.6 16.6 0 0 1-3.759-3.171m-40.186-10.55q0-1.368-.928-2.344-.879-1.026-3.125-1.855-2.246-.879-6.298-1.758a45 45 0 0 1-7.276-2.197q-3.369-1.368-5.908-3.321t-4.004-4.638q-1.416-2.687-1.416-6.153 0-3.37 1.416-6.347 1.465-3.028 4.248-5.323 2.832-2.343 6.885-3.662 4.053-1.367 9.228-1.367 7.13 0 12.305 2.197 5.177 2.15 7.959 6.055 2.832 3.857 2.832 8.936h-16.455q0-2.002-.684-3.419-.635-1.415-2.099-2.148-1.466-.781-3.906-.781-1.71 0-3.125.634-1.368.636-2.198 1.758-.83 1.124-.83 2.637 0 1.074.489 1.953.537.83 1.611 1.563 1.074.683 2.734 1.269 1.66.538 4.004.977 5.322.977 9.961 2.783t7.52 5.127q2.93 3.32 2.929 8.936 0 3.515-1.611 6.494-1.61 2.93-4.639 5.176-3.027 2.197-7.275 3.417-4.248 1.221-9.57 1.221-7.569 0-12.793-2.685-5.224-2.735-7.911-6.836-2.636-4.15-2.636-8.399h15.332q.097 2.442 1.172 4.004 1.122 1.563 2.978 2.295 1.855.732 4.297.732 2.245 0 3.711-.634 1.514-.635 2.295-1.709.781-1.123.781-2.588m-53.369-.148v-8.495h-5.176q-2.295 0-3.906.635-1.563.635-2.539 1.758a6.9 6.9 0 0 0-1.367 2.441 10.4 10.4 0 0 0-.391 2.881q0 1.466.684 2.637a5.1 5.1 0 0 0 1.953 1.758q1.22.634 2.734.634 2.734 0 4.639-1.025 1.953-1.074 2.978-2.588.219-.323.391-.636m0-17.284V51.99q0-2.246-.635-3.857-.634-1.611-2.002-2.491-1.367-.927-3.662-.928-1.856 0-3.174.635a4.37 4.37 0 0 0-2.002 1.905q-.683 1.269-.683 3.222h-16.455q0-3.661 1.611-6.787 1.66-3.174 4.688-5.517 3.076-2.344 7.324-3.613 4.296-1.32 9.57-1.319 6.299 0 11.231 2.1 4.98 2.099 7.861 6.298 2.88 4.151 2.881 10.45v21.631q0 5.175.586 7.861.586 2.637 1.66 4.639v.83H342.92q-.963-2.007-1.531-4.739a18 18 0 0 1-1.838 1.955q-1.807 1.66-4.444 2.735-2.636 1.025-6.396 1.025-4.883 0-8.984-2.002-4.053-2.002-6.495-5.566-2.44-3.614-2.441-8.301 0-4.102 1.465-7.324 1.514-3.222 4.541-5.469 3.027-2.246 7.715-3.418t11.035-1.172zM82.47 83.815c-2.639-.415-4.582-.032-5.95 1.125-3.531 3.007-3.471 11.388-3.4 21.108l.017 2.752c.042 9.636.096 17.968 2.346 21.63 2.997 4.884 14.608 1.889 18.215 1.001 1.712-.826 2.953-1.817 3.378-2.85.256-.67.395-1.89.395-3.479 0-10.381-.605-39.064-15.001-41.287M65.435 122.64c-.265-7.667-1.587-17.779-3.643-17.663-2.216.136-3.059 11.672-2.089 19.373.318 2.451.819 4.322 1.473 5.511a50 50 0 0 0 2.99 1.102c.895-.789 1.456-2.984 1.269-8.323m47.903-2.556c.48-2.441-5.312-16.263-8.544-14.702-2.48 1.23-1.518 15.353 1.044 19.855.267.452.814.524 1.43.42a50 50 0 0 0 5.538-3.87c.223-.458.404-1 .532-1.703"/></svg>