<svg xmlns="http://www.w3.org/2000/svg" xml:space="preserve" width="174" height="29" style="shape-rendering:geometricPrecision;text-rendering:geometricPrecision;image-rendering:optimizeQuality;fill-rule:evenodd;clip-rule:evenodd" viewBox="0 0 174 29"><g data-name="Слой 1"><path d="M15.265-.015v14.78h13.97c.14-7.88-6.09-14.49-13.97-14.78zm-5.53.88v19.43h18.29c-2.25 5.12-7.37 8.72-13.3 8.72H.215v-14.52c0-6.23 3.98-11.58 9.52-13.63z" style="fill:#00c5b0"/><path d="M35.795 5.935h14.36v3.149l-5.3.001v13.95h-3.76V9.085h-5.3v-3.15zm97.02.02v15.39h7.99v1.71h-9.94v-17.1h1.95zm10.27 0h1.95v17.1h-1.95v-17.1zm5.63 0h11.21v1.71h-9.26v5.84h6.96v1.71h-6.96v7.84h-1.95v-17.1zm25.08 1.71h-9.26v5.84h6.96v1.71h-6.96v6.13h9.26v1.71h-11.21v-17.1h11.21v1.71zm-54.64-1.72h3.76v17.1h-3.76v-17.1zm-8.82 0c1.38 0 2.54.25 3.46.74.92.5 1.61 1.16 2.06 1.98.46.82.68 1.72.68 2.7 0 .67-.12 1.32-.35 1.97-.24.64-.6 1.23-1.1 1.76-.489.52-1.12.94-1.9 1.25l3.701 6.7h-4.181l-3.25-6.23h-2.81v6.23h-3.76V5.955h7.45v-.01zm2.37 5.42c0-.7-.21-1.25-.62-1.66-.42-.41-1.06-.61-1.94-.61h-3.49v4.57h3.49c.59 0 1.07-.09 1.44-.27.37-.18.66-.44.84-.79.19-.35.28-.76.28-1.23v-.01zm-15.8.1c-.47-.86-1.07-1.49-1.8-1.89-.72-.4-1.53-.6-2.43-.6-.94 0-1.8.24-2.55.72-.76.48-1.35 1.139-1.78 1.969-.43.83-.65 1.77-.65 2.831 0 1.06.21 2.07.64 2.889a4.73 4.73 0 0 0 1.78 1.93c.77.46 1.66.7 2.69.7a4.6 4.6 0 0 0 3.2-1.25c.42-.39.78-.84 1.07-1.34v-.78l-4.4.001v-2.98h7.94v4.45c-.39.9-.96 1.73-1.71 2.5s-1.65 1.4-2.71 1.88-2.26.72-3.61.72c-1.27 0-2.429-.21-3.49-.64a8.073 8.073 0 0 1-2.76-1.81 8.288 8.288 0 0 1-1.82-2.77c-.43-1.07-.65-2.24-.65-3.51 0-1.27.22-2.44.65-3.5a8.165 8.165 0 0 1 1.81-2.77 8.08 8.08 0 0 1 2.75-1.81c1.061-.42 2.22-.63 3.49-.63 1.191 0 2.31.19 3.36.56 1.05.37 1.97.92 2.75 1.62.78.71 1.36 1.57 1.73 2.58l-3.49.93h-.01zm-15.29-5.52v17.1h-3.81l-6.94-10.9v10.9h-3.76V5.955h3.81l6.91 10.95V5.955h3.79v-.01zm-16.78 3.15h-8.65v3.91h6.47v2.98h-6.47v3.91h8.65v3.15h-12.41V5.955h12.41v3.15-.01z" style="fill:#d2d3d5"/></g></svg>