<?xml version="1.0" encoding="UTF-8"?>
<!DOCTYPE svg PUBLIC "-//W3C//DTD SVG 1.1//EN" "http://www.w3.org/Graphics/SVG/1.1/DTD/svg11.dtd">
<!-- Creator: CorelDRAW -->
<svg xmlns="http://www.w3.org/2000/svg" xml:space="preserve" width="625px" height="111px" version="1.1" style="shape-rendering:geometricPrecision; text-rendering:geometricPrecision; image-rendering:optimizeQuality; fill-rule:evenodd; clip-rule:evenodd"
viewBox="0 0 625 111.2"
 xmlns:xlink="http://www.w3.org/1999/xlink"
 xmlns:xodm="http://www.corel.com/coreldraw/odm/2003">
 <defs>
  <style type="text/css">
   <![CDATA[
    .fil0 {fill:#00BC6C}
    .fil2 {fill:#CCCCCC}
    .fil1 {fill:white}
   ]]>
  </style>
 </defs>
 <g id="Layer_x0020_1">
  <metadata id="CorelCorpID_0Corel-Layer"/>
  <path class="fil0" d="M14.19 13.57c17.93,-17.93 47.25,-17.93 65.18,0 6.97,6.97 11.22,15.63 12.79,24.69l-18.91 0c-1.31,-4.47 -3.75,-8.44 -6.94,-11.62 -5.03,-5 -11.9,-8.1 -19.5,-8.1 -7.59,0 -14.47,3.1 -19.5,8.13 -3.18,3.19 -5.62,7.15 -6.93,11.62l-18.91 0c1.56,-9.06 5.81,-17.75 12.78,-24.68l-0.06 -0.04zm6.12 40.47c1.31,4.44 3.75,8.44 6.94,11.63 5,5 11.91,8.09 19.53,8.09 7.63,0 14.53,-3.09 19.53,-8.09 3.19,-3.19 5.63,-7.19 6.94,-11.63l18.91 0c-1.57,9.07 -5.82,17.75 -12.79,24.69l-32.59 32.59 -32.59 -32.59c-6.97,-6.97 -11.22,-15.62 -12.78,-24.69l18.9 0zm26.47 -22.65c-8.15,0 -14.78,6.62 -14.78,14.78 0,8.15 6.63,14.78 14.78,14.78 8.16,0 14.78,-6.63 14.78,-14.78 0,-8.16 -6.62,-14.78 -14.78,-14.78z"/>
  <path class="fil1" d="M112.62 28.98l44.88 0 0 9.84 -16.56 0 0 43.6 -11.75 0 0 -43.6 -16.57 0 0 -9.84zm260.5 0.03l11.76 0 0 53.44 -11.76 0 0 -53.44zm-27.56 0c4.31,0 7.94,0.78 10.82,2.35 2.87,1.56 5.03,3.62 6.43,6.18 1.44,2.57 2.13,5.38 2.13,8.44 0,2.09 -0.38,4.13 -1.1,6.16 -0.75,2 -1.87,3.84 -3.43,5.5 -1.54,1.62 -3.5,2.93 -5.94,3.9l11.56 20.94 -13.06 0 -10.16 -19.47 -8.78 0 0 19.47 -11.75 0 0 -53.44 23.28 0 0 -0.03zm7.41 16.94c0,-2.19 -0.66,-3.91 -1.94,-5.19 -1.31,-1.28 -3.31,-1.9 -6.06,-1.9l-10.91 0 0 14.28 10.91 0c1.84,0 3.34,-0.28 4.5,-0.85 1.15,-0.56 2.06,-1.37 2.62,-2.47 0.6,-1.09 0.88,-2.37 0.88,-3.84l0 -0.03zm-49.38 0.31c-1.46,-2.69 -3.34,-4.65 -5.62,-5.9 -2.25,-1.25 -4.78,-1.88 -7.6,-1.88 -2.93,0 -5.62,0.75 -7.96,2.25 -2.38,1.5 -4.22,3.56 -5.57,6.16 -1.34,2.59 -2.03,5.53 -2.03,8.84 0,3.31 0.66,6.47 2,9.03 1.32,2.56 3.19,4.6 5.56,6.03 2.41,1.44 5.19,2.19 8.41,2.19 2,0 3.81,-0.34 5.5,-1.03 1.69,-0.69 3.19,-1.63 4.5,-2.88 1.31,-1.21 2.44,-2.62 3.34,-4.18l0 -2.44 -13.75 0 0 -9.31 24.82 0 0 13.9c-1.22,2.82 -3,5.41 -5.35,7.82 -2.34,2.4 -5.15,4.37 -8.46,5.87 -3.32,1.5 -7.07,2.25 -11.29,2.25 -3.97,0 -7.59,-0.66 -10.9,-2 -3.31,-1.31 -6.19,-3.22 -8.63,-5.66 -2.44,-2.43 -4.34,-5.34 -5.68,-8.65 -1.35,-3.35 -2.04,-6.97 -2.04,-10.97 0,-4 0.69,-7.63 2.04,-10.94 1.34,-3.34 3.21,-6.22 5.65,-8.65 2.41,-2.44 5.28,-4.32 8.59,-5.66 3.32,-1.31 6.94,-1.97 10.91,-1.97 3.72,0 7.22,0.59 10.5,1.75 3.28,1.16 6.16,2.88 8.59,5.06 2.44,2.22 4.26,4.91 5.41,8.07l-10.9 2.9 -0.04 0zm-47.78 -17.25l0 53.44 -11.9 0 -21.69 -34.06 0 34.06 -11.75 0 0 -53.44 11.9 0 21.6 34.22 0 -34.22 11.84 0zm-52.44 9.85l-27.03 0 0 12.21 20.22 0 0 9.32 -20.22 0 0 12.22 27.03 0 0 9.84 -38.78 0 0 -53.44 38.78 0 0 9.85z"/>
  <path class="fil2" d="M451.53 45.04c-1.94,-3.81 -4.5,-6.62 -7.72,-8.43 -3.22,-1.82 -6.78,-2.72 -10.69,-2.72 -3.9,0 -7.34,0.87 -10.46,2.65 -3.1,1.78 -5.53,4.32 -7.35,7.57 -1.78,3.25 -2.68,7.12 -2.68,11.59 0,4.47 0.9,8.28 2.68,11.53 1.78,3.25 4.22,5.78 7.35,7.56 3.09,1.78 6.59,2.69 10.46,2.69 2.91,0 5.6,-0.5 8.1,-1.5 2.5,-1 4.65,-2.41 6.5,-4.28 1.84,-1.84 3.22,-4.09 4.19,-6.69l0 -6.19 -18.32 0 0 -4.96 24.5 0 0 11.43c-1.15,3.41 -2.93,6.44 -5.34,9.1 -2.41,2.65 -5.28,4.72 -8.62,6.25 -3.35,1.53 -7.04,2.28 -11.01,2.28 -3.78,0 -7.28,-0.66 -10.5,-2 -3.21,-1.31 -6.06,-3.19 -8.46,-5.63 -2.41,-2.4 -4.32,-5.28 -5.66,-8.62 -1.34,-3.35 -2.03,-7 -2.03,-11.03 0,-4.03 0.69,-7.69 2.03,-11.03 1.34,-3.35 3.22,-6.22 5.66,-8.63 2.4,-2.41 5.25,-4.28 8.46,-5.62 3.22,-1.32 6.72,-2 10.5,-2 3.51,0 6.82,0.56 9.88,1.71 3.09,1.16 5.81,2.82 8.22,4.97 2.41,2.16 4.28,4.78 5.66,7.91l-5.35 2 0 0.09zm15.16 -16.03l6.09 0 0 33.75c0,3.5 0.63,6.38 1.91,8.56 1.28,2.19 3,3.79 5.15,4.82 2.16,1.03 4.63,1.53 7.38,1.53 2.75,0 5.12,-0.5 7.25,-1.53 2.12,-1.03 3.84,-2.63 5.12,-4.82 1.29,-2.18 1.91,-5.03 1.91,-8.56l0 -33.75 6.09 0 0 33.66c0,3.5 -0.56,6.53 -1.65,9.09 -1.1,2.53 -2.6,4.66 -4.53,6.31 -1.94,1.66 -4.13,2.88 -6.57,3.69 -2.43,0.81 -5,1.22 -7.71,1.22 -3.66,0 -7.07,-0.72 -10.16,-2.19 -3.09,-1.43 -5.59,-3.68 -7.47,-6.68 -1.88,-3 -2.81,-6.82 -2.81,-11.44l0 -33.66zm52.03 0l6.09 0 0 53.44 -6.09 0 0 -53.44zm35.22 0c5.9,0 10.97,1.1 15.15,3.25 4.19,2.16 7.44,5.25 9.69,9.28 2.25,4.03 3.41,8.82 3.41,14.35 0,5.53 -1.13,10.22 -3.41,14.18 -2.25,3.97 -5.5,7.04 -9.69,9.16 -4.18,2.13 -9.25,3.22 -15.15,3.22l-17.63 0 0 -53.44 17.63 0zm0 48.1c7.28,0 12.78,-1.85 16.5,-5.57 3.72,-3.72 5.56,-8.93 5.56,-15.65 0,-6.72 -1.84,-12.07 -5.56,-15.85 -3.72,-3.78 -9.22,-5.68 -16.5,-5.68l-11.53 0 0 42.75 11.53 0zm71.56 -42.75l-28.94 0 0 18.25 21.75 0 0 5.34 -21.75 0 0 19.16 28.94 0 0 5.34 -35.03 0 0 -53.44 35.03 0 0 5.35z"/>
 </g>
</svg>
