<?xml version="1.0" encoding="UTF-8"?>
<!DOCTYPE svg PUBLIC "-//W3C//DTD SVG 1.1//EN" "http://www.w3.org/Graphics/SVG/1.1/DTD/svg11.dtd">
<!-- Creator: CorelDRAW -->
<svg xmlns="http://www.w3.org/2000/svg" xml:space="preserve" width="202px" height="38px" version="1.1" style="shape-rendering:geometricPrecision; text-rendering:geometricPrecision; image-rendering:optimizeQuality; fill-rule:evenodd; clip-rule:evenodd"
viewBox="0 0 202 38"
 xmlns:xlink="http://www.w3.org/1999/xlink"
 xmlns:xodm="http://www.corel.com/coreldraw/odm/2003">
 <defs>
  <style type="text/css">
   <![CDATA[
    .fil0 {fill:#00BC6C}
    .fil2 {fill:#D4D4D4}
    .fil1 {fill:white}
   ]]>
  </style>
 </defs>
 <g id="Layer_x0020_1">
  <metadata id="CorelCorpID_0Corel-Layer"/>
  <path class="fil0" d="M4.14 5.36c5.8,-5.81 15.29,-5.81 21.1,0 2.25,2.25 3.63,5.06 4.13,7.99l-6.12 0c-0.42,-1.45 -1.21,-2.73 -2.24,-3.76 -1.63,-1.62 -3.86,-2.62 -6.31,-2.62 -2.46,0 -4.69,1 -6.32,2.63 -1.03,1.03 -1.82,2.31 -2.24,3.76l-6.12 0c0.51,-2.93 1.88,-5.75 4.14,-7.99l-0.02 -0.01zm1.98 13.1c0.42,1.43 1.21,2.73 2.24,3.76 1.62,1.62 3.86,2.62 6.33,2.62 2.46,0 4.7,-1 6.32,-2.62 1.03,-1.03 1.82,-2.33 2.24,-3.76l6.12 0c-0.5,2.93 -1.88,5.74 -4.13,7.99l-10.55 10.55 -10.55 -10.55c-2.26,-2.26 -3.63,-5.06 -4.14,-7.99l6.12 0zm8.57 -7.34c-2.64,0 -4.79,2.15 -4.79,4.79 0,2.64 2.15,4.78 4.79,4.78 2.64,0 4.78,-2.14 4.78,-4.78 0,-2.64 -2.14,-4.79 -4.78,-4.79z"/>
  <path class="fil1" d="M36 10.34l14.52 0 0 3.19 -5.36 0 0 14.11 -3.8 0 0 -14.11 -5.36 0 0 -3.19zm84.31 0.01l3.81 0 0 17.3 -3.81 0 0 -17.3zm-8.92 0c1.4,0 2.57,0.26 3.5,0.76 0.93,0.51 1.63,1.18 2.09,2.01 0.46,0.83 0.68,1.73 0.68,2.73 0,0.67 -0.12,1.33 -0.35,1.99 -0.24,0.65 -0.61,1.24 -1.11,1.78 -0.5,0.52 -1.14,0.95 -1.92,1.26l3.74 6.78 -4.23 0 -3.29 -6.3 -2.84 0 0 6.3 -3.8 0 0 -17.3 7.53 0 0 -0.01zm2.4 5.49c0,-0.71 -0.21,-1.27 -0.63,-1.68 -0.42,-0.42 -1.07,-0.62 -1.96,-0.62l-3.53 0 0 4.62 3.53 0c0.6,0 1.08,-0.09 1.46,-0.27 0.37,-0.18 0.66,-0.45 0.85,-0.8 0.19,-0.35 0.28,-0.77 0.28,-1.24l0 -0.01zm-15.98 0.1c-0.48,-0.87 -1.08,-1.51 -1.82,-1.91 -0.73,-0.41 -1.55,-0.61 -2.46,-0.61 -0.95,0 -1.82,0.24 -2.58,0.73 -0.77,0.48 -1.36,1.15 -1.8,1.99 -0.43,0.84 -0.66,1.79 -0.66,2.86 0,1.07 0.22,2.1 0.65,2.92 0.43,0.83 1.03,1.49 1.8,1.96 0.78,0.46 1.68,0.7 2.72,0.7 0.65,0 1.24,-0.11 1.78,-0.33 0.55,-0.22 1.03,-0.53 1.46,-0.93 0.42,-0.39 0.79,-0.85 1.08,-1.35l0 -0.79 -4.45 0 0 -3.02 8.03 0 0 4.5c-0.39,0.91 -0.97,1.75 -1.73,2.53 -0.76,0.78 -1.67,1.42 -2.74,1.9 -1.07,0.49 -2.28,0.73 -3.65,0.73 -1.29,0 -2.46,-0.21 -3.53,-0.65 -1.07,-0.42 -2,-1.04 -2.79,-1.83 -0.79,-0.78 -1.41,-1.73 -1.84,-2.8 -0.44,-1.08 -0.66,-2.25 -0.66,-3.55 0,-1.29 0.22,-2.47 0.66,-3.54 0.43,-1.08 1.04,-2.01 1.83,-2.8 0.78,-0.79 1.71,-1.4 2.78,-1.83 1.07,-0.43 2.24,-0.64 3.53,-0.64 1.2,0 2.34,0.19 3.4,0.57 1.06,0.37 1.99,0.93 2.78,1.64 0.79,0.72 1.38,1.58 1.75,2.61l-3.53 0.94 -0.01 0zm-15.47 -5.59l0 17.3 -3.85 0 -7.02 -11.02 0 11.02 -3.8 0 0 -17.3 3.85 0 6.99 11.08 0 -11.08 3.83 0zm-16.97 3.19l-8.75 0 0 3.95 6.55 0 0 3.02 -6.55 0 0 3.95 8.75 0 0 3.19 -12.55 0 0 -17.3 12.55 0 0 3.19z"/>
  <path class="fil2" d="M145.69 15.54c-0.63,-1.23 -1.45,-2.14 -2.5,-2.73 -1.04,-0.58 -2.19,-0.88 -3.46,-0.88 -1.26,0 -2.37,0.29 -3.38,0.86 -1.01,0.58 -1.79,1.4 -2.38,2.45 -0.58,1.05 -0.87,2.31 -0.87,3.75 0,1.45 0.29,2.68 0.87,3.73 0.58,1.06 1.36,1.88 2.38,2.45 1,0.58 2.13,0.87 3.38,0.87 0.94,0 1.82,-0.16 2.62,-0.48 0.81,-0.33 1.51,-0.78 2.11,-1.39 0.59,-0.6 1.04,-1.32 1.35,-2.16l0 -2.01 -5.92 0 0 -1.6 7.93 0 0 3.7c-0.38,1.1 -0.96,2.08 -1.73,2.94 -0.78,0.86 -1.71,1.53 -2.79,2.02 -1.09,0.5 -2.28,0.74 -3.57,0.74 -1.22,0 -2.35,-0.21 -3.39,-0.65 -1.05,-0.42 -1.97,-1.03 -2.74,-1.82 -0.78,-0.77 -1.4,-1.71 -1.84,-2.79 -0.43,-1.08 -0.65,-2.26 -0.65,-3.57 0,-1.3 0.22,-2.49 0.65,-3.57 0.44,-1.08 1.05,-2.01 1.84,-2.79 0.77,-0.78 1.69,-1.39 2.74,-1.82 1.04,-0.43 2.17,-0.65 3.39,-0.65 1.14,0 2.21,0.18 3.2,0.56 1,0.37 1.88,0.91 2.66,1.61 0.78,0.69 1.39,1.54 1.83,2.56l-1.73 0.64 0 0.03zm4.91 -5.19l1.97 0 0 10.93c0,1.13 0.2,2.06 0.62,2.77 0.41,0.71 0.97,1.22 1.67,1.56 0.69,0.33 1.49,0.49 2.38,0.49 0.89,0 1.66,-0.16 2.35,-0.49 0.69,-0.34 1.24,-0.85 1.66,-1.56 0.41,-0.71 0.62,-1.63 0.62,-2.77l0 -10.93 1.97 0 0 10.9c0,1.13 -0.18,2.11 -0.54,2.94 -0.35,0.82 -0.84,1.51 -1.46,2.04 -0.63,0.54 -1.34,0.93 -2.13,1.2 -0.79,0.26 -1.62,0.39 -2.5,0.39 -1.18,0 -2.28,-0.23 -3.28,-0.71 -1.01,-0.46 -1.82,-1.19 -2.42,-2.16 -0.61,-0.97 -0.91,-2.21 -0.91,-3.7l0 -10.9zm16.84 0l1.97 0 0 17.3 -1.97 0 0 -17.3zm11.4 0c1.91,0 3.55,0.36 4.9,1.06 1.36,0.69 2.41,1.7 3.14,3 0.73,1.3 1.1,2.85 1.1,4.64 0,1.79 -0.36,3.31 -1.1,4.59 -0.73,1.29 -1.78,2.28 -3.14,2.97 -1.35,0.69 -2.99,1.04 -4.9,1.04l-5.71 0 0 -17.3 5.71 0zm0 15.57c2.35,0 4.13,-0.6 5.34,-1.8 1.2,-1.2 1.8,-2.89 1.8,-5.07 0,-2.17 -0.6,-3.9 -1.8,-5.13 -1.21,-1.22 -2.99,-1.84 -5.34,-1.84l-3.73 0 0 13.84 3.73 0zm23.16 -13.84l-9.37 0 0 5.91 7.04 0 0 1.73 -7.04 0 0 6.2 9.37 0 0 1.73 -11.34 0 0 -17.3 11.34 0 0 1.73z"/>
 </g>
</svg>
