<?xml version="1.0" encoding="UTF-8"?>
<!DOCTYPE svg PUBLIC "-//W3C//DTD SVG 1.1//EN" "http://www.w3.org/Graphics/SVG/1.1/DTD/svg11.dtd">
<!-- Creator: CorelDRAW -->
<svg xmlns="http://www.w3.org/2000/svg" xml:space="preserve" width="209px" height="38px" version="1.1" style="shape-rendering:geometricPrecision; text-rendering:geometricPrecision; image-rendering:optimizeQuality; fill-rule:evenodd; clip-rule:evenodd"
viewBox="0 0 209 37.999"
 xmlns:xlink="http://www.w3.org/1999/xlink"
 xmlns:xodm="http://www.corel.com/coreldraw/odm/2003">
 <defs>
  <style type="text/css">
   <![CDATA[
    .fil1 {fill:#D2D3D5}
    .fil0 {fill:#F01836}
   ]]>
  </style>
 </defs>
 <g id="Layer_x0020_1">
  <metadata id="CorelCorpID_0Corel-Layer"/>
  <path class="fil0" d="M17.341 35.209c-0.83,0 -1.64,-0.06 -2.44,-0.18 1.01,-0.64 1.95,-1.35 2.82,-2.13 3.32,-2.98 5.57,-6.94 6.18,-11.36 3.02,1.38 5.48,3.46 7.23,5.91 -2.83,4.65 -7.96,7.76 -13.8,7.76l0.01 0zm6.58 -18.51l0.12 0.04c3.59,1.31 6.66,3.41 9.03,5.97 0.27,-1.17 0.42,-2.4 0.42,-3.66 0,-8.92 -7.23,-16.15 -16.15,-16.15 -0.83,0 -1.64,0.06 -2.44,0.18 1.01,0.64 1.95,1.35 2.82,2.13 3.35,3.01 5.61,7 6.2,11.47l0 0.02zm-14.88 16.22c2.15,-0.77 4.07,-1.92 5.68,-3.36 2.74,-2.46 4.52,-5.76 4.82,-9.42 -3.46,-0.66 -6.89,-0.31 -9.87,0.88 -2.76,1.11 -5.12,2.94 -6.73,5.35 1.38,2.71 3.51,4.99 6.11,6.55l-0.01 0zm-7.7 -11.67c-0.1,-0.72 -0.15,-1.45 -0.15,-2.2 0,-5.89 3.15,-11.03 7.85,-13.86 2.15,0.77 4.07,1.92 5.68,3.36 2.11,1.89 3.65,4.29 4.38,6.96 -3.89,-0.52 -7.72,-0.02 -11.1,1.33 -2.52,1.01 -4.8,2.5 -6.66,4.4l0 0.01z"/>
  <path class="fil1" d="M40.041 10.499l14.36 0 0 3.15 -5.3 0 0 13.95 -3.76 0 0 -13.95 -5.3 0 0 -3.15zm150.362 9.71c0.73,-0.28 1.34,-0.65 1.81,-1.12 0.47,-0.47 0.82,-1.01 1.04,-1.61 0.22,-0.6 0.33,-1.24 0.33,-1.91 0,-0.94 -0.21,-1.8 -0.64,-2.55 -0.42,-0.76 -1.06,-1.36 -1.92,-1.82 -0.86,-0.46 -1.95,-0.68 -3.29,-0.68l-6.01 0 0 17.1 1.95 0 0 -6.99 3.81 0 4.18 6.99 2.22 0 -4.4 -7.17c0.32,-0.06 0.63,-0.13 0.91,-0.23l0.01 -0.01zm-6.72 -7.99l4.06 0c1.37,0 2.35,0.3 2.96,0.9 0.6,0.6 0.9,1.42 0.9,2.44 0,0.67 -0.13,1.25 -0.4,1.76 -0.27,0.5 -0.68,0.9 -1.25,1.17 -0.56,0.28 -1.29,0.42 -2.19,0.42l-4.08 0 0 -6.69zm11.809 -1.71l0 1.709 5.44 0 0 15.39 1.96 0 0 -15.39 5.42 0 0 -1.709 -12.82 0zm-18.83 2.26c-0.77,-0.77 -1.67,-1.37 -2.7,-1.8 -1.03,-0.42 -2.15,-0.64 -3.33,-0.64 -1.18,0 -2.33,0.21 -3.36,0.64 -1.03,0.42 -1.94,1.02 -2.71,1.8 -0.77,0.77 -1.38,1.69 -1.81,2.76 -0.43,1.07 -0.65,2.24 -0.65,3.53 0,1.29 0.22,2.46 0.65,3.53 0.43,1.07 1.03,1.99 1.81,2.76 0.77,0.77 1.68,1.37 2.71,1.8 1.03,0.42 2.15,0.64 3.36,0.64 1.21,0 2.3,-0.21 3.33,-0.64 1.03,-0.42 1.93,-1.02 2.7,-1.8 0.77,-0.77 1.36,-1.69 1.8,-2.76 0.43,-1.07 0.65,-2.24 0.65,-3.53 0,-1.29 -0.22,-2.46 -0.65,-3.53 -0.43,-1.07 -1.03,-1.99 -1.8,-2.76zm-0.42 10.02c-0.57,1.05 -1.34,1.86 -2.32,2.43 -0.98,0.57 -2.08,0.85 -3.3,0.85 -1.22,0 -2.35,-0.28 -3.33,-0.85 -0.99,-0.57 -1.76,-1.38 -2.33,-2.43 -0.57,-1.05 -0.86,-2.29 -0.86,-3.73 0,-1.44 0.29,-2.7 0.86,-3.75 0.57,-1.05 1.35,-1.86 2.33,-2.42 0.99,-0.56 2.1,-0.84 3.33,-0.84 1.23,0 2.32,0.28 3.3,0.84 0.98,0.56 1.75,1.37 2.32,2.42 0.57,1.05 0.85,2.3 0.85,3.75 0,1.45 -0.28,2.68 -0.85,3.73zm-32.06 -3.191c-0.5,-0.36 -1.06,-0.66 -1.69,-0.9 -0.63,-0.24 -1.27,-0.47 -1.94,-0.68 -0.73,-0.21 -1.4,-0.44 -2.02,-0.67 -0.62,-0.23 -1.1,-0.55 -1.47,-0.93 -0.37,-0.38 -0.55,-0.9 -0.55,-1.55 0,-0.599 0.15,-1.12 0.46,-1.54 0.31,-0.42 0.73,-0.75 1.26,-0.98 0.53,-0.23 1.12,-0.34 1.77,-0.34 0.65,0 1.26,0.11 1.78,0.34 0.52,0.23 0.94,0.52 1.27,0.87 0.33,0.35 0.55,0.71 0.66,1.091l1.73 -0.661c-0.23,-0.649 -0.58,-1.23 -1.06,-1.72 -0.48,-0.5 -1.08,-0.88 -1.8,-1.16 -0.72,-0.28 -1.56,-0.42 -2.52,-0.42 -1.11,0 -2.08,0.2 -2.91,0.59 -0.83,0.39 -1.47,0.94 -1.93,1.65 -0.46,0.71 -0.68,1.54 -0.68,2.5 0,0.8 0.15,1.471 0.46,2 0.31,0.541 0.72,0.97 1.25,1.31 0.52,0.33 1.1,0.61 1.75,0.83 0.64,0.22 1.29,0.42 1.94,0.6 0.73,0.21 1.39,0.45 1.98,0.72 0.59,0.27 1.05,0.611 1.39,1.01 0.34,0.411 0.51,0.931 0.51,1.56 0,0.8 -0.3,1.49 -0.9,2.08 -0.6,0.591 -1.53,0.88 -2.79,0.88 -0.88,0 -1.6,-0.139 -2.16,-0.43 -0.56,-0.279 -1,-0.64 -1.32,-1.07 -0.32,-0.43 -0.53,-0.87 -0.62,-1.31l-1.78 0.711c0.2,0.729 0.55,1.379 1.08,1.949 0.52,0.57 1.19,1.02 2,1.36 0.81,0.33 1.76,0.5 2.83,0.5 1.29,0 2.34,-0.22 3.16,-0.669 0.82,-0.451 1.44,-1.041 1.84,-1.781 0.41,-0.74 0.61,-1.54 0.61,-2.41 0,-0.78 -0.15,-1.44 -0.44,-1.98 -0.29,-0.54 -0.69,-0.99 -1.18,-1.34l0.03 -0.01zm13.79 -8.409c-0.86,-0.46 -1.95,-0.68 -3.29,-0.68l-6.03 0 0 17.099 1.95 0 0 -6.989 4.08 0c1.03,0 1.91,-0.131 2.64,-0.4 0.73,-0.271 1.34,-0.641 1.81,-1.11 0.47,-0.471 0.82,-1.01 1.04,-1.62 0.22,-0.61 0.33,-1.251 0.33,-1.92 0,-0.93 -0.21,-1.78 -0.62,-2.541 -0.42,-0.769 -1.05,-1.379 -1.91,-1.83l0 -0.009zm0.2 6.13c-0.27,0.5 -0.69,0.899 -1.26,1.169 -0.57,0.28 -1.31,0.421 -2.22,0.421l-4.08 0 0 -6.691 4.08 0c1.37,0 2.36,0.29 2.97,0.88 0.61,0.59 0.92,1.411 0.92,2.471 0,0.669 -0.13,1.25 -0.4,1.759l-0.01 -0.009zm-34.771 -6.81l3.76 0 0 17.1 -3.76 0 0 -17.1zm-8.82 0c1.38,0 2.54,0.249 3.46,0.74 0.92,0.5 1.61,1.16 2.06,1.98 0.46,0.82 0.68,1.719 0.68,2.699 0,0.671 -0.12,1.321 -0.35,1.971 -0.24,0.64 -0.6,1.23 -1.1,1.759 -0.49,0.521 -1.12,0.94 -1.9,1.25l3.7 6.701 -4.18 0 -3.25 -6.23 -2.81 0 0 6.23 -3.76 0 0 -17.1 7.45 0zm2.37 5.419c0,-0.699 -0.21,-1.249 -0.62,-1.659 -0.42,-0.41 -1.06,-0.611 -1.94,-0.611l-3.49 0 0 4.571 3.49 0c0.59,0 1.07,-0.09 1.44,-0.271 0.37,-0.179 0.66,-0.439 0.84,-0.789 0.19,-0.35 0.28,-0.761 0.28,-1.23l0 -0.011zm-15.8 0.101c-0.47,-0.86 -1.07,-1.49 -1.8,-1.891 -0.72,-0.399 -1.53,-0.599 -2.43,-0.599 -0.94,0 -1.8,0.24 -2.55,0.72 -0.76,0.48 -1.35,1.14 -1.78,1.97 -0.43,0.83 -0.65,1.78 -0.65,2.83 0,1.05 0.21,2.07 0.64,2.89 0.42,0.82 1.02,1.469 1.78,1.929 0.77,0.461 1.66,0.701 2.69,0.701 0.64,0 1.22,-0.11 1.76,-0.33 0.54,-0.22 1.02,-0.531 1.44,-0.92 0.42,-0.39 0.78,-0.84 1.07,-1.34l0 -0.781 -4.4 0 0 -2.979 7.94 0 0 4.45c-0.39,0.9 -0.96,1.73 -1.71,2.5 -0.75,0.77 -1.65,1.4 -2.71,1.88 -1.06,0.48 -2.26,0.72 -3.61,0.72 -1.27,0 -2.43,-0.21 -3.49,-0.64 -1.06,-0.431 -1.98,-1.03 -2.76,-1.81 -0.78,-0.781 -1.39,-1.71 -1.82,-2.77 -0.43,-1.07 -0.65,-2.24 -0.65,-3.511 0,-1.269 0.22,-2.439 0.65,-3.499 0.43,-1.07 1.03,-1.99 1.81,-2.77 0.77,-0.78 1.69,-1.381 2.75,-1.81 1.06,-0.42 2.22,-0.63 3.49,-0.63 1.19,0 2.31,0.19 3.36,0.56 1.05,0.37 1.97,0.92 2.75,1.62 0.78,0.71 1.36,1.57 1.73,2.579l-3.49 0.931 -0.01 0zm-15.29 -5.52l0 17.1 -3.81 0 -6.94 -10.9 0 10.9 -3.76 0 0 -17.1 3.81 0 6.91 10.95 0 -10.95 3.79 0zm-16.78 3.149l-8.65 0 0 3.91 6.47 0 0 2.981 -6.47 0 0 3.91 8.65 0 0 3.15 -12.41 0 0 -17.1 12.41 0 0 3.149z"/>
 </g>
</svg>
