<?xml version="1.0" encoding="UTF-8"?>
<!DOCTYPE svg PUBLIC "-//W3C//DTD SVG 1.1//EN" "http://www.w3.org/Graphics/SVG/1.1/DTD/svg11.dtd">
<!-- Creator: CorelDRAW -->
<svg xmlns="http://www.w3.org/2000/svg" xml:space="preserve" width="200px" height="36px" version="1.1" style="shape-rendering:geometricPrecision; text-rendering:geometricPrecision; image-rendering:optimizeQuality; fill-rule:evenodd; clip-rule:evenodd"
viewBox="0 0 200 36"
 xmlns:xlink="http://www.w3.org/1999/xlink"
 xmlns:xodm="http://www.corel.com/coreldraw/odm/2003">
 <defs>
  <style type="text/css">
   <![CDATA[
    .fil7 {fill:none}
    .fil1 {fill:#027D02}
    .fil6 {fill:#03C802}
    .fil2 {fill:#04C802}
    .fil3 {fill:#04D302}
    .fil8 {fill:#E6E6E6}
    .fil4 {fill:#F2F2F2}
    .fil5 {fill:white}
    .fil0 {fill:#BEBEBE;fill-rule:nonzero}
   ]]>
  </style>
   <clipPath id="id0">
    <path d="M3.6 0l28.8 0c1.988,0 3.6,1.612 3.6,3.6l0 28.8c0,1.987 -1.612,3.599 -3.6,3.599l-28.8 0.001c-1.988,-0.001 -3.6,-1.613 -3.6,-3.601l0 -28.799c0,-1.988 1.612,-3.6 3.6,-3.6z"/>
   </clipPath>
 </defs>
 <g id="Layer_x0020_1">
  <metadata id="CorelCorpID_0Corel-Layer"/>
  <g>
  </g>
  <g style="clip-path:url(#id0)">
   <g id="_2850000252576">
    <path class="fil0" d="M3.6 0l28.8 0c1.988,0 3.6,1.612 3.6,3.6l0 28.8c0,1.987 -1.612,3.599 -3.6,3.599l-28.8 0.001c-1.988,-0.001 -3.6,-1.613 -3.6,-3.601l0 -28.799c0,-1.988 1.612,-3.6 3.6,-3.6z"/>
    <path class="fil1" d="M0 11.794l11.833 0 6.097 5.723 3.048 2.862 3.049 2.862 0 -11.447 11.973 0 0 -11.794 -35.999 0 -0.001 11.794zm11.251 24.206l13.499 0 -13.499 -10.251 0 10.251z"/>
    <path class="fil2" d="M7.748 -1.13c0.414,1.049 -0.04,2.832 -1.625,3.618 -0.202,-1.272 0.091,-2.953 1.625,-3.618z"/>
    <path class="fil2" d="M4.159 -1.13c-0.413,1.049 0.041,2.832 1.626,3.618 0.201,-1.273 -0.092,-2.953 -1.626,-3.618z"/>
    <path class="fil3" d="M7.707 -0.63c0.287,0.724 -0.03,1.958 -1.125,2.502 -0.141,-0.879 0.061,-2.045 1.125,-2.502z"/>
    <path class="fil3" d="M4.553 -0.689c-0.288,0.724 0.03,1.958 1.124,2.502 0.141,-0.879 -0.06,-2.045 -1.124,-2.502z"/>
    <path class="fil2" d="M15.778 -1.13c0.414,1.049 -0.04,2.832 -1.624,3.618 -0.202,-1.272 0.09,-2.953 1.624,-3.618z"/>
    <path class="fil2" d="M12.19 -1.13c-0.414,1.049 0.04,2.832 1.625,3.618 0.202,-1.273 -0.091,-2.953 -1.625,-3.618z"/>
    <path class="fil3" d="M15.737 -0.63c0.287,0.724 -0.03,1.958 -1.125,2.502 -0.141,-0.879 0.061,-2.045 1.125,-2.502z"/>
    <path class="fil3" d="M12.584 -0.689c-0.288,0.724 0.03,1.958 1.124,2.502 0.141,-0.879 -0.06,-2.045 -1.124,-2.502z"/>
    <path class="fil2" d="M23.809 -1.13c0.414,1.049 -0.04,2.832 -1.625,3.618 -0.202,-1.272 0.091,-2.953 1.625,-3.618z"/>
    <path class="fil2" d="M20.22 -1.13c-0.413,1.049 0.041,2.832 1.626,3.618 0.202,-1.273 -0.091,-2.953 -1.626,-3.618z"/>
    <path class="fil3" d="M23.767 -0.63c0.288,0.724 -0.03,1.958 -1.124,2.502 -0.141,-0.879 0.06,-2.045 1.124,-2.502z"/>
    <path class="fil3" d="M20.614 -0.689c-0.288,0.724 0.03,1.958 1.124,2.502 0.141,-0.879 -0.06,-2.045 -1.124,-2.502z"/>
    <path class="fil2" d="M31.84 -1.13c0.413,1.049 -0.041,2.832 -1.626,3.618 -0.201,-1.272 0.091,-2.953 1.626,-3.618z"/>
    <path class="fil2" d="M28.251 -1.13c-0.414,1.049 0.041,2.832 1.625,3.618 0.202,-1.273 -0.091,-2.953 -1.625,-3.618z"/>
    <path class="fil3" d="M31.798 -0.63c0.288,0.724 -0.03,1.958 -1.124,2.502 -0.141,-0.879 0.06,-2.045 1.124,-2.502z"/>
    <path class="fil3" d="M28.644 -0.689c-0.287,0.724 0.031,1.958 1.125,2.502 0.141,-0.879 -0.061,-2.045 -1.125,-2.502z"/>
    <path class="fil2" d="M7.748 1.703c0.414,1.049 -0.04,2.832 -1.625,3.619 -0.202,-1.273 0.091,-2.954 1.625,-3.619z"/>
    <path class="fil2" d="M4.159 1.703c-0.413,1.049 0.041,2.832 1.626,3.619 0.201,-1.273 -0.092,-2.954 -1.626,-3.619z"/>
    <path class="fil3" d="M7.707 2.203c0.287,0.724 -0.03,1.958 -1.125,2.502 -0.141,-0.879 0.061,-2.045 1.125,-2.502z"/>
    <path class="fil3" d="M4.553 2.145c-0.288,0.724 0.03,1.957 1.124,2.502 0.141,-0.88 -0.06,-2.046 -1.124,-2.502z"/>
    <path class="fil2" d="M15.778 1.703c0.414,1.049 -0.04,2.832 -1.624,3.619 -0.202,-1.273 0.09,-2.954 1.624,-3.619z"/>
    <path class="fil2" d="M12.19 1.703c-0.414,1.049 0.04,2.832 1.625,3.619 0.202,-1.273 -0.091,-2.954 -1.625,-3.619z"/>
    <path class="fil3" d="M15.737 2.203c0.287,0.724 -0.03,1.958 -1.125,2.502 -0.141,-0.879 0.061,-2.045 1.125,-2.502z"/>
    <path class="fil3" d="M12.584 2.145c-0.288,0.724 0.03,1.957 1.124,2.502 0.141,-0.88 -0.06,-2.046 -1.124,-2.502z"/>
    <path class="fil2" d="M23.809 1.703c0.414,1.049 -0.04,2.832 -1.625,3.619 -0.202,-1.273 0.091,-2.954 1.625,-3.619z"/>
    <path class="fil2" d="M20.22 1.703c-0.413,1.049 0.041,2.832 1.626,3.619 0.202,-1.273 -0.091,-2.954 -1.626,-3.619z"/>
    <path class="fil3" d="M23.767 2.203c0.288,0.724 -0.03,1.958 -1.124,2.502 -0.141,-0.879 0.06,-2.045 1.124,-2.502z"/>
    <path class="fil3" d="M20.614 2.145c-0.288,0.724 0.03,1.957 1.124,2.502 0.141,-0.88 -0.06,-2.046 -1.124,-2.502z"/>
    <path class="fil2" d="M31.84 1.703c0.413,1.049 -0.041,2.832 -1.626,3.619 -0.201,-1.273 0.091,-2.954 1.626,-3.619z"/>
    <path class="fil2" d="M28.251 1.703c-0.414,1.049 0.041,2.832 1.625,3.619 0.202,-1.273 -0.091,-2.954 -1.625,-3.619z"/>
    <path class="fil3" d="M31.798 2.203c0.288,0.724 -0.03,1.958 -1.124,2.502 -0.141,-0.879 0.06,-2.045 1.124,-2.502z"/>
    <path class="fil3" d="M28.644 2.145c-0.287,0.724 0.031,1.957 1.125,2.502 0.141,-0.88 -0.061,-2.046 -1.125,-2.502z"/>
    <path class="fil2" d="M7.748 4.537c0.414,1.049 -0.04,2.832 -1.625,3.618 -0.202,-1.272 0.091,-2.953 1.625,-3.618z"/>
    <path class="fil2" d="M4.159 4.537c-0.413,1.049 0.041,2.832 1.626,3.618 0.201,-1.272 -0.092,-2.953 -1.626,-3.618z"/>
    <path class="fil3" d="M7.707 5.037c0.287,0.724 -0.03,1.958 -1.125,2.502 -0.141,-0.879 0.061,-2.045 1.125,-2.502z"/>
    <path class="fil3" d="M4.553 4.979c-0.288,0.724 0.03,1.958 1.124,2.501 0.141,-0.879 -0.06,-2.045 -1.124,-2.501z"/>
    <path class="fil2" d="M15.778 4.537c0.414,1.049 -0.04,2.832 -1.624,3.618 -0.202,-1.272 0.09,-2.953 1.624,-3.618z"/>
    <path class="fil2" d="M12.19 4.537c-0.414,1.049 0.04,2.832 1.625,3.618 0.202,-1.272 -0.091,-2.953 -1.625,-3.618z"/>
    <path class="fil3" d="M15.737 5.037c0.287,0.724 -0.03,1.958 -1.125,2.502 -0.141,-0.879 0.061,-2.045 1.125,-2.502z"/>
    <path class="fil3" d="M12.584 4.979c-0.288,0.724 0.03,1.958 1.124,2.501 0.141,-0.879 -0.06,-2.045 -1.124,-2.501z"/>
    <path class="fil2" d="M23.809 4.537c0.414,1.049 -0.04,2.832 -1.625,3.618 -0.202,-1.272 0.091,-2.953 1.625,-3.618z"/>
    <path class="fil2" d="M20.22 4.537c-0.413,1.049 0.041,2.832 1.626,3.618 0.202,-1.272 -0.091,-2.953 -1.626,-3.618z"/>
    <path class="fil3" d="M23.767 5.037c0.288,0.724 -0.03,1.958 -1.124,2.502 -0.141,-0.879 0.06,-2.045 1.124,-2.502z"/>
    <path class="fil3" d="M20.614 4.979c-0.288,0.724 0.03,1.958 1.124,2.501 0.141,-0.879 -0.06,-2.045 -1.124,-2.501z"/>
    <path class="fil2" d="M31.84 4.537c0.413,1.049 -0.041,2.832 -1.626,3.618 -0.201,-1.272 0.091,-2.953 1.626,-3.618z"/>
    <path class="fil2" d="M28.251 4.537c-0.414,1.049 0.041,2.832 1.625,3.618 0.202,-1.272 -0.091,-2.953 -1.625,-3.618z"/>
    <path class="fil3" d="M31.798 5.037c0.288,0.724 -0.03,1.958 -1.124,2.502 -0.141,-0.879 0.06,-2.045 1.124,-2.502z"/>
    <path class="fil3" d="M28.644 4.979c-0.287,0.724 0.031,1.958 1.125,2.501 0.141,-0.879 -0.061,-2.045 -1.125,-2.501z"/>
    <path class="fil2" d="M7.748 7.37c0.414,1.05 -0.04,2.832 -1.625,3.619 -0.202,-1.273 0.091,-2.953 1.625,-3.619z"/>
    <path class="fil2" d="M4.159 7.37c-0.413,1.05 0.041,2.832 1.626,3.619 0.201,-1.273 -0.092,-2.953 -1.626,-3.619z"/>
    <path class="fil3" d="M7.707 7.871c0.287,0.724 -0.03,1.957 -1.125,2.502 -0.141,-0.88 0.061,-2.046 1.125,-2.502z"/>
    <path class="fil3" d="M4.553 7.813c-0.288,0.723 0.03,1.957 1.124,2.501 0.141,-0.879 -0.06,-2.045 -1.124,-2.501z"/>
    <path class="fil2" d="M15.778 7.37c0.414,1.05 -0.04,2.832 -1.624,3.619 -0.202,-1.273 0.09,-2.953 1.624,-3.619z"/>
    <path class="fil2" d="M12.19 7.37c-0.414,1.05 0.04,2.832 1.625,3.619 0.202,-1.273 -0.091,-2.953 -1.625,-3.619z"/>
    <path class="fil3" d="M15.737 7.871c0.287,0.724 -0.03,1.957 -1.125,2.502 -0.141,-0.88 0.061,-2.046 1.125,-2.502z"/>
    <path class="fil3" d="M12.584 7.813c-0.288,0.723 0.03,1.957 1.124,2.501 0.141,-0.879 -0.06,-2.045 -1.124,-2.501z"/>
    <path class="fil2" d="M23.809 7.37c0.414,1.05 -0.04,2.832 -1.625,3.619 -0.202,-1.273 0.091,-2.953 1.625,-3.619z"/>
    <path class="fil2" d="M20.22 7.37c-0.413,1.05 0.041,2.832 1.626,3.619 0.202,-1.273 -0.091,-2.953 -1.626,-3.619z"/>
    <path class="fil3" d="M23.767 7.871c0.288,0.724 -0.03,1.957 -1.124,2.502 -0.141,-0.88 0.06,-2.046 1.124,-2.502z"/>
    <path class="fil3" d="M20.614 7.813c-0.288,0.723 0.03,1.957 1.124,2.501 0.141,-0.879 -0.06,-2.045 -1.124,-2.501z"/>
    <path class="fil2" d="M31.84 7.37c0.413,1.05 -0.041,2.832 -1.626,3.619 -0.201,-1.273 0.091,-2.953 1.626,-3.619z"/>
    <path class="fil2" d="M28.251 7.37c-0.414,1.05 0.041,2.832 1.625,3.619 0.202,-1.273 -0.091,-2.953 -1.625,-3.619z"/>
    <path class="fil3" d="M31.798 7.871c0.288,0.724 -0.03,1.957 -1.124,2.502 -0.141,-0.88 0.06,-2.046 1.124,-2.502z"/>
    <path class="fil3" d="M28.644 7.813c-0.287,0.723 0.031,1.957 1.125,2.501 0.141,-0.879 -0.061,-2.045 -1.125,-2.501z"/>
    <path class="fil4" d="M7.748 10.204c0.414,1.05 -0.04,2.832 -1.625,3.619 -0.202,-1.272 0.091,-2.953 1.625,-3.619z"/>
    <path class="fil4" d="M4.159 10.204c-0.413,1.05 0.041,2.832 1.626,3.619 0.201,-1.272 -0.092,-2.953 -1.626,-3.619z"/>
    <path class="fil5" d="M7.707 10.705c0.287,0.724 -0.03,1.958 -1.125,2.501 -0.141,-0.879 0.061,-2.045 1.125,-2.501z"/>
    <path class="fil5" d="M4.553 10.647c-0.288,0.723 0.03,1.957 1.124,2.501 0.141,-0.879 -0.06,-2.045 -1.124,-2.501z"/>
    <path class="fil2" d="M15.778 10.204c0.414,1.05 -0.04,2.832 -1.624,3.619 -0.202,-1.272 0.09,-2.953 1.624,-3.619z"/>
    <path class="fil2" d="M12.19 10.204c-0.414,1.05 0.04,2.832 1.625,3.619 0.202,-1.272 -0.091,-2.953 -1.625,-3.619z"/>
    <path class="fil3" d="M15.737 10.705c0.287,0.724 -0.03,1.958 -1.125,2.501 -0.141,-0.879 0.061,-2.045 1.125,-2.501z"/>
    <path class="fil3" d="M12.584 10.647c-0.288,0.723 0.03,1.957 1.124,2.501 0.141,-0.879 -0.06,-2.045 -1.124,-2.501z"/>
    <path class="fil2" d="M23.809 10.204c0.414,1.05 -0.04,2.832 -1.625,3.619 -0.202,-1.272 0.091,-2.953 1.625,-3.619z"/>
    <path class="fil2" d="M20.22 10.204c-0.413,1.05 0.041,2.832 1.626,3.619 0.202,-1.272 -0.091,-2.953 -1.626,-3.619z"/>
    <path class="fil3" d="M23.767 10.705c0.288,0.724 -0.03,1.958 -1.124,2.501 -0.141,-0.879 0.06,-2.045 1.124,-2.501z"/>
    <path class="fil3" d="M20.614 10.647c-0.288,0.723 0.03,1.957 1.124,2.501 0.141,-0.879 -0.06,-2.045 -1.124,-2.501z"/>
    <path class="fil4" d="M31.84 10.204c0.413,1.05 -0.041,2.832 -1.626,3.619 -0.201,-1.272 0.091,-2.953 1.626,-3.619z"/>
    <path class="fil4" d="M28.251 10.204c-0.414,1.05 0.041,2.832 1.625,3.619 0.202,-1.272 -0.091,-2.953 -1.625,-3.619z"/>
    <path class="fil5" d="M31.798 10.705c0.288,0.724 -0.03,1.958 -1.124,2.501 -0.141,-0.879 0.06,-2.045 1.124,-2.501z"/>
    <path class="fil5" d="M28.644 10.647c-0.287,0.723 0.031,1.957 1.125,2.501 0.141,-0.879 -0.061,-2.045 -1.125,-2.501z"/>
    <path class="fil4" d="M7.748 13.038c0.414,1.049 -0.04,2.832 -1.625,3.619 -0.202,-1.273 0.091,-2.954 1.625,-3.619z"/>
    <path class="fil4" d="M4.159 13.038c-0.413,1.049 0.041,2.832 1.626,3.619 0.201,-1.273 -0.092,-2.954 -1.626,-3.619z"/>
    <path class="fil5" d="M7.707 13.538c0.287,0.724 -0.03,1.958 -1.125,2.502 -0.141,-0.879 0.061,-2.045 1.125,-2.502z"/>
    <path class="fil5" d="M4.553 13.48c-0.288,0.723 0.03,1.957 1.124,2.501 0.141,-0.879 -0.06,-2.045 -1.124,-2.501z"/>
    <path class="fil4" d="M15.778 13.038c0.414,1.049 -0.04,2.832 -1.624,3.619 -0.202,-1.273 0.09,-2.954 1.624,-3.619z"/>
    <path class="fil4" d="M12.19 13.038c-0.414,1.049 0.04,2.832 1.625,3.619 0.202,-1.273 -0.091,-2.954 -1.625,-3.619z"/>
    <path class="fil5" d="M15.737 13.538c0.287,0.724 -0.03,1.958 -1.125,2.502 -0.141,-0.879 0.061,-2.045 1.125,-2.502z"/>
    <path class="fil5" d="M12.584 13.48c-0.288,0.723 0.03,1.957 1.124,2.501 0.141,-0.879 -0.06,-2.045 -1.124,-2.501z"/>
    <path class="fil2" d="M23.809 13.038c0.414,1.049 -0.04,2.832 -1.625,3.619 -0.202,-1.273 0.091,-2.954 1.625,-3.619z"/>
    <path class="fil2" d="M20.22 13.038c-0.413,1.049 0.041,2.832 1.626,3.619 0.202,-1.273 -0.091,-2.954 -1.626,-3.619z"/>
    <path class="fil3" d="M23.767 13.538c0.288,0.724 -0.03,1.958 -1.124,2.502 -0.141,-0.879 0.06,-2.045 1.124,-2.502z"/>
    <path class="fil3" d="M20.614 13.48c-0.288,0.723 0.03,1.957 1.124,2.501 0.141,-0.879 -0.06,-2.045 -1.124,-2.501z"/>
    <path class="fil4" d="M31.84 13.038c0.413,1.049 -0.041,2.832 -1.626,3.619 -0.201,-1.273 0.091,-2.954 1.626,-3.619z"/>
    <path class="fil4" d="M28.251 13.038c-0.414,1.049 0.041,2.832 1.625,3.619 0.202,-1.273 -0.091,-2.954 -1.625,-3.619z"/>
    <path class="fil5" d="M31.798 13.538c0.288,0.724 -0.03,1.958 -1.124,2.502 -0.141,-0.879 0.06,-2.045 1.124,-2.502z"/>
    <path class="fil5" d="M28.644 13.48c-0.287,0.723 0.031,1.957 1.125,2.501 0.141,-0.879 -0.061,-2.045 -1.125,-2.501z"/>
    <path class="fil4" d="M7.748 15.872c0.414,1.049 -0.04,2.832 -1.625,3.619 -0.202,-1.273 0.091,-2.954 1.625,-3.619z"/>
    <path class="fil4" d="M4.159 15.872c-0.413,1.049 0.041,2.832 1.626,3.619 0.201,-1.273 -0.092,-2.954 -1.626,-3.619z"/>
    <path class="fil5" d="M7.707 16.372c0.287,0.724 -0.03,1.958 -1.125,2.501 -0.141,-0.879 0.061,-2.045 1.125,-2.501z"/>
    <path class="fil5" d="M4.553 16.314c-0.288,0.723 0.03,1.957 1.124,2.501 0.141,-0.879 -0.06,-2.045 -1.124,-2.501z"/>
    <path class="fil4" d="M15.778 15.872c0.414,1.049 -0.04,2.832 -1.624,3.619 -0.202,-1.273 0.09,-2.954 1.624,-3.619z"/>
    <path class="fil4" d="M12.19 15.872c-0.414,1.049 0.04,2.832 1.625,3.619 0.202,-1.273 -0.091,-2.954 -1.625,-3.619z"/>
    <path class="fil5" d="M15.737 16.372c0.287,0.724 -0.03,1.958 -1.125,2.501 -0.141,-0.879 0.061,-2.045 1.125,-2.501z"/>
    <path class="fil5" d="M12.584 16.314c-0.288,0.723 0.03,1.957 1.124,2.501 0.141,-0.879 -0.06,-2.045 -1.124,-2.501z"/>
    <path class="fil2" d="M23.809 15.872c0.414,1.049 -0.04,2.832 -1.625,3.619 -0.202,-1.273 0.091,-2.954 1.625,-3.619z"/>
    <path class="fil2" d="M20.22 15.872c-0.413,1.049 0.041,2.832 1.626,3.619 0.202,-1.273 -0.091,-2.954 -1.626,-3.619z"/>
    <path class="fil3" d="M23.767 16.372c0.288,0.724 -0.03,1.958 -1.124,2.501 -0.141,-0.879 0.06,-2.045 1.124,-2.501z"/>
    <path class="fil3" d="M20.614 16.314c-0.288,0.723 0.03,1.957 1.124,2.501 0.141,-0.879 -0.06,-2.045 -1.124,-2.501z"/>
    <path class="fil4" d="M31.84 15.872c0.413,1.049 -0.041,2.832 -1.626,3.619 -0.201,-1.273 0.091,-2.954 1.626,-3.619z"/>
    <path class="fil4" d="M28.251 15.872c-0.414,1.049 0.041,2.832 1.625,3.619 0.202,-1.273 -0.091,-2.954 -1.625,-3.619z"/>
    <path class="fil5" d="M31.798 16.372c0.288,0.724 -0.03,1.958 -1.124,2.501 -0.141,-0.879 0.06,-2.045 1.124,-2.501z"/>
    <path class="fil5" d="M28.644 16.314c-0.287,0.723 0.031,1.957 1.125,2.501 0.141,-0.879 -0.061,-2.045 -1.125,-2.501z"/>
    <path class="fil4" d="M7.748 18.705c0.414,1.049 -0.04,2.832 -1.625,3.619 -0.202,-1.273 0.091,-2.954 1.625,-3.619z"/>
    <path class="fil4" d="M4.159 18.705c-0.413,1.049 0.041,2.832 1.626,3.619 0.201,-1.273 -0.092,-2.954 -1.626,-3.619z"/>
    <path class="fil5" d="M7.707 19.205c0.287,0.724 -0.03,1.958 -1.125,2.502 -0.141,-0.879 0.061,-2.045 1.125,-2.502z"/>
    <path class="fil5" d="M4.553 19.147c-0.288,0.724 0.03,1.958 1.124,2.502 0.141,-0.879 -0.06,-2.045 -1.124,-2.502z"/>
    <path class="fil4" d="M15.778 18.705c0.414,1.049 -0.04,2.832 -1.624,3.619 -0.202,-1.273 0.09,-2.954 1.624,-3.619z"/>
    <path class="fil4" d="M12.19 18.705c-0.414,1.049 0.04,2.832 1.625,3.619 0.202,-1.273 -0.091,-2.954 -1.625,-3.619z"/>
    <path class="fil5" d="M15.737 19.205c0.287,0.724 -0.03,1.958 -1.125,2.502 -0.141,-0.879 0.061,-2.045 1.125,-2.502z"/>
    <path class="fil5" d="M12.584 19.147c-0.288,0.724 0.03,1.958 1.124,2.502 0.141,-0.879 -0.06,-2.045 -1.124,-2.502z"/>
    <path class="fil2" d="M23.809 18.705c0.414,1.049 -0.04,2.832 -1.625,3.619 -0.202,-1.273 0.091,-2.954 1.625,-3.619z"/>
    <path class="fil6" d="M20.22 18.705c-0.413,1.049 0.041,2.832 1.626,3.619 0.202,-1.273 -0.091,-2.954 -1.626,-3.619z"/>
    <path class="fil3" d="M23.767 19.205c0.288,0.724 -0.03,1.958 -1.124,2.502 -0.141,-0.879 0.06,-2.045 1.124,-2.502z"/>
    <path class="fil3" d="M20.614 19.147c-0.288,0.724 0.03,1.958 1.124,2.502 0.141,-0.879 -0.06,-2.045 -1.124,-2.502z"/>
    <path class="fil4" d="M31.84 18.705c0.413,1.049 -0.041,2.832 -1.626,3.619 -0.201,-1.273 0.091,-2.954 1.626,-3.619z"/>
    <path class="fil4" d="M28.251 18.705c-0.414,1.049 0.041,2.832 1.625,3.619 0.202,-1.273 -0.091,-2.954 -1.625,-3.619z"/>
    <path class="fil5" d="M31.798 19.205c0.288,0.724 -0.03,1.958 -1.124,2.502 -0.141,-0.879 0.06,-2.045 1.124,-2.502z"/>
    <path class="fil5" d="M28.644 19.147c-0.287,0.724 0.031,1.958 1.125,2.502 0.141,-0.879 -0.061,-2.045 -1.125,-2.502z"/>
    <path class="fil4" d="M7.748 21.539c0.414,1.049 -0.04,2.832 -1.625,3.619 -0.202,-1.273 0.091,-2.954 1.625,-3.619z"/>
    <path class="fil4" d="M4.159 21.539c-0.413,1.049 0.041,2.832 1.626,3.619 0.201,-1.272 -0.092,-2.953 -1.626,-3.619z"/>
    <path class="fil5" d="M7.707 22.04c0.287,0.723 -0.03,1.957 -1.125,2.501 -0.141,-0.879 0.061,-2.045 1.125,-2.501z"/>
    <path class="fil5" d="M4.553 21.981c-0.288,0.724 0.03,1.958 1.124,2.502 0.141,-0.879 -0.06,-2.045 -1.124,-2.502z"/>
    <path class="fil4" d="M15.778 21.539c0.414,1.049 -0.04,2.832 -1.624,3.619 -0.202,-1.273 0.09,-2.954 1.624,-3.619z"/>
    <path class="fil4" d="M12.19 21.539c-0.414,1.049 0.04,2.832 1.625,3.619 0.202,-1.272 -0.091,-2.953 -1.625,-3.619z"/>
    <path class="fil5" d="M15.737 22.04c0.287,0.723 -0.03,1.957 -1.125,2.501 -0.141,-0.879 0.061,-2.045 1.125,-2.501z"/>
    <path class="fil5" d="M12.584 21.981c-0.288,0.724 0.03,1.958 1.124,2.502 0.141,-0.879 -0.06,-2.045 -1.124,-2.502z"/>
    <path class="fil4" d="M23.809 21.539c0.414,1.049 -0.04,2.832 -1.625,3.619 -0.202,-1.273 0.091,-2.954 1.625,-3.619z"/>
    <path class="fil4" d="M20.22 21.539c-0.413,1.049 0.041,2.832 1.626,3.619 0.202,-1.272 -0.091,-2.953 -1.626,-3.619z"/>
    <path class="fil5" d="M23.767 22.04c0.288,0.723 -0.03,1.957 -1.124,2.501 -0.141,-0.879 0.06,-2.045 1.124,-2.501z"/>
    <path class="fil5" d="M20.614 21.981c-0.288,0.724 0.03,1.958 1.124,2.502 0.141,-0.879 -0.06,-2.045 -1.124,-2.502z"/>
    <path class="fil4" d="M31.84 21.539c0.413,1.049 -0.041,2.832 -1.626,3.619 -0.201,-1.273 0.091,-2.954 1.626,-3.619z"/>
    <path class="fil4" d="M28.251 21.539c-0.414,1.049 0.041,2.832 1.625,3.619 0.202,-1.272 -0.091,-2.953 -1.625,-3.619z"/>
    <path class="fil5" d="M31.798 22.04c0.288,0.723 -0.03,1.957 -1.124,2.501 -0.141,-0.879 0.06,-2.045 1.124,-2.501z"/>
    <path class="fil5" d="M28.644 21.981c-0.287,0.724 0.031,1.958 1.125,2.502 0.141,-0.879 -0.061,-2.045 -1.125,-2.502z"/>
    <path class="fil4" d="M7.748 24.373c0.414,1.049 -0.04,2.832 -1.625,3.619 -0.202,-1.273 0.091,-2.954 1.625,-3.619z"/>
    <path class="fil4" d="M4.159 24.373c-0.413,1.049 0.041,2.832 1.626,3.619 0.201,-1.273 -0.092,-2.954 -1.626,-3.619z"/>
    <path class="fil5" d="M7.707 24.873c0.287,0.724 -0.03,1.958 -1.125,2.502 -0.141,-0.879 0.061,-2.045 1.125,-2.502z"/>
    <path class="fil5" d="M4.553 24.815c-0.288,0.724 0.03,1.958 1.124,2.502 0.141,-0.88 -0.06,-2.046 -1.124,-2.502z"/>
    <path class="fil4" d="M15.778 24.373c0.414,1.049 -0.04,2.832 -1.624,3.619 -0.202,-1.273 0.09,-2.954 1.624,-3.619z"/>
    <path class="fil4" d="M12.19 24.373c-0.414,1.049 0.04,2.832 1.625,3.619 0.202,-1.273 -0.091,-2.954 -1.625,-3.619z"/>
    <path class="fil5" d="M15.737 24.873c0.287,0.724 -0.03,1.958 -1.125,2.502 -0.141,-0.879 0.061,-2.045 1.125,-2.502z"/>
    <path class="fil5" d="M12.584 24.815c-0.288,0.724 0.03,1.958 1.124,2.502 0.141,-0.88 -0.06,-2.046 -1.124,-2.502z"/>
    <path class="fil4" d="M23.809 24.373c0.414,1.049 -0.04,2.832 -1.625,3.619 -0.202,-1.273 0.091,-2.954 1.625,-3.619z"/>
    <path class="fil4" d="M20.22 24.373c-0.413,1.049 0.041,2.832 1.626,3.619 0.202,-1.273 -0.091,-2.954 -1.626,-3.619z"/>
    <path class="fil5" d="M23.767 24.873c0.288,0.724 -0.03,1.958 -1.124,2.502 -0.141,-0.879 0.06,-2.045 1.124,-2.502z"/>
    <path class="fil5" d="M20.614 24.815c-0.288,0.724 0.03,1.958 1.124,2.502 0.141,-0.88 -0.06,-2.046 -1.124,-2.502z"/>
    <path class="fil4" d="M31.84 24.373c0.413,1.049 -0.041,2.832 -1.626,3.619 -0.201,-1.273 0.091,-2.954 1.626,-3.619z"/>
    <path class="fil4" d="M28.251 24.373c-0.414,1.049 0.041,2.832 1.625,3.619 0.202,-1.273 -0.091,-2.954 -1.625,-3.619z"/>
    <path class="fil5" d="M31.798 24.873c0.288,0.724 -0.03,1.958 -1.124,2.502 -0.141,-0.879 0.06,-2.045 1.124,-2.502z"/>
    <path class="fil5" d="M28.644 24.815c-0.287,0.724 0.031,1.958 1.125,2.502 0.141,-0.88 -0.061,-2.046 -1.125,-2.502z"/>
    <path class="fil4" d="M7.748 27.207c0.414,1.049 -0.04,2.832 -1.625,3.619 -0.202,-1.273 0.091,-2.954 1.625,-3.619z"/>
    <path class="fil4" d="M4.159 27.207c-0.413,1.049 0.041,2.832 1.626,3.619 0.201,-1.273 -0.092,-2.954 -1.626,-3.619z"/>
    <path class="fil5" d="M7.707 27.707c0.287,0.724 -0.03,1.958 -1.125,2.502 -0.141,-0.879 0.061,-2.045 1.125,-2.502z"/>
    <path class="fil5" d="M4.553 27.649c-0.288,0.724 0.03,1.958 1.124,2.501 0.141,-0.879 -0.06,-2.044 -1.124,-2.501z"/>
    <path class="fil2" d="M15.778 27.207c0.414,1.049 -0.04,2.832 -1.624,3.619 -0.202,-1.273 0.09,-2.954 1.624,-3.619z"/>
    <path class="fil2" d="M12.19 27.207c-0.414,1.049 0.04,2.832 1.625,3.619 0.202,-1.273 -0.091,-2.954 -1.625,-3.619z"/>
    <path class="fil3" d="M15.737 27.707c0.287,0.724 -0.03,1.958 -1.125,2.502 -0.141,-0.879 0.061,-2.045 1.125,-2.502z"/>
    <path class="fil3" d="M12.584 27.649c-0.288,0.724 0.03,1.958 1.124,2.501 0.141,-0.879 -0.06,-2.044 -1.124,-2.501z"/>
    <path class="fil4" d="M23.809 27.207c0.414,1.049 -0.04,2.832 -1.625,3.619 -0.202,-1.273 0.091,-2.954 1.625,-3.619z"/>
    <path class="fil4" d="M20.22 27.207c-0.413,1.049 0.041,2.832 1.626,3.619 0.202,-1.273 -0.091,-2.954 -1.626,-3.619z"/>
    <path class="fil5" d="M23.767 27.707c0.288,0.724 -0.03,1.958 -1.124,2.502 -0.141,-0.879 0.06,-2.045 1.124,-2.502z"/>
    <path class="fil5" d="M20.614 27.649c-0.288,0.724 0.03,1.958 1.124,2.501 0.141,-0.879 -0.06,-2.044 -1.124,-2.501z"/>
    <path class="fil4" d="M31.84 27.207c0.413,1.049 -0.041,2.832 -1.626,3.619 -0.201,-1.273 0.091,-2.954 1.626,-3.619z"/>
    <path class="fil4" d="M28.251 27.207c-0.414,1.049 0.041,2.832 1.625,3.619 0.202,-1.273 -0.091,-2.954 -1.625,-3.619z"/>
    <path class="fil5" d="M31.798 27.707c0.288,0.724 -0.03,1.958 -1.124,2.502 -0.141,-0.879 0.06,-2.045 1.124,-2.502z"/>
    <path class="fil5" d="M28.644 27.649c-0.287,0.724 0.031,1.958 1.125,2.501 0.141,-0.879 -0.061,-2.044 -1.125,-2.501z"/>
    <path class="fil4" d="M7.748 30.04c0.414,1.049 -0.04,2.832 -1.625,3.619 -0.202,-1.273 0.091,-2.953 1.625,-3.619z"/>
    <path class="fil4" d="M4.159 30.04c-0.413,1.049 0.041,2.832 1.626,3.619 0.201,-1.273 -0.092,-2.953 -1.626,-3.619z"/>
    <path class="fil5" d="M7.707 30.541c0.287,0.724 -0.03,1.957 -1.125,2.502 -0.141,-0.88 0.061,-2.046 1.125,-2.502z"/>
    <path class="fil5" d="M4.553 30.482c-0.288,0.724 0.03,1.958 1.124,2.502 0.141,-0.879 -0.06,-2.045 -1.124,-2.502z"/>
    <path class="fil2" d="M15.778 30.04c0.414,1.049 -0.04,2.832 -1.624,3.619 -0.202,-1.273 0.09,-2.953 1.624,-3.619z"/>
    <path class="fil2" d="M12.19 30.04c-0.414,1.049 0.04,2.832 1.625,3.619 0.202,-1.273 -0.091,-2.953 -1.625,-3.619z"/>
    <path class="fil3" d="M15.737 30.541c0.287,0.724 -0.03,1.957 -1.125,2.502 -0.141,-0.88 0.061,-2.046 1.125,-2.502z"/>
    <path class="fil3" d="M12.584 30.482c-0.288,0.724 0.03,1.958 1.124,2.502 0.141,-0.879 -0.06,-2.045 -1.124,-2.502z"/>
    <path class="fil4" d="M23.809 30.04c0.414,1.049 -0.04,2.832 -1.625,3.619 -0.202,-1.273 0.091,-2.953 1.625,-3.619z"/>
    <path class="fil4" d="M20.22 30.04c-0.413,1.049 0.041,2.832 1.626,3.619 0.202,-1.273 -0.091,-2.953 -1.626,-3.619z"/>
    <path class="fil5" d="M23.767 30.541c0.288,0.724 -0.03,1.957 -1.124,2.502 -0.141,-0.88 0.06,-2.046 1.124,-2.502z"/>
    <path class="fil5" d="M20.614 30.482c-0.288,0.724 0.03,1.958 1.124,2.502 0.141,-0.879 -0.06,-2.045 -1.124,-2.502z"/>
    <path class="fil4" d="M31.84 30.04c0.413,1.049 -0.041,2.832 -1.626,3.619 -0.201,-1.273 0.091,-2.953 1.626,-3.619z"/>
    <path class="fil4" d="M28.251 30.04c-0.414,1.049 0.041,2.832 1.625,3.619 0.202,-1.273 -0.091,-2.953 -1.625,-3.619z"/>
    <path class="fil5" d="M31.798 30.541c0.288,0.724 -0.03,1.957 -1.124,2.502 -0.141,-0.88 0.06,-2.046 1.124,-2.502z"/>
    <path class="fil5" d="M28.644 30.482c-0.287,0.724 0.031,1.958 1.125,2.502 0.141,-0.879 -0.061,-2.045 -1.125,-2.502z"/>
    <path class="fil4" d="M7.748 32.874c0.414,1.05 -0.04,2.832 -1.625,3.619 -0.202,-1.273 0.091,-2.953 1.625,-3.619z"/>
    <path class="fil4" d="M4.159 32.874c-0.413,1.049 0.041,2.832 1.626,3.619 0.201,-1.273 -0.092,-2.953 -1.626,-3.619z"/>
    <path class="fil5" d="M7.707 33.374c0.287,0.724 -0.03,1.958 -1.125,2.502 -0.141,-0.879 0.061,-2.045 1.125,-2.502z"/>
    <path class="fil5" d="M4.553 33.316c-0.288,0.724 0.03,1.958 1.124,2.502 0.141,-0.879 -0.06,-2.045 -1.124,-2.502z"/>
    <path class="fil2" d="M15.778 32.874c0.414,1.05 -0.04,2.832 -1.624,3.619 -0.202,-1.273 0.09,-2.953 1.624,-3.619z"/>
    <path class="fil2" d="M12.19 32.874c-0.414,1.049 0.04,2.832 1.625,3.619 0.202,-1.273 -0.091,-2.953 -1.625,-3.619z"/>
    <path class="fil3" d="M15.737 33.374c0.287,0.724 -0.03,1.958 -1.125,2.502 -0.141,-0.879 0.061,-2.045 1.125,-2.502z"/>
    <path class="fil3" d="M12.584 33.316c-0.288,0.724 0.03,1.958 1.124,2.502 0.141,-0.879 -0.06,-2.045 -1.124,-2.502z"/>
    <path class="fil2" d="M23.809 32.874c0.414,1.05 -0.04,2.832 -1.625,3.619 -0.202,-1.273 0.091,-2.953 1.625,-3.619z"/>
    <path class="fil2" d="M20.22 32.874c-0.413,1.049 0.041,2.832 1.626,3.619 0.202,-1.273 -0.091,-2.953 -1.626,-3.619z"/>
    <path class="fil3" d="M23.767 33.374c0.288,0.724 -0.03,1.958 -1.124,2.502 -0.141,-0.879 0.06,-2.045 1.124,-2.502z"/>
    <path class="fil3" d="M20.614 33.316c-0.288,0.724 0.03,1.958 1.124,2.502 0.141,-0.879 -0.06,-2.045 -1.124,-2.502z"/>
    <path class="fil4" d="M31.84 32.874c0.413,1.05 -0.041,2.832 -1.626,3.619 -0.201,-1.273 0.091,-2.953 1.626,-3.619z"/>
    <path class="fil4" d="M28.251 32.874c-0.414,1.049 0.041,2.832 1.625,3.619 0.202,-1.273 -0.091,-2.953 -1.625,-3.619z"/>
    <path class="fil5" d="M31.798 33.374c0.288,0.724 -0.03,1.958 -1.124,2.502 -0.141,-0.879 0.06,-2.045 1.124,-2.502z"/>
    <path class="fil5" d="M28.644 33.316c-0.287,0.724 0.031,1.958 1.125,2.502 0.141,-0.879 -0.061,-2.045 -1.125,-2.502z"/>
    <path class="fil2" d="M3.733 -0.57c0.414,1.049 -0.04,2.832 -1.625,3.619 -0.202,-1.273 0.091,-2.954 1.625,-3.619z"/>
    <path class="fil2" d="M0.144 -0.57c-0.413,1.049 0.041,2.832 1.626,3.619 0.201,-1.273 -0.091,-2.953 -1.626,-3.619z"/>
    <path class="fil3" d="M3.691 -0.07c0.288,0.724 -0.03,1.958 -1.124,2.502 -0.141,-0.879 0.061,-2.045 1.124,-2.502z"/>
    <path class="fil3" d="M0.538 -0.128c-0.287,0.724 0.03,1.958 1.125,2.502 0.141,-0.88 -0.061,-2.045 -1.125,-2.502z"/>
    <path class="fil2" d="M3.733 2.264c0.414,1.049 -0.04,2.832 -1.625,3.618 -0.202,-1.272 0.091,-2.953 1.625,-3.618z"/>
    <path class="fil2" d="M0.144 2.264c-0.413,1.049 0.041,2.832 1.626,3.618 0.201,-1.272 -0.091,-2.953 -1.626,-3.618z"/>
    <path class="fil3" d="M3.691 2.764c0.288,0.724 -0.03,1.957 -1.124,2.502 -0.141,-0.879 0.061,-2.045 1.124,-2.502z"/>
    <path class="fil3" d="M0.538 2.706c-0.287,0.724 0.03,1.957 1.125,2.501 0.141,-0.879 -0.061,-2.045 -1.125,-2.501z"/>
    <path class="fil2" d="M3.733 5.097c0.414,1.05 -0.04,2.832 -1.625,3.619 -0.202,-1.272 0.091,-2.953 1.625,-3.619z"/>
    <path class="fil2" d="M0.144 5.097c-0.413,1.05 0.041,2.832 1.626,3.619 0.201,-1.272 -0.091,-2.953 -1.626,-3.619z"/>
    <path class="fil3" d="M3.691 5.597c0.288,0.725 -0.03,1.958 -1.124,2.503 -0.141,-0.88 0.061,-2.046 1.124,-2.503z"/>
    <path class="fil3" d="M0.538 5.54c-0.287,0.723 0.03,1.957 1.125,2.501 0.141,-0.879 -0.061,-2.045 -1.125,-2.501z"/>
    <path class="fil2" d="M3.733 7.931c0.414,1.05 -0.04,2.832 -1.625,3.619 -0.202,-1.273 0.091,-2.953 1.625,-3.619z"/>
    <path class="fil2" d="M0.144 7.931c-0.413,1.049 0.041,2.832 1.626,3.619 0.201,-1.273 -0.091,-2.953 -1.626,-3.619z"/>
    <path class="fil3" d="M3.691 8.432c0.288,0.724 -0.03,1.957 -1.124,2.501 -0.141,-0.879 0.061,-2.045 1.124,-2.501z"/>
    <path class="fil3" d="M0.538 8.373c-0.287,0.724 0.03,1.958 1.125,2.502 0.141,-0.88 -0.061,-2.045 -1.125,-2.502z"/>
    <path class="fil4" d="M3.733 10.765c0.414,1.049 -0.04,2.832 -1.625,3.619 -0.202,-1.272 0.091,-2.954 1.625,-3.619z"/>
    <path class="fil4" d="M0.144 10.765c-0.413,1.049 0.041,2.832 1.626,3.619 0.201,-1.273 -0.091,-2.954 -1.626,-3.619z"/>
    <path class="fil5" d="M3.691 11.265c0.288,0.724 -0.03,1.958 -1.124,2.502 -0.141,-0.88 0.061,-2.045 1.124,-2.502z"/>
    <path class="fil5" d="M0.538 11.207c-0.287,0.724 0.03,1.958 1.125,2.502 0.141,-0.879 -0.061,-2.045 -1.125,-2.502z"/>
    <path class="fil4" d="M3.733 13.598c0.414,1.05 -0.04,2.832 -1.625,3.619 -0.202,-1.273 0.091,-2.953 1.625,-3.619z"/>
    <path class="fil4" d="M0.144 13.598c-0.413,1.05 0.041,2.832 1.626,3.619 0.201,-1.273 -0.091,-2.953 -1.626,-3.619z"/>
    <path class="fil5" d="M3.691 14.099c0.288,0.724 -0.03,1.957 -1.124,2.501 -0.141,-0.879 0.061,-2.045 1.124,-2.501z"/>
    <path class="fil5" d="M0.538 14.041c-0.287,0.723 0.03,1.957 1.125,2.501 0.141,-0.879 -0.061,-2.045 -1.125,-2.501z"/>
    <path class="fil4" d="M3.733 16.432c0.414,1.049 -0.04,2.832 -1.625,3.619 -0.202,-1.272 0.091,-2.954 1.625,-3.619z"/>
    <path class="fil4" d="M0.144 16.432c-0.413,1.049 0.041,2.832 1.626,3.619 0.201,-1.272 -0.091,-2.953 -1.626,-3.619z"/>
    <path class="fil5" d="M3.691 16.933c0.288,0.723 -0.03,1.957 -1.124,2.501 -0.141,-0.879 0.061,-2.045 1.124,-2.501z"/>
    <path class="fil5" d="M0.538 16.874c-0.287,0.724 0.03,1.958 1.125,2.502 0.141,-0.879 -0.061,-2.045 -1.125,-2.502z"/>
    <path class="fil4" d="M3.733 19.266c0.414,1.049 -0.04,2.832 -1.625,3.619 -0.202,-1.273 0.091,-2.954 1.625,-3.619z"/>
    <path class="fil4" d="M0.144 19.266c-0.413,1.049 0.041,2.832 1.626,3.619 0.201,-1.273 -0.091,-2.954 -1.626,-3.619z"/>
    <path class="fil5" d="M3.691 19.767c0.288,0.723 -0.03,1.957 -1.124,2.501 -0.141,-0.879 0.061,-2.045 1.124,-2.501z"/>
    <path class="fil5" d="M0.538 19.708c-0.287,0.724 0.03,1.958 1.125,2.502 0.141,-0.879 -0.061,-2.045 -1.125,-2.502z"/>
    <path class="fil4" d="M3.733 22.1c0.414,1.049 -0.04,2.832 -1.625,3.619 -0.202,-1.273 0.091,-2.954 1.625,-3.619z"/>
    <path class="fil4" d="M0.144 22.1c-0.413,1.049 0.041,2.832 1.626,3.619 0.201,-1.273 -0.091,-2.954 -1.626,-3.619z"/>
    <path class="fil5" d="M3.691 22.6c0.288,0.724 -0.03,1.958 -1.124,2.502 -0.141,-0.879 0.061,-2.045 1.124,-2.502z"/>
    <path class="fil5" d="M0.538 22.542c-0.287,0.724 0.03,1.958 1.125,2.502 0.141,-0.879 -0.061,-2.045 -1.125,-2.502z"/>
    <path class="fil4" d="M3.733 24.934c0.414,1.049 -0.04,2.832 -1.625,3.618 -0.202,-1.272 0.091,-2.953 1.625,-3.618z"/>
    <path class="fil4" d="M0.144 24.934c-0.413,1.049 0.041,2.832 1.626,3.618 0.201,-1.272 -0.091,-2.953 -1.626,-3.618z"/>
    <path class="fil5" d="M3.691 25.434c0.288,0.724 -0.03,1.958 -1.124,2.502 -0.141,-0.879 0.061,-2.045 1.124,-2.502z"/>
    <path class="fil5" d="M0.538 25.375c-0.287,0.724 0.03,1.958 1.125,2.502 0.141,-0.879 -0.061,-2.045 -1.125,-2.502z"/>
    <path class="fil4" d="M3.733 27.767c0.414,1.05 -0.04,2.832 -1.625,3.619 -0.202,-1.272 0.091,-2.953 1.625,-3.619z"/>
    <path class="fil4" d="M0.144 27.767c-0.413,1.05 0.041,2.832 1.626,3.619 0.201,-1.273 -0.091,-2.953 -1.626,-3.619z"/>
    <path class="fil5" d="M3.691 28.268c0.288,0.723 -0.03,1.957 -1.124,2.501 -0.141,-0.879 0.061,-2.045 1.124,-2.501z"/>
    <path class="fil5" d="M0.538 28.209c-0.287,0.724 0.03,1.958 1.125,2.502 0.141,-0.88 -0.061,-2.045 -1.125,-2.502z"/>
    <path class="fil4" d="M3.733 30.601c0.414,1.049 -0.04,2.832 -1.625,3.619 -0.202,-1.273 0.091,-2.954 1.625,-3.619z"/>
    <path class="fil4" d="M0.144 30.601c-0.413,1.049 0.041,2.832 1.626,3.619 0.201,-1.273 -0.091,-2.954 -1.626,-3.619z"/>
    <path class="fil5" d="M3.691 31.101c0.288,0.724 -0.03,1.958 -1.124,2.502 -0.141,-0.879 0.061,-2.045 1.124,-2.502z"/>
    <path class="fil5" d="M0.538 31.043c-0.287,0.724 0.03,1.958 1.125,2.501 0.141,-0.879 -0.061,-2.045 -1.125,-2.501z"/>
    <path class="fil4" d="M3.733 33.434c0.414,1.05 -0.04,2.833 -1.625,3.62 -0.202,-1.273 0.091,-2.954 1.625,-3.62z"/>
    <path class="fil4" d="M0.144 33.434c-0.413,1.05 0.041,2.833 1.626,3.62 0.201,-1.273 -0.091,-2.954 -1.626,-3.62z"/>
    <path class="fil5" d="M3.691 33.935c0.288,0.724 -0.03,1.958 -1.124,2.502 -0.141,-0.88 0.061,-2.046 1.124,-2.502z"/>
    <path class="fil5" d="M0.538 33.877c-0.287,0.723 0.03,1.957 1.125,2.501 0.141,-0.879 -0.061,-2.045 -1.125,-2.501z"/>
    <path class="fil2" d="M11.763 -0.57c0.414,1.049 -0.04,2.832 -1.625,3.619 -0.202,-1.273 0.091,-2.954 1.625,-3.619z"/>
    <path class="fil2" d="M8.175 -0.57c-0.414,1.049 0.041,2.832 1.625,3.619 0.202,-1.273 -0.091,-2.953 -1.625,-3.619z"/>
    <path class="fil3" d="M11.721 -0.07c0.288,0.724 -0.03,1.958 -1.124,2.502 -0.141,-0.879 0.061,-2.045 1.124,-2.502z"/>
    <path class="fil3" d="M8.569 -0.128c-0.288,0.724 0.03,1.958 1.124,2.502 0.141,-0.88 -0.06,-2.045 -1.124,-2.502z"/>
    <path class="fil2" d="M11.763 2.264c0.414,1.049 -0.04,2.832 -1.625,3.618 -0.202,-1.272 0.091,-2.953 1.625,-3.618z"/>
    <path class="fil2" d="M8.175 2.264c-0.414,1.049 0.04,2.832 1.625,3.618 0.202,-1.272 -0.091,-2.953 -1.625,-3.618z"/>
    <path class="fil3" d="M11.721 2.764c0.288,0.724 -0.03,1.957 -1.124,2.502 -0.141,-0.879 0.061,-2.045 1.124,-2.502z"/>
    <path class="fil3" d="M8.568 2.706c-0.287,0.724 0.03,1.957 1.125,2.501 0.141,-0.879 -0.061,-2.045 -1.125,-2.501z"/>
    <path class="fil2" d="M11.763 5.097c0.414,1.05 -0.04,2.832 -1.625,3.619 -0.202,-1.272 0.091,-2.953 1.625,-3.619z"/>
    <path class="fil2" d="M8.175 5.097c-0.414,1.05 0.04,2.832 1.625,3.619 0.202,-1.272 -0.091,-2.953 -1.625,-3.619z"/>
    <path class="fil3" d="M11.721 5.597c0.288,0.725 -0.03,1.958 -1.124,2.503 -0.141,-0.88 0.061,-2.046 1.124,-2.503z"/>
    <path class="fil3" d="M8.568 5.54c-0.287,0.723 0.03,1.957 1.125,2.501 0.141,-0.879 -0.061,-2.045 -1.125,-2.501z"/>
    <path class="fil2" d="M11.763 7.931c0.414,1.05 -0.04,2.832 -1.625,3.619 -0.202,-1.273 0.091,-2.953 1.625,-3.619z"/>
    <path class="fil2" d="M8.175 7.931c-0.414,1.049 0.04,2.832 1.625,3.619 0.202,-1.273 -0.091,-2.953 -1.625,-3.619z"/>
    <path class="fil3" d="M11.721 8.432c0.288,0.724 -0.03,1.957 -1.124,2.501 -0.141,-0.879 0.061,-2.045 1.124,-2.501z"/>
    <path class="fil3" d="M8.568 8.373c-0.287,0.724 0.03,1.958 1.125,2.502 0.141,-0.88 -0.061,-2.045 -1.125,-2.502z"/>
    <path class="fil4" d="M11.763 10.765c0.414,1.049 -0.04,2.832 -1.625,3.619 -0.202,-1.272 0.091,-2.954 1.625,-3.619z"/>
    <path class="fil4" d="M8.175 10.765c-0.414,1.049 0.04,2.832 1.625,3.619 0.202,-1.273 -0.091,-2.954 -1.625,-3.619z"/>
    <path class="fil5" d="M11.721 11.265c0.288,0.724 -0.03,1.958 -1.124,2.502 -0.141,-0.88 0.061,-2.045 1.124,-2.502z"/>
    <path class="fil5" d="M8.568 11.207c-0.287,0.724 0.03,1.958 1.125,2.502 0.141,-0.879 -0.061,-2.045 -1.125,-2.502z"/>
    <path class="fil4" d="M11.763 13.598c0.414,1.05 -0.04,2.832 -1.625,3.619 -0.202,-1.273 0.091,-2.953 1.625,-3.619z"/>
    <path class="fil4" d="M8.175 13.598c-0.414,1.05 0.04,2.832 1.625,3.619 0.202,-1.273 -0.091,-2.953 -1.625,-3.619z"/>
    <path class="fil5" d="M11.721 14.099c0.288,0.724 -0.03,1.957 -1.124,2.501 -0.141,-0.879 0.061,-2.045 1.124,-2.501z"/>
    <path class="fil5" d="M8.568 14.041c-0.287,0.723 0.03,1.957 1.125,2.501 0.141,-0.879 -0.061,-2.045 -1.125,-2.501z"/>
    <path class="fil4" d="M11.763 16.432c0.414,1.049 -0.04,2.832 -1.625,3.619 -0.202,-1.272 0.091,-2.954 1.625,-3.619z"/>
    <path class="fil4" d="M8.175 16.432c-0.414,1.049 0.04,2.832 1.625,3.619 0.202,-1.272 -0.091,-2.953 -1.625,-3.619z"/>
    <path class="fil5" d="M11.721 16.933c0.288,0.723 -0.03,1.957 -1.124,2.501 -0.141,-0.879 0.061,-2.045 1.124,-2.501z"/>
    <path class="fil5" d="M8.568 16.874c-0.287,0.724 0.03,1.958 1.125,2.502 0.141,-0.879 -0.061,-2.045 -1.125,-2.502z"/>
    <path class="fil4" d="M11.763 19.266c0.414,1.049 -0.04,2.832 -1.625,3.619 -0.202,-1.273 0.091,-2.954 1.625,-3.619z"/>
    <path class="fil4" d="M8.175 19.266c-0.414,1.049 0.04,2.832 1.625,3.619 0.202,-1.273 -0.091,-2.954 -1.625,-3.619z"/>
    <path class="fil5" d="M11.721 19.767c0.288,0.723 -0.03,1.957 -1.124,2.501 -0.141,-0.879 0.061,-2.045 1.124,-2.501z"/>
    <path class="fil5" d="M8.568 19.708c-0.287,0.724 0.03,1.958 1.125,2.502 0.141,-0.879 -0.061,-2.045 -1.125,-2.502z"/>
    <path class="fil4" d="M11.763 22.1c0.414,1.049 -0.04,2.832 -1.625,3.619 -0.202,-1.273 0.091,-2.954 1.625,-3.619z"/>
    <path class="fil4" d="M8.175 22.1c-0.414,1.049 0.04,2.832 1.625,3.619 0.202,-1.273 -0.091,-2.954 -1.625,-3.619z"/>
    <path class="fil5" d="M11.721 22.6c0.288,0.724 -0.03,1.958 -1.124,2.502 -0.141,-0.879 0.061,-2.045 1.124,-2.502z"/>
    <path class="fil5" d="M8.568 22.542c-0.287,0.724 0.03,1.958 1.125,2.502 0.141,-0.879 -0.061,-2.045 -1.125,-2.502z"/>
    <path class="fil4" d="M11.763 24.934c0.414,1.049 -0.04,2.832 -1.625,3.618 -0.202,-1.272 0.091,-2.953 1.625,-3.618z"/>
    <path class="fil4" d="M8.175 24.934c-0.414,1.049 0.04,2.832 1.625,3.618 0.202,-1.272 -0.091,-2.953 -1.625,-3.618z"/>
    <path class="fil5" d="M11.721 25.434c0.288,0.724 -0.03,1.958 -1.124,2.502 -0.141,-0.879 0.061,-2.045 1.124,-2.502z"/>
    <path class="fil5" d="M8.568 25.375c-0.287,0.724 0.03,1.958 1.125,2.502 0.141,-0.879 -0.061,-2.045 -1.125,-2.502z"/>
    <path class="fil4" d="M11.763 27.767c0.414,1.05 -0.04,2.832 -1.625,3.62 -0.202,-1.273 0.091,-2.954 1.625,-3.62z"/>
    <path class="fil4" d="M8.175 27.767c-0.414,1.05 0.04,2.832 1.625,3.619 0.202,-1.272 -0.091,-2.953 -1.625,-3.619z"/>
    <path class="fil5" d="M11.721 28.268c0.288,0.723 -0.03,1.957 -1.124,2.501 -0.141,-0.879 0.061,-2.045 1.124,-2.501z"/>
    <path class="fil5" d="M8.568 28.21c-0.287,0.723 0.03,1.957 1.125,2.501 0.141,-0.879 -0.061,-2.045 -1.125,-2.501z"/>
    <path class="fil4" d="M11.763 30.601c0.414,1.049 -0.04,2.832 -1.625,3.619 -0.202,-1.273 0.091,-2.954 1.625,-3.619z"/>
    <path class="fil4" d="M8.175 30.601c-0.414,1.049 0.04,2.832 1.625,3.619 0.202,-1.273 -0.091,-2.954 -1.625,-3.619z"/>
    <path class="fil5" d="M11.721 31.101c0.288,0.724 -0.03,1.958 -1.124,2.502 -0.141,-0.879 0.061,-2.045 1.124,-2.502z"/>
    <path class="fil5" d="M8.568 31.043c-0.287,0.724 0.03,1.958 1.125,2.501 0.141,-0.879 -0.061,-2.045 -1.125,-2.501z"/>
    <path class="fil4" d="M11.763 33.434c0.414,1.05 -0.04,2.833 -1.625,3.62 -0.202,-1.273 0.091,-2.954 1.625,-3.62z"/>
    <path class="fil4" d="M8.175 33.434c-0.414,1.05 0.04,2.833 1.625,3.62 0.202,-1.273 -0.091,-2.954 -1.625,-3.62z"/>
    <path class="fil5" d="M11.721 33.935c0.288,0.724 -0.03,1.958 -1.124,2.502 -0.141,-0.88 0.061,-2.046 1.124,-2.502z"/>
    <path class="fil5" d="M8.568 33.877c-0.287,0.723 0.03,1.957 1.125,2.501 0.141,-0.879 -0.061,-2.045 -1.125,-2.501z"/>
    <path class="fil2" d="M19.794 -0.57c0.414,1.049 -0.04,2.832 -1.625,3.619 -0.202,-1.273 0.091,-2.954 1.625,-3.619z"/>
    <path class="fil2" d="M16.206 -0.57c-0.414,1.049 0.04,2.832 1.624,3.619 0.203,-1.273 -0.09,-2.953 -1.624,-3.619z"/>
    <path class="fil3" d="M19.752 -0.07c0.287,0.724 -0.03,1.958 -1.125,2.502 -0.141,-0.879 0.061,-2.045 1.125,-2.502z"/>
    <path class="fil3" d="M16.599 -0.128c-0.287,0.724 0.031,1.958 1.125,2.502 0.141,-0.88 -0.061,-2.045 -1.125,-2.502z"/>
    <path class="fil2" d="M19.795 2.264c0.413,1.049 -0.041,2.832 -1.626,3.618 -0.201,-1.272 0.091,-2.953 1.626,-3.618z"/>
    <path class="fil2" d="M16.206 2.264c-0.414,1.049 0.04,2.832 1.625,3.618 0.202,-1.272 -0.091,-2.953 -1.625,-3.618z"/>
    <path class="fil3" d="M19.753 2.764c0.287,0.724 -0.031,1.957 -1.125,2.502 -0.141,-0.879 0.061,-2.045 1.125,-2.502z"/>
    <path class="fil3" d="M16.599 2.706c-0.287,0.724 0.031,1.957 1.125,2.501 0.141,-0.879 -0.061,-2.045 -1.125,-2.501z"/>
    <path class="fil2" d="M19.795 5.097c0.413,1.05 -0.041,2.832 -1.626,3.619 -0.201,-1.272 0.091,-2.953 1.626,-3.619z"/>
    <path class="fil2" d="M16.206 5.097c-0.414,1.05 0.04,2.832 1.625,3.619 0.202,-1.272 -0.091,-2.953 -1.625,-3.619z"/>
    <path class="fil3" d="M19.753 5.597c0.287,0.725 -0.031,1.958 -1.125,2.503 -0.141,-0.88 0.061,-2.046 1.125,-2.503z"/>
    <path class="fil3" d="M16.599 5.54c-0.287,0.723 0.031,1.957 1.125,2.501 0.141,-0.879 -0.061,-2.045 -1.125,-2.501z"/>
    <path class="fil2" d="M19.795 7.931c0.413,1.05 -0.041,2.832 -1.626,3.619 -0.201,-1.273 0.091,-2.953 1.626,-3.619z"/>
    <path class="fil2" d="M16.206 7.931c-0.414,1.049 0.04,2.832 1.625,3.619 0.202,-1.273 -0.091,-2.953 -1.625,-3.619z"/>
    <path class="fil3" d="M19.753 8.432c0.287,0.724 -0.031,1.957 -1.125,2.501 -0.141,-0.879 0.061,-2.045 1.125,-2.501z"/>
    <path class="fil3" d="M16.599 8.373c-0.287,0.724 0.031,1.958 1.125,2.502 0.141,-0.88 -0.061,-2.045 -1.125,-2.502z"/>
    <path class="fil2" d="M19.795 10.765c0.413,1.049 -0.041,2.832 -1.626,3.619 -0.201,-1.272 0.091,-2.954 1.626,-3.619z"/>
    <path class="fil2" d="M16.206 10.765c-0.414,1.049 0.04,2.832 1.625,3.619 0.202,-1.273 -0.091,-2.954 -1.625,-3.619z"/>
    <path class="fil3" d="M19.753 11.265c0.287,0.724 -0.031,1.958 -1.125,2.502 -0.141,-0.88 0.061,-2.045 1.125,-2.502z"/>
    <path class="fil3" d="M16.599 11.207c-0.287,0.724 0.031,1.958 1.125,2.502 0.141,-0.879 -0.061,-2.045 -1.125,-2.502z"/>
    <path class="fil2" d="M19.795 13.598c0.413,1.05 -0.041,2.832 -1.626,3.619 -0.201,-1.273 0.091,-2.953 1.626,-3.619z"/>
    <path class="fil2" d="M16.206 13.598c-0.414,1.05 0.04,2.832 1.625,3.619 0.202,-1.273 -0.091,-2.953 -1.625,-3.619z"/>
    <path class="fil3" d="M19.753 14.099c0.287,0.724 -0.031,1.957 -1.125,2.501 -0.141,-0.879 0.061,-2.045 1.125,-2.501z"/>
    <path class="fil3" d="M16.599 14.041c-0.287,0.723 0.031,1.957 1.125,2.501 0.141,-0.879 -0.061,-2.045 -1.125,-2.501z"/>
    <path class="fil4" d="M19.795 16.432c0.413,1.049 -0.041,2.832 -1.626,3.619 -0.201,-1.272 0.091,-2.954 1.626,-3.619z"/>
    <path class="fil4" d="M16.206 16.432c-0.414,1.049 0.04,2.832 1.625,3.619 0.202,-1.272 -0.091,-2.953 -1.625,-3.619z"/>
    <path class="fil5" d="M19.753 16.933c0.287,0.723 -0.031,1.957 -1.125,2.501 -0.141,-0.879 0.061,-2.045 1.125,-2.501z"/>
    <path class="fil5" d="M16.599 16.874c-0.287,0.724 0.031,1.958 1.125,2.502 0.141,-0.879 -0.061,-2.045 -1.125,-2.502z"/>
    <path class="fil4" d="M19.795 19.266c0.413,1.049 -0.041,2.832 -1.626,3.619 -0.201,-1.273 0.091,-2.954 1.626,-3.619z"/>
    <path class="fil4" d="M16.206 19.266c-0.414,1.049 0.04,2.832 1.625,3.619 0.202,-1.273 -0.091,-2.954 -1.625,-3.619z"/>
    <path class="fil5" d="M19.753 19.767c0.287,0.723 -0.031,1.957 -1.125,2.501 -0.141,-0.879 0.061,-2.045 1.125,-2.501z"/>
    <path class="fil5" d="M16.599 19.708c-0.287,0.724 0.031,1.958 1.125,2.502 0.141,-0.879 -0.061,-2.045 -1.125,-2.502z"/>
    <path class="fil4" d="M19.795 22.1c0.413,1.049 -0.041,2.832 -1.626,3.619 -0.201,-1.273 0.091,-2.954 1.626,-3.619z"/>
    <path class="fil4" d="M16.206 22.1c-0.414,1.049 0.04,2.832 1.625,3.619 0.202,-1.273 -0.091,-2.954 -1.625,-3.619z"/>
    <path class="fil5" d="M19.753 22.6c0.287,0.724 -0.031,1.958 -1.125,2.502 -0.141,-0.879 0.061,-2.045 1.125,-2.502z"/>
    <path class="fil5" d="M16.599 22.542c-0.287,0.724 0.031,1.958 1.125,2.502 0.141,-0.879 -0.061,-2.045 -1.125,-2.502z"/>
    <path class="fil4" d="M19.795 24.934c0.413,1.049 -0.041,2.832 -1.626,3.618 -0.201,-1.272 0.091,-2.953 1.626,-3.618z"/>
    <path class="fil4" d="M16.206 24.934c-0.414,1.049 0.04,2.832 1.625,3.618 0.202,-1.272 -0.091,-2.953 -1.625,-3.618z"/>
    <path class="fil5" d="M19.753 25.434c0.287,0.724 -0.031,1.958 -1.125,2.502 -0.141,-0.879 0.061,-2.045 1.125,-2.502z"/>
    <path class="fil5" d="M16.599 25.375c-0.287,0.724 0.031,1.958 1.125,2.502 0.141,-0.879 -0.061,-2.045 -1.125,-2.502z"/>
    <path class="fil4" d="M19.795 27.767c0.413,1.05 -0.041,2.832 -1.626,3.62 -0.201,-1.273 0.091,-2.954 1.626,-3.62z"/>
    <path class="fil4" d="M16.206 27.767c-0.414,1.05 0.04,2.832 1.625,3.619 0.202,-1.272 -0.091,-2.953 -1.625,-3.619z"/>
    <path class="fil5" d="M19.753 28.268c0.287,0.723 -0.031,1.957 -1.125,2.501 -0.141,-0.879 0.061,-2.045 1.125,-2.501z"/>
    <path class="fil5" d="M16.599 28.21c-0.287,0.723 0.031,1.957 1.125,2.501 0.141,-0.879 -0.061,-2.045 -1.125,-2.501z"/>
    <path class="fil2" d="M19.795 30.601c0.413,1.049 -0.041,2.832 -1.626,3.619 -0.201,-1.273 0.091,-2.954 1.626,-3.619z"/>
    <path class="fil2" d="M16.206 30.601c-0.414,1.049 0.04,2.832 1.625,3.619 0.202,-1.273 -0.091,-2.954 -1.625,-3.619z"/>
    <path class="fil3" d="M19.753 31.101c0.287,0.724 -0.031,1.958 -1.125,2.502 -0.141,-0.879 0.061,-2.045 1.125,-2.502z"/>
    <path class="fil3" d="M16.599 31.043c-0.287,0.724 0.031,1.958 1.125,2.501 0.141,-0.879 -0.061,-2.045 -1.125,-2.501z"/>
    <path class="fil2" d="M19.795 33.434c0.413,1.05 -0.041,2.833 -1.626,3.62 -0.201,-1.273 0.091,-2.954 1.626,-3.62z"/>
    <path class="fil2" d="M16.206 33.434c-0.414,1.05 0.04,2.833 1.625,3.62 0.202,-1.273 -0.091,-2.954 -1.625,-3.62z"/>
    <path class="fil3" d="M19.753 33.935c0.287,0.724 -0.031,1.958 -1.125,2.502 -0.141,-0.88 0.061,-2.046 1.125,-2.502z"/>
    <path class="fil3" d="M16.599 33.877c-0.287,0.723 0.031,1.957 1.125,2.501 0.141,-0.879 -0.061,-2.045 -1.125,-2.501z"/>
    <path class="fil2" d="M27.824 -0.57c0.414,1.049 -0.04,2.832 -1.625,3.619 -0.202,-1.273 0.091,-2.954 1.625,-3.619z"/>
    <path class="fil2" d="M24.236 -0.57c-0.414,1.049 0.041,2.832 1.625,3.619 0.202,-1.273 -0.091,-2.953 -1.625,-3.619z"/>
    <path class="fil3" d="M27.783 -0.07c0.287,0.724 -0.03,1.958 -1.124,2.502 -0.142,-0.879 0.06,-2.045 1.124,-2.502z"/>
    <path class="fil3" d="M24.63 -0.128c-0.288,0.724 0.03,1.958 1.124,2.502 0.141,-0.88 -0.06,-2.045 -1.124,-2.502z"/>
    <path class="fil2" d="M27.824 2.264c0.414,1.049 -0.04,2.832 -1.625,3.618 -0.202,-1.272 0.091,-2.953 1.625,-3.618z"/>
    <path class="fil2" d="M24.236 2.264c-0.414,1.049 0.04,2.832 1.625,3.618 0.202,-1.272 -0.091,-2.953 -1.625,-3.618z"/>
    <path class="fil3" d="M27.783 2.764c0.287,0.724 -0.031,1.957 -1.125,2.502 -0.141,-0.879 0.061,-2.045 1.125,-2.502z"/>
    <path class="fil3" d="M24.63 2.706c-0.288,0.724 0.03,1.957 1.124,2.501 0.141,-0.879 -0.06,-2.045 -1.124,-2.501z"/>
    <path class="fil2" d="M27.824 5.097c0.414,1.05 -0.04,2.832 -1.625,3.619 -0.202,-1.272 0.091,-2.953 1.625,-3.619z"/>
    <path class="fil2" d="M24.236 5.097c-0.414,1.05 0.04,2.832 1.625,3.619 0.202,-1.272 -0.091,-2.953 -1.625,-3.619z"/>
    <path class="fil3" d="M27.783 5.597c0.287,0.725 -0.031,1.958 -1.125,2.503 -0.141,-0.88 0.061,-2.046 1.125,-2.503z"/>
    <path class="fil3" d="M24.63 5.54c-0.288,0.723 0.03,1.957 1.124,2.501 0.141,-0.879 -0.06,-2.045 -1.124,-2.501z"/>
    <path class="fil2" d="M27.824 7.931c0.414,1.05 -0.04,2.832 -1.625,3.619 -0.202,-1.273 0.091,-2.953 1.625,-3.619z"/>
    <path class="fil2" d="M24.236 7.931c-0.414,1.049 0.04,2.832 1.625,3.619 0.202,-1.273 -0.091,-2.953 -1.625,-3.619z"/>
    <path class="fil3" d="M27.783 8.432c0.287,0.724 -0.031,1.957 -1.125,2.501 -0.141,-0.879 0.061,-2.045 1.125,-2.501z"/>
    <path class="fil3" d="M24.63 8.373c-0.288,0.724 0.03,1.958 1.124,2.502 0.141,-0.88 -0.06,-2.045 -1.124,-2.502z"/>
    <path class="fil4" d="M27.824 10.765c0.414,1.049 -0.04,2.832 -1.625,3.619 -0.202,-1.272 0.091,-2.954 1.625,-3.619z"/>
    <path class="fil4" d="M24.236 10.765c-0.414,1.049 0.04,2.832 1.625,3.619 0.202,-1.273 -0.091,-2.954 -1.625,-3.619z"/>
    <path class="fil5" d="M27.783 11.265c0.287,0.724 -0.031,1.958 -1.125,2.502 -0.141,-0.88 0.061,-2.045 1.125,-2.502z"/>
    <path class="fil5" d="M24.63 11.207c-0.288,0.724 0.03,1.958 1.124,2.502 0.141,-0.879 -0.06,-2.045 -1.124,-2.502z"/>
    <path class="fil4" d="M27.824 13.598c0.414,1.05 -0.04,2.832 -1.625,3.619 -0.202,-1.273 0.091,-2.953 1.625,-3.619z"/>
    <path class="fil4" d="M24.236 13.598c-0.414,1.05 0.04,2.832 1.625,3.619 0.202,-1.272 -0.091,-2.953 -1.625,-3.619z"/>
    <path class="fil5" d="M27.783 14.099c0.287,0.724 -0.031,1.957 -1.125,2.501 -0.141,-0.879 0.061,-2.045 1.125,-2.501z"/>
    <path class="fil5" d="M24.63 14.041c-0.288,0.723 0.03,1.957 1.124,2.501 0.141,-0.879 -0.06,-2.045 -1.124,-2.501z"/>
    <path class="fil4" d="M27.824 16.432c0.414,1.049 -0.04,2.832 -1.625,3.619 -0.202,-1.272 0.091,-2.954 1.625,-3.619z"/>
    <path class="fil4" d="M24.236 16.432c-0.414,1.049 0.04,2.832 1.625,3.62 0.202,-1.273 -0.091,-2.954 -1.625,-3.62z"/>
    <path class="fil5" d="M27.783 16.933c0.287,0.723 -0.031,1.957 -1.125,2.501 -0.141,-0.879 0.061,-2.045 1.125,-2.501z"/>
    <path class="fil5" d="M24.63 16.874c-0.288,0.724 0.03,1.958 1.124,2.502 0.141,-0.879 -0.06,-2.045 -1.124,-2.502z"/>
    <path class="fil4" d="M27.824 19.266c0.414,1.049 -0.04,2.832 -1.625,3.619 -0.202,-1.273 0.091,-2.954 1.625,-3.619z"/>
    <path class="fil4" d="M24.236 19.266c-0.414,1.049 0.04,2.832 1.625,3.619 0.202,-1.273 -0.091,-2.954 -1.625,-3.619z"/>
    <path class="fil5" d="M27.783 19.767c0.287,0.723 -0.031,1.957 -1.125,2.501 -0.141,-0.879 0.061,-2.045 1.125,-2.501z"/>
    <path class="fil5" d="M24.63 19.708c-0.288,0.724 0.03,1.958 1.124,2.502 0.141,-0.879 -0.06,-2.045 -1.124,-2.502z"/>
    <path class="fil4" d="M27.824 22.1c0.414,1.049 -0.04,2.832 -1.625,3.619 -0.202,-1.273 0.091,-2.954 1.625,-3.619z"/>
    <path class="fil4" d="M24.236 22.1c-0.414,1.049 0.04,2.832 1.625,3.619 0.202,-1.273 -0.091,-2.953 -1.625,-3.619z"/>
    <path class="fil5" d="M27.783 22.6c0.287,0.724 -0.031,1.958 -1.125,2.502 -0.141,-0.879 0.061,-2.045 1.125,-2.502z"/>
    <path class="fil5" d="M24.63 22.542c-0.288,0.724 0.03,1.958 1.124,2.502 0.141,-0.879 -0.06,-2.045 -1.124,-2.502z"/>
    <path class="fil4" d="M27.824 24.934c0.414,1.049 -0.04,2.832 -1.625,3.618 -0.202,-1.272 0.091,-2.953 1.625,-3.618z"/>
    <path class="fil4" d="M24.236 24.934c-0.414,1.049 0.04,2.832 1.625,3.618 0.202,-1.272 -0.091,-2.953 -1.625,-3.618z"/>
    <path class="fil5" d="M27.783 25.434c0.287,0.724 -0.031,1.958 -1.125,2.502 -0.141,-0.879 0.061,-2.045 1.125,-2.502z"/>
    <path class="fil5" d="M24.63 25.375c-0.288,0.724 0.03,1.958 1.124,2.502 0.141,-0.879 -0.06,-2.045 -1.124,-2.502z"/>
    <path class="fil4" d="M27.824 27.767c0.414,1.05 -0.04,2.832 -1.625,3.62 -0.202,-1.273 0.091,-2.954 1.625,-3.62z"/>
    <path class="fil4" d="M24.236 27.767c-0.414,1.05 0.04,2.832 1.625,3.62 0.202,-1.273 -0.091,-2.954 -1.625,-3.62z"/>
    <path class="fil5" d="M27.783 28.268c0.287,0.723 -0.031,1.957 -1.125,2.501 -0.141,-0.879 0.061,-2.045 1.125,-2.501z"/>
    <path class="fil5" d="M24.63 28.21c-0.288,0.723 0.03,1.957 1.124,2.501 0.141,-0.879 -0.06,-2.045 -1.124,-2.501z"/>
    <path class="fil4" d="M27.824 30.601c0.414,1.049 -0.04,2.832 -1.625,3.619 -0.202,-1.273 0.091,-2.954 1.625,-3.619z"/>
    <path class="fil4" d="M24.236 30.601c-0.414,1.049 0.04,2.832 1.625,3.619 0.202,-1.273 -0.091,-2.953 -1.625,-3.619z"/>
    <path class="fil5" d="M27.783 31.101c0.287,0.724 -0.031,1.958 -1.125,2.502 -0.141,-0.879 0.061,-2.045 1.125,-2.502z"/>
    <path class="fil5" d="M24.63 31.043c-0.288,0.724 0.03,1.958 1.124,2.501 0.141,-0.879 -0.06,-2.045 -1.124,-2.501z"/>
    <path class="fil4" d="M27.824 33.434c0.414,1.05 -0.04,2.833 -1.625,3.62 -0.202,-1.273 0.091,-2.954 1.625,-3.62z"/>
    <path class="fil4" d="M24.236 33.435c-0.414,1.049 0.04,2.832 1.625,3.619 0.202,-1.273 -0.091,-2.954 -1.625,-3.619z"/>
    <path class="fil5" d="M27.783 33.935c0.287,0.724 -0.031,1.958 -1.125,2.502 -0.141,-0.88 0.061,-2.046 1.125,-2.502z"/>
    <path class="fil5" d="M24.63 33.877c-0.288,0.723 0.03,1.957 1.124,2.501 0.141,-0.879 -0.06,-2.045 -1.124,-2.501z"/>
    <path class="fil2" d="M35.855 -0.57c0.414,1.049 -0.04,2.832 -1.625,3.619 -0.201,-1.273 0.091,-2.954 1.625,-3.619z"/>
    <path class="fil2" d="M32.267 -0.57c-0.414,1.049 0.04,2.832 1.625,3.619 0.202,-1.273 -0.091,-2.953 -1.625,-3.619z"/>
    <path class="fil3" d="M35.814 -0.07c0.287,0.724 -0.031,1.958 -1.125,2.502 -0.141,-0.879 0.061,-2.045 1.125,-2.502z"/>
    <path class="fil3" d="M32.661 -0.128c-0.288,0.724 0.03,1.958 1.124,2.502 0.141,-0.88 -0.06,-2.045 -1.124,-2.502z"/>
    <path class="fil2" d="M35.855 2.264c0.414,1.049 -0.04,2.832 -1.625,3.618 -0.202,-1.272 0.091,-2.953 1.625,-3.618z"/>
    <path class="fil2" d="M32.266 2.264c-0.413,1.049 0.041,2.832 1.625,3.618 0.202,-1.272 -0.09,-2.953 -1.625,-3.618z"/>
    <path class="fil3" d="M35.813 2.764c0.288,0.724 -0.03,1.957 -1.124,2.502 -0.141,-0.879 0.06,-2.045 1.124,-2.502z"/>
    <path class="fil3" d="M32.66 2.706c-0.287,0.724 0.031,1.957 1.125,2.501 0.141,-0.879 -0.061,-2.045 -1.125,-2.501z"/>
    <path class="fil2" d="M35.855 5.097c0.414,1.05 -0.04,2.832 -1.625,3.619 -0.202,-1.272 0.091,-2.953 1.625,-3.619z"/>
    <path class="fil2" d="M32.266 5.097c-0.413,1.05 0.041,2.832 1.625,3.619 0.202,-1.272 -0.09,-2.953 -1.625,-3.619z"/>
    <path class="fil3" d="M35.813 5.597c0.288,0.725 -0.03,1.958 -1.124,2.503 -0.141,-0.88 0.06,-2.046 1.124,-2.503z"/>
    <path class="fil3" d="M32.66 5.54c-0.287,0.723 0.031,1.957 1.125,2.501 0.141,-0.879 -0.061,-2.045 -1.125,-2.501z"/>
    <path class="fil2" d="M35.855 7.931c0.414,1.05 -0.04,2.832 -1.625,3.619 -0.202,-1.273 0.091,-2.953 1.625,-3.619z"/>
    <path class="fil2" d="M32.266 7.931c-0.413,1.049 0.041,2.832 1.625,3.619 0.202,-1.273 -0.09,-2.953 -1.625,-3.619z"/>
    <path class="fil3" d="M35.813 8.432c0.288,0.724 -0.03,1.957 -1.124,2.501 -0.141,-0.879 0.06,-2.045 1.124,-2.501z"/>
    <path class="fil3" d="M32.66 8.373c-0.287,0.724 0.031,1.958 1.125,2.502 0.141,-0.88 -0.061,-2.045 -1.125,-2.502z"/>
    <path class="fil4" d="M35.855 10.765c0.414,1.049 -0.04,2.832 -1.625,3.619 -0.202,-1.272 0.091,-2.954 1.625,-3.619z"/>
    <path class="fil4" d="M32.266 10.765c-0.413,1.049 0.041,2.832 1.625,3.619 0.202,-1.273 -0.09,-2.954 -1.625,-3.619z"/>
    <path class="fil5" d="M35.813 11.265c0.288,0.724 -0.03,1.958 -1.124,2.502 -0.141,-0.88 0.06,-2.045 1.124,-2.502z"/>
    <path class="fil5" d="M32.66 11.207c-0.287,0.724 0.031,1.958 1.125,2.502 0.141,-0.879 -0.061,-2.045 -1.125,-2.502z"/>
    <path class="fil4" d="M35.855 13.598c0.414,1.05 -0.04,2.832 -1.625,3.619 -0.202,-1.273 0.091,-2.953 1.625,-3.619z"/>
    <path class="fil4" d="M32.266 13.598c-0.413,1.05 0.041,2.832 1.625,3.619 0.202,-1.273 -0.09,-2.953 -1.625,-3.619z"/>
    <path class="fil5" d="M35.813 14.099c0.288,0.724 -0.03,1.957 -1.124,2.501 -0.141,-0.879 0.06,-2.045 1.124,-2.501z"/>
    <path class="fil5" d="M32.66 14.041c-0.287,0.723 0.031,1.957 1.125,2.501 0.141,-0.879 -0.061,-2.045 -1.125,-2.501z"/>
    <path class="fil4" d="M35.855 16.432c0.414,1.049 -0.04,2.832 -1.625,3.619 -0.202,-1.272 0.091,-2.954 1.625,-3.619z"/>
    <path class="fil4" d="M32.266 16.432c-0.413,1.049 0.041,2.832 1.625,3.619 0.202,-1.272 -0.09,-2.953 -1.625,-3.619z"/>
    <path class="fil5" d="M35.813 16.933c0.288,0.723 -0.03,1.957 -1.124,2.501 -0.141,-0.879 0.06,-2.045 1.124,-2.501z"/>
    <path class="fil5" d="M32.66 16.874c-0.287,0.724 0.031,1.958 1.125,2.502 0.141,-0.879 -0.061,-2.045 -1.125,-2.502z"/>
    <path class="fil4" d="M35.855 19.266c0.414,1.049 -0.04,2.832 -1.625,3.619 -0.202,-1.273 0.091,-2.954 1.625,-3.619z"/>
    <path class="fil4" d="M32.266 19.266c-0.413,1.049 0.041,2.832 1.625,3.619 0.202,-1.273 -0.09,-2.954 -1.625,-3.619z"/>
    <path class="fil5" d="M35.813 19.767c0.288,0.723 -0.03,1.957 -1.124,2.501 -0.141,-0.879 0.06,-2.045 1.124,-2.501z"/>
    <path class="fil5" d="M32.66 19.708c-0.287,0.724 0.031,1.958 1.125,2.502 0.141,-0.879 -0.061,-2.045 -1.125,-2.502z"/>
    <path class="fil4" d="M35.855 22.1c0.414,1.049 -0.04,2.832 -1.625,3.619 -0.202,-1.273 0.091,-2.954 1.625,-3.619z"/>
    <path class="fil4" d="M32.266 22.1c-0.413,1.049 0.041,2.832 1.625,3.619 0.202,-1.273 -0.09,-2.954 -1.625,-3.619z"/>
    <path class="fil5" d="M35.813 22.6c0.288,0.724 -0.03,1.958 -1.124,2.502 -0.141,-0.879 0.06,-2.045 1.124,-2.502z"/>
    <path class="fil5" d="M32.66 22.542c-0.287,0.724 0.031,1.958 1.125,2.502 0.141,-0.879 -0.061,-2.045 -1.125,-2.502z"/>
    <path class="fil4" d="M35.855 24.934c0.414,1.049 -0.04,2.832 -1.625,3.618 -0.202,-1.272 0.091,-2.953 1.625,-3.618z"/>
    <path class="fil4" d="M32.266 24.934c-0.413,1.049 0.041,2.832 1.625,3.618 0.202,-1.272 -0.09,-2.953 -1.625,-3.618z"/>
    <path class="fil5" d="M35.813 25.434c0.288,0.724 -0.03,1.958 -1.124,2.502 -0.141,-0.879 0.06,-2.045 1.124,-2.502z"/>
    <path class="fil5" d="M32.66 25.375c-0.287,0.724 0.031,1.958 1.125,2.502 0.141,-0.879 -0.061,-2.045 -1.125,-2.502z"/>
    <path class="fil4" d="M35.855 27.767c0.414,1.05 -0.04,2.832 -1.625,3.62 -0.202,-1.273 0.091,-2.954 1.625,-3.62z"/>
    <path class="fil4" d="M32.266 27.767c-0.413,1.05 0.041,2.832 1.625,3.619 0.202,-1.272 -0.09,-2.953 -1.625,-3.619z"/>
    <path class="fil5" d="M35.813 28.268c0.288,0.723 -0.03,1.957 -1.124,2.501 -0.141,-0.879 0.06,-2.045 1.124,-2.501z"/>
    <path class="fil5" d="M32.66 28.21c-0.287,0.723 0.031,1.957 1.125,2.501 0.141,-0.879 -0.061,-2.045 -1.125,-2.501z"/>
    <path class="fil4" d="M35.855 30.601c0.414,1.049 -0.04,2.832 -1.625,3.619 -0.202,-1.273 0.091,-2.954 1.625,-3.619z"/>
    <path class="fil4" d="M32.266 30.601c-0.413,1.049 0.041,2.832 1.625,3.619 0.202,-1.273 -0.09,-2.954 -1.625,-3.619z"/>
    <path class="fil5" d="M35.813 31.101c0.288,0.724 -0.03,1.958 -1.124,2.502 -0.141,-0.879 0.06,-2.045 1.124,-2.502z"/>
    <path class="fil5" d="M32.66 31.043c-0.287,0.724 0.031,1.958 1.125,2.501 0.141,-0.879 -0.061,-2.045 -1.125,-2.501z"/>
    <path class="fil4" d="M35.855 33.434c0.414,1.05 -0.04,2.833 -1.625,3.62 -0.202,-1.273 0.091,-2.954 1.625,-3.62z"/>
    <path class="fil4" d="M32.266 33.434c-0.413,1.05 0.041,2.833 1.625,3.62 0.202,-1.273 -0.09,-2.954 -1.625,-3.62z"/>
    <path class="fil5" d="M35.813 33.935c0.288,0.724 -0.03,1.958 -1.124,2.502 -0.141,-0.88 0.06,-2.046 1.124,-2.502z"/>
    <path class="fil5" d="M32.66 33.877c-0.287,0.723 0.031,1.957 1.125,2.501 0.141,-0.879 -0.061,-2.045 -1.125,-2.501z"/>
   </g>
  </g>
  <path class="fil7" d="M3.6 0l28.8 0c1.988,0 3.6,1.612 3.6,3.6l0 28.8c0,1.987 -1.612,3.599 -3.6,3.599l-28.8 0.001c-1.988,-0.001 -3.6,-1.613 -3.6,-3.601l0 -28.799c0,-1.988 1.612,-3.6 3.6,-3.6z"/>
  <path class="fil8" d="M43.2 9.764l13.846 0 0 3.033 -5.111 0 0 13.43 -3.625 0 0 -13.43 -5.11 0 0 -3.033zm80.375 0.009l3.625 0 0 16.464 -3.625 0 0 -16.464zm-8.504 0c1.33,0 2.449,0.241 3.336,0.713 0.887,0.481 1.552,1.117 1.986,1.906 0.443,0.79 0.655,1.656 0.655,2.6 0,0.645 -0.115,1.271 -0.337,1.896 -0.231,0.617 -0.578,1.185 -1.061,1.695 -0.472,0.5 -1.079,0.905 -1.832,1.203l3.568 6.451 -4.03 0 -3.134 -5.998 -2.709 0 0 5.998 -3.626 0 0 -16.464 7.184 0zm2.285 5.219c0,-0.674 -0.203,-1.204 -0.598,-1.598 -0.405,-0.395 -1.022,-0.588 -1.871,-0.588l-3.365 0 0 4.4 3.365 0c0.569,0 1.032,-0.087 1.389,-0.26 0.357,-0.173 0.636,-0.423 0.81,-0.761 0.183,-0.337 0.27,-0.731 0.27,-1.184l0 -0.009zm-15.234 0.096c-0.454,-0.828 -1.032,-1.434 -1.736,-1.82 -0.694,-0.385 -1.475,-0.577 -2.343,-0.577 -0.906,0 -1.736,0.231 -2.459,0.693 -0.732,0.462 -1.301,1.097 -1.716,1.896 -0.415,0.8 -0.627,1.714 -0.627,2.725 0,1.011 0.203,1.993 0.617,2.782 0.405,0.79 0.984,1.415 1.717,1.858 0.742,0.443 1.6,0.674 2.593,0.674 0.617,0 1.177,-0.105 1.697,-0.317 0.521,-0.212 0.984,-0.51 1.389,-0.886 0.405,-0.375 0.752,-0.809 1.031,-1.29l0 -0.751 -4.242 0 0 -2.869 7.656 0 0 4.284c-0.376,0.867 -0.926,1.666 -1.649,2.407 -0.723,0.741 -1.591,1.348 -2.613,1.81 -1.022,0.462 -2.179,0.693 -3.481,0.693 -1.224,0 -2.343,-0.202 -3.365,-0.616 -1.022,-0.414 -1.909,-0.991 -2.661,-1.742 -0.752,-0.751 -1.34,-1.647 -1.755,-2.667 -0.415,-1.031 -0.627,-2.157 -0.627,-3.38 0,-1.222 0.212,-2.348 0.627,-3.369 0.415,-1.03 0.993,-1.916 1.745,-2.667 0.743,-0.751 1.63,-1.329 2.652,-1.743 1.022,-0.404 2.141,-0.616 3.365,-0.616 1.147,0 2.227,0.183 3.24,0.539 1.012,0.357 1.899,0.886 2.651,1.56 0.752,0.684 1.311,1.512 1.668,2.484l-3.365 0.895 -0.009 0.01zm-14.743 -5.315l0 16.464 -3.674 0 -6.691 -10.494 0 10.494 -3.625 0 0 -16.464 3.673 0 6.663 10.543 0 -10.543 3.654 0zm-16.179 3.033l-8.34 0 0 3.765 6.238 0 0 2.869 -6.238 0 0 3.764 8.34 0 0 3.033 -11.966 0 0 -16.464 11.966 0 0 3.033z"/>
  <path class="fil8" d="M149.324 9.764l0 16.482 -1.897 0 -8.758 -13.465 0 13.465 -1.869 0 0 -16.482 1.897 0 8.759 13.446 0 -13.446 1.868 0zm14.268 1.648l-8.873 0 0 5.629 6.669 0 0 1.648 -6.669 0 0 5.909 8.873 0 0 1.648 -10.742 0 0 -16.482 10.742 0 0 1.648zm8.394 14.834l-2.06 0 -4.609 -16.482 1.993 0 3.651 14.198 4.025 -14.198 2.079 0 4.005 14.179 3.68 -14.179 1.964 0 -4.609 16.482 -2.06 0 -4.024 -13.658 -4.025 13.658 -0.01 0zm17.852 -4.192c0.096,0.423 0.297,0.848 0.594,1.262 0.307,0.415 0.729,0.762 1.265,1.031 0.537,0.28 1.227,0.415 2.07,0.415 1.198,0 2.089,-0.28 2.673,-0.849 0.575,-0.568 0.863,-1.233 0.863,-2.004 0,-0.617 -0.163,-1.118 -0.489,-1.504 -0.326,-0.395 -0.776,-0.723 -1.332,-0.973 -0.565,-0.261 -1.198,-0.492 -1.897,-0.694 -0.623,-0.174 -1.246,-0.366 -1.859,-0.578 -0.613,-0.213 -1.179,-0.482 -1.677,-0.801 -0.498,-0.318 -0.901,-0.742 -1.198,-1.262 -0.297,-0.521 -0.441,-1.166 -0.441,-1.928 0,-0.925 0.221,-1.735 0.652,-2.41 0.441,-0.684 1.054,-1.214 1.849,-1.59 0.796,-0.376 1.725,-0.569 2.789,-0.569 0.92,0 1.725,0.135 2.415,0.405 0.69,0.27 1.264,0.636 1.724,1.118 0.46,0.482 0.796,1.032 1.016,1.658l-1.658 0.636c-0.105,-0.356 -0.316,-0.713 -0.632,-1.05 -0.316,-0.338 -0.719,-0.617 -1.217,-0.839 -0.498,-0.222 -1.073,-0.328 -1.706,-0.328 -0.632,0 -1.188,0.106 -1.696,0.328 -0.508,0.222 -0.91,0.53 -1.207,0.944 -0.297,0.405 -0.441,0.907 -0.441,1.485 0,0.627 0.173,1.128 0.527,1.494 0.355,0.366 0.815,0.665 1.409,0.896 0.584,0.232 1.226,0.444 1.935,0.646 0.642,0.202 1.265,0.424 1.859,0.656 0.604,0.231 1.141,0.53 1.62,0.867 0.479,0.347 0.853,0.781 1.13,1.292 0.278,0.52 0.422,1.156 0.422,1.908 0,0.829 -0.192,1.61 -0.584,2.323 -0.393,0.713 -0.978,1.291 -1.764,1.715 -0.785,0.434 -1.801,0.646 -3.028,0.646 -1.025,0 -1.935,-0.164 -2.711,-0.481 -0.777,-0.319 -1.419,-0.762 -1.917,-1.311 -0.498,-0.55 -0.843,-1.176 -1.035,-1.88l1.706 -0.684 -0.029 0.01z"/>
 </g>
</svg>
