<svg xmlns="http://www.w3.org/2000/svg" width="384" height="384" viewBox="0 0 384 384" style="shape-rendering:geometricPrecision; text-rendering:geometricPrecision; image-rendering:optimizeQuality; fill-rule:evenodd; clip-rule:evenodd">
  <defs>
    <style type="text/css">
      .fil1 {fill:#77B900;fill-rule:nonzero}
      .fil0 {fill:#E6E6E6;fill-rule:nonzero}
    </style>
  </defs>
  <g>
    <path class="fil0" d="M305.292 260.124l9.322 25.503 -18.932 0 9.61 -25.503zm-9.984 -9.929l-21.482 54.429 15.17 0 3.398 -9.618 25.423 0 3.215 9.618 16.468 0 -21.642 -54.436 -20.55 0.007zm-43.128 54.45l15.39 0 0 -54.466 -15.393 -0.004 0.003 54.47zm-106.842 -54.47l-12.84 43.168 -12.3 -43.165 -16.606 -0.004 17.567 54.47 22.172 0.001 17.709 -54.47 -15.702 0zm62.209 11.86l6.615 0c9.596,0 15.803,4.308 15.803,15.489 0,11.183 -6.207,15.492 -15.803,15.492l-6.615 0 0 -30.981zm-15.261 -11.86l0 54.47 24.951 0c13.293,0 17.634,-2.21 22.328,-7.167 3.315,-3.481 5.459,-11.119 5.459,-19.469 0,-7.659 -1.814,-14.486 -4.978,-18.739 -5.701,-7.608 -13.913,-9.095 -26.168,-9.095l-21.592 0zm-145.786 -0.076l0 54.545 15.52 0.001 0 -41.417 12.026 0.004c3.982,0 6.82,0.992 8.738,3.041 2.432,2.59 3.425,6.771 3.425,14.42l0 23.952 15.039 0 0 -30.137c0,-21.509 -13.709,-24.409 -27.123,-24.409l-27.625 0zm121.017 0.076l0.006 54.47 15.383 0 0 -54.47 -15.389 0z"/>
    <path class="fil1" d="M93.645 141.72c0,0 19.794,-29.205 59.317,-32.226l0 -10.596c-43.777,3.515 -81.686,40.592 -81.686,40.592 0,0 21.471,62.069 81.686,67.752l0 -11.262c-44.189,-5.559 -59.317,-54.26 -59.317,-54.26zm59.317 31.862l0 10.314c-33.397,-5.954 -42.667,-40.67 -42.667,-40.67 0,0 16.036,-17.763 42.667,-20.644l0 11.318c-0.021,0 -0.034,-0.007 -0.051,-0.007 -13.978,-1.677 -24.897,11.381 -24.897,11.381 0,0 6.12,21.981 24.948,28.308l0 0zm0 -94.227l0 19.543c1.285,-0.099 2.57,-0.182 3.862,-0.226 49.77,-1.678 82.197,40.818 82.197,40.818 0,0 -37.245,45.289 -76.047,45.289 -3.556,0 -6.886,-0.33 -10.013,-0.884l0 12.085c2.674,0.339 5.447,0.539 8.34,0.539 36.108,0 62.22,-18.441 87.505,-40.266 4.192,3.357 21.355,11.525 24.883,15.101 -24.041,20.128 -80.07,36.353 -111.835,36.353 -3.062,0 -6.003,-0.186 -8.893,-0.465l0 16.981 137.245 0 0 -144.868 -137.244 0zm0 43.227l0 -13.088c1.271,-0.088 2.553,-0.158 3.862,-0.199 35.789,-1.124 59.269,30.755 59.269,30.755 0,0 -25.361,35.222 -52.552,35.222 -3.913,0 -7.422,-0.629 -10.58,-1.69l0 -39.682c13.932,1.683 16.737,7.838 25.113,21.801l18.63 -15.708c0,0 -13.599,-17.836 -36.525,-17.836 -2.491,-0.001 -4.876,0.174 -7.217,0.425z"/>
  </g>
</svg>