<?xml version="1.0" encoding="UTF-8"?>
<!DOCTYPE svg PUBLIC "-//W3C//DTD SVG 1.1//EN" "http://www.w3.org/Graphics/SVG/1.1/DTD/svg11.dtd">
<svg xmlns="http://www.w3.org/2000/svg" version="1.1" width="120px" height="120px" style="shape-rendering:geometricPrecision; text-rendering:geometricPrecision; image-rendering:optimizeQuality; fill-rule:evenodd; clip-rule:evenodd" xmlns:xlink="http://www.w3.org/1999/xlink">
<g><path style="opacity:0.985" fill="#0e9aa7" d="M 119.5,45.5 C 119.5,62.5 119.5,79.5 119.5,96.5C 118.127,104.043 113.794,109.209 106.5,112C 75.1667,112.667 43.8333,112.667 12.5,112C 5.20626,109.209 0.87293,104.043 -0.5,96.5C -0.5,79.5 -0.5,62.5 -0.5,45.5C 0.867164,37.9772 5.2005,32.8105 12.5,30C 23.1667,29.6667 33.8333,29.3333 44.5,29C 39.6667,24.1667 34.8333,19.3333 30,14.5C 28.8333,7.66667 31.6667,4.83333 38.5,6C 45.3477,13.0147 52.3477,19.848 59.5,26.5C 66.6523,19.848 73.6523,13.0147 80.5,6C 87.3333,4.83333 90.1667,7.66667 89,14.5C 84.1667,19.3333 79.3333,24.1667 74.5,29C 85.1667,29.3333 95.8333,29.6667 106.5,30C 113.8,32.8105 118.133,37.9772 119.5,45.5 Z"/></g>
<g><path style="opacity:1" fill="#bbe3e7" d="M 53.5,58.5 C 53.5,56.1667 53.5,53.8333 53.5,51.5C 43.8333,51.5 34.1667,51.5 24.5,51.5C 24.5,53.8333 24.5,56.1667 24.5,58.5C 23.5269,56.0521 23.1936,53.3854 23.5,50.5C 33.8333,50.5 44.1667,50.5 54.5,50.5C 54.8064,53.3854 54.4731,56.0521 53.5,58.5 Z"/></g>
<g><path style="opacity:1" fill="#fcfefe" d="M 53.5,58.5 C 50.1667,58.5 46.8333,58.5 43.5,58.5C 43.5,70.1667 43.5,81.8333 43.5,93.5C 40.5,93.5 37.5,93.5 34.5,93.5C 34.5,81.8333 34.5,70.1667 34.5,58.5C 31.1667,58.5 27.8333,58.5 24.5,58.5C 24.5,56.1667 24.5,53.8333 24.5,51.5C 34.1667,51.5 43.8333,51.5 53.5,51.5C 53.5,53.8333 53.5,56.1667 53.5,58.5 Z"/></g>
<g><path style="opacity:1" fill="#f7fbfc" d="M 57.5,50.5 C 61.226,50.1774 64.8927,50.5108 68.5,51.5C 71.1935,60.2747 74.1935,68.9414 77.5,77.5C 80.3753,68.7056 83.542,60.0389 87,51.5C 90.0567,50.5495 93.2234,50.2161 96.5,50.5C 91.2747,64.8465 86.2747,79.1798 81.5,93.5C 78.5525,93.7771 75.7191,93.4438 73,92.5C 68.2981,78.2171 63.1314,64.2171 57.5,50.5 Z"/></g>
</svg>
