<?xml version="1.0" encoding="utf-8"?>
<!-- Generator: Adobe Illustrator 26.5.0, SVG Export Plug-In . SVG Version: 6.00 Build 0)  -->
<svg version="1.1" id="Layer_1" xmlns="http://www.w3.org/2000/svg" xmlns:xlink="http://www.w3.org/1999/xlink" x="0px" y="0px"
	 width="20px" height="20px" viewBox="0 0 20 20" style="enable-background:new 0 0 20 20;" xml:space="preserve">
<path d="M10,2c-4.4,0-8,3.6-8,8s3.6,8,8,8s8-3.6,8-8S14.4,2,10,2z M13.2,13.2c-0.4,0.4-1,0.4-1.4,0l-2.3-2.3c0,0-0.1-0.1-0.1-0.1
	C9.2,10.6,9,10.3,9,10V6c0-0.6,0.4-1,1-1s1,0.4,1,1v3.6l2.2,2.2C13.6,12.2,13.6,12.9,13.2,13.2z"/>
</svg>
