<?xml version="1.0" encoding="utf-8"?>
<!-- Generator: Adobe Illustrator 26.5.0, SVG Export Plug-In . SVG Version: 6.00 Build 0)  -->
<svg version="1.1" id="Layer_1" xmlns="http://www.w3.org/2000/svg" xmlns:xlink="http://www.w3.org/1999/xlink" x="0px" y="0px"
	 width="20px" height="20px" viewBox="0 0 20 20" style="enable-background:new 0 0 20 20;" xml:space="preserve">
<path d="M10,3c3.9,0,7,3.1,7,7s-3.1,7-7,7s-7-3.1-7-7S6.1,3,10,3 M10,2c-4.4,0-8,3.6-8,8s3.6,8,8,8s8-3.6,8-8S14.4,2,10,2L10,2z"/>
<path d="M13.2,11.8L11,9.6V6c0-0.6-0.4-1-1-1S9,5.4,9,6v4c0,0.3,0.2,0.6,0.4,0.8c0,0,0,0.1,0.1,0.1l2.3,2.3c0.4,0.4,1,0.4,1.4,0
	C13.6,12.9,13.6,12.2,13.2,11.8z"/>
</svg>
