<?xml version="1.0" encoding="utf-8"?>
<!-- Generator: Adobe Illustrator 26.5.0, SVG Export Plug-In . SVG Version: 6.00 Build 0)  -->
<svg version="1.1" id="Layer_1" xmlns="http://www.w3.org/2000/svg" xmlns:xlink="http://www.w3.org/1999/xlink" x="0px" y="0px"
	 width="20px" height="20px" viewBox="0 0 20 20" style="enable-background:new 0 0 20 20;" xml:space="preserve">
<path d="M5.7,12.1L2.1,8.7C2,8.6,2,8.5,2,8.3C2,8.2,2,8.1,2.1,8c0.1-0.1,0.2-0.2,0.3-0.2l4.9-0.7l2.2-4.5c0-0.1,0.1-0.2,0.2-0.2
	c0.1,0,0.2-0.1,0.3-0.1s0.2,0,0.3,0.1c0.1,0,0.1,0.1,0.2,0.2l2.2,4.5l4.9,0.7c0.1,0,0.2,0.1,0.3,0.2C18,8.1,18,8.2,18,8.3
	c0,0.1,0,0.3-0.1,0.4l-3.6,3.5l0.8,4.9c0,0,0,0,0,0.1c0,0.1,0,0.3-0.1,0.4c-0.1,0.1-0.2,0.1-0.4,0.1c-0.1,0-0.2,0-0.2-0.1L10,15.3
	l-4.4,2.3c-0.1,0-0.1,0.1-0.2,0.1c-0.1,0-0.3,0-0.4-0.1c-0.1-0.1-0.1-0.2-0.1-0.4c0,0,0-0.1,0-0.1L5.7,12.1z M6,16.2l4-2.1l4,2.1
	c-0.1-0.7-0.2-1.5-0.4-2.2s-0.3-1.5-0.4-2.2l3.2-3.1L12,8c-0.3-0.7-0.7-1.3-1-2s-0.7-1.3-1-2C9.7,4.7,9.3,5.3,9,6S8.4,7.3,8,8
	L3.6,8.7l3.2,3.1c-0.1,0.7-0.3,1.5-0.4,2.2S6.2,15.5,6,16.2z"/>
</svg>
