<?xml version="1.0" encoding="utf-8"?>
<!-- Generator: Adobe Illustrator 26.5.0, SVG Export Plug-In . SVG Version: 6.00 Build 0)  -->
<svg version="1.1" id="Layer_1" xmlns="http://www.w3.org/2000/svg" xmlns:xlink="http://www.w3.org/1999/xlink" x="0px" y="0px"
	 width="20px" height="20px" viewBox="0 0 20 20" style="enable-background:new 0 0 20 20;" xml:space="preserve">
<path d="M5.7,12.1L2.1,8.7C2,8.6,2,8.5,2,8.3C2,8.2,2,8.1,2.1,8c0.1-0.1,0.2-0.2,0.3-0.2l4.9-0.7l2.2-4.5c0-0.1,0.1-0.2,0.2-0.2
	c0.1,0,0.2-0.1,0.3-0.1s0.2,0,0.3,0.1c0.1,0,0.1,0.1,0.2,0.2l2.2,4.5l4.9,0.7c0.1,0,0.2,0.1,0.3,0.2C18,8.1,18,8.2,18,8.3
	c0,0.1,0,0.3-0.1,0.4l-3.6,3.5l0.8,4.9c0,0,0,0,0,0.1c0,0.1,0,0.3-0.1,0.4c-0.1,0.1-0.2,0.1-0.4,0.1c-0.1,0-0.2,0-0.2-0.1L10,15.3
	l-4.4,2.3c-0.1,0-0.1,0.1-0.2,0.1c-0.1,0-0.3,0-0.4-0.1c-0.1-0.1-0.1-0.2-0.1-0.4c0,0,0-0.1,0-0.1L5.7,12.1z"/>
</svg>
