<svg xmlns="http://www.w3.org/2000/svg" xml:space="preserve" width="183" height="38" style="shape-rendering:geometricPrecision;text-rendering:geometricPrecision;image-rendering:optimizeQuality;fill-rule:evenodd;clip-rule:evenodd" viewBox="0 0 183 37.999"><path d="m8.747 33-.23-11.681 9.983 5.795 8.72-5.068L27.28 33H8.747zM36 16.927V33h-4.731V19.696c1.574-.917 3.147-1.843 4.731-2.769zm-35-4.76 17.5 10.167L36 12.167 18.5 2 1 12.167z" style="fill:#d75300"/><path d="M42 11.146h14.34v3.072h-5.293v13.606h-3.754V14.218H42v-3.072zm106.28 1.537h-9.318v5.749h7.004v1.683h-7.004v6.034h9.318v1.684H137V11h11.28v1.683zM157.165 11c1.902 0 3.532.344 4.881 1.023 1.348.68 2.395 1.654 3.119 2.924.725 1.27 1.097 2.776 1.097 4.518 0 1.743-.362 3.219-1.097 4.469-.734 1.251-1.771 2.215-3.119 2.884-1.349.67-2.979 1.015-4.881 1.015h-5.675V11h5.675zm0 15.149c2.345 0 4.116-.581 5.314-1.752 1.197-1.171 1.791-2.815 1.791-4.932 0-2.116-.594-3.799-1.791-4.99-1.198-1.191-2.969-1.792-5.314-1.792h-3.713v13.466h3.713zM168.828 11h1.962v10.631c0 1.102.202 2.008.614 2.697a3.761 3.761 0 0 0 1.66 1.516c.695.325 1.49.482 2.375.482.886 0 1.65-.157 2.335-.482a3.791 3.791 0 0 0 1.65-1.516c.413-.689.614-1.585.614-2.697V11H182v10.601c0 1.103-.181 2.058-.533 2.865-.353.797-.836 1.467-1.459 1.988a6.302 6.302 0 0 1-2.114 1.162 7.945 7.945 0 0 1-2.485.384c-1.177 0-2.274-.227-3.27-.689a5.594 5.594 0 0 1-2.405-2.107c-.604-.945-.906-2.146-.906-3.603V11zm-43.583.156H129v16.678h-3.755V11.156zm-8.808 0c1.378 0 2.537.243 3.456.731.918.488 1.607 1.132 2.057 1.931.459.8.679 1.678.679 2.634 0 .653-.12 1.287-.35 1.921a5.054 5.054 0 0 1-1.098 1.717c-.49.507-1.119.917-1.898 1.219l3.695 6.534h-4.174l-3.245-6.075h-2.807v6.075h-3.754V11.166h7.439v-.01zm2.367 5.286c0-.683-.21-1.219-.619-1.619-.419-.4-1.059-.595-1.937-.595h-3.486v4.457h3.486c.589 0 1.068-.087 1.438-.263.369-.176.659-.429.838-.77.19-.342.28-.742.28-1.2v-.01zm-15.778.098c-.47-.839-1.069-1.454-1.798-1.844-.719-.39-1.528-.585-2.426-.585-.939 0-1.798.234-2.547.702a4.902 4.902 0 0 0-1.777 1.922c-.43.809-.649 1.726-.649 2.76 0 1.034.209 2.019.639 2.819a4.672 4.672 0 0 0 1.777 1.882c.769.448 1.658.683 2.687.683.638 0 1.218-.108 1.757-.322a4.556 4.556 0 0 0 1.438-.897c.419-.381.779-.82 1.069-1.307v-.761h-4.394v-2.907h7.929v4.341c-.39.877-.959 1.687-1.708 2.438a8.828 8.828 0 0 1-2.706 1.834c-1.059.468-2.257.702-3.605.702-1.268 0-2.427-.205-3.485-.615a8.053 8.053 0 0 1-2.756-1.765 8.067 8.067 0 0 1-1.818-2.702c-.429-1.043-.649-2.175-.649-3.423 0-1.249.22-2.38.649-3.414a7.936 7.936 0 0 1 1.807-2.701c.769-.761 1.688-1.346 2.747-1.766 1.058-.41 2.217-.614 3.485-.614 1.188 0 2.307.185 3.355.546a8.161 8.161 0 0 1 2.746 1.58 6.258 6.258 0 0 1 1.728 2.516l-3.485.907-.01-.009zm-15.269-5.384v16.678h-3.805l-6.93-10.631v10.631h-3.755V11.156h3.805l6.9 10.68v-10.68h3.785zM71 14.228h-8.638v3.814h6.461v2.906h-6.461v3.814H71v3.072H58.607V11.156H71v3.072z" style="fill:#d2d3d5"/></svg>