<?xml version="1.0" encoding="UTF-8"?>
<!DOCTYPE svg PUBLIC "-//W3C//DTD SVG 1.1//EN" "http://www.w3.org/Graphics/SVG/1.1/DTD/svg11.dtd">
<!-- Creator: CorelDRAW -->
<svg xmlns="http://www.w3.org/2000/svg" xml:space="preserve" width="199px" height="38px" version="1.1" style="shape-rendering:geometricPrecision; text-rendering:geometricPrecision; image-rendering:optimizeQuality; fill-rule:evenodd; clip-rule:evenodd"
viewBox="0 0 199 37.999"
 xmlns:xlink="http://www.w3.org/1999/xlink"
 xmlns:xodm="http://www.corel.com/coreldraw/odm/2003">
 <defs>
  <style type="text/css">
   <![CDATA[
    .fil1 {fill:#D2D3D5}
    .fil0 {fill:#03AB02}
   ]]>
  </style>
 </defs>
 <g id="Layer_x0020_1">
  <metadata id="CorelCorpID_0Corel-Layer"/>
  <path class="fil0" d="M10.9 33.227l10.68 0 -10.68 -8.11 0 8.11zm-8.9 -19.58l8.9 0 10.68 8.11 0 -8.11 8.9 0 0 -8.9 -28.48 0 0 8.9z"/>
  <path class="fil1" d="M37.039 10.497l14.36 0 0 3.15 -5.3 0 0 13.95 -3.76 0 0 -13.95 -5.3 0 0 -3.15zm108.129 0.01l0 17.099 -1.98 0 -9.14 -13.969 0 13.969 -1.95 0 0 -17.099 1.98 0 9.14 13.95 0 -13.95 1.95 0zm14.89 1.71l-9.26 0 0 5.84 6.96 0 0 1.71 -6.96 0 0 6.13 9.26 0 0 1.709 -11.21 0 0 -17.099 11.21 0 0 1.71zm8.76 15.389l-2.15 0 -4.81 -17.099 2.08 0 3.81 14.73 4.2 -14.73 2.17 0 4.18 14.71 3.84 -14.71 2.05 0 -4.81 17.099 -2.15 0 -4.2 -14.169 -4.2 14.169 -0.01 0zm18.63 -4.349c0.1,0.44 0.31,0.879 0.62,1.31 0.32,0.43 0.76,0.79 1.32,1.07 0.56,0.289 1.28,0.43 2.16,0.43 1.25,0 2.18,-0.29 2.79,-0.88 0.6,-0.591 0.9,-1.28 0.9,-2.08 0,-0.64 -0.17,-1.16 -0.51,-1.56 -0.34,-0.41 -0.81,-0.75 -1.39,-1.011 -0.59,-0.269 -1.25,-0.509 -1.98,-0.72 -0.65,-0.179 -1.3,-0.379 -1.94,-0.599 -0.64,-0.22 -1.23,-0.5 -1.75,-0.83 -0.52,-0.33 -0.94,-0.77 -1.25,-1.31 -0.31,-0.54 -0.46,-1.211 -0.46,-2 0,-0.96 0.23,-1.8 0.68,-2.5 0.46,-0.71 1.1,-1.26 1.93,-1.65 0.83,-0.39 1.8,-0.59 2.91,-0.59 0.96,0 1.8,0.139 2.52,0.42 0.72,0.28 1.32,0.659 1.8,1.159 0.48,0.501 0.83,1.07 1.06,1.721l-1.73 0.659c-0.11,-0.37 -0.33,-0.74 -0.66,-1.09 -0.33,-0.35 -0.75,-0.639 -1.27,-0.869 -0.52,-0.23 -1.12,-0.34 -1.78,-0.34 -0.66,0 -1.24,0.11 -1.77,0.34 -0.53,0.23 -0.95,0.55 -1.26,0.979 -0.31,0.421 -0.46,0.941 -0.46,1.541 0,0.65 0.18,1.17 0.55,1.55 0.37,0.38 0.85,0.69 1.47,0.93 0.61,0.24 1.28,0.46 2.02,0.669 0.67,0.211 1.32,0.441 1.94,0.681 0.63,0.24 1.19,0.55 1.69,0.9 0.5,0.359 0.89,0.81 1.18,1.34 0.29,0.54 0.44,1.2 0.44,1.98 0,0.859 -0.2,1.67 -0.61,2.409 -0.41,0.74 -1.02,1.341 -1.84,1.781 -0.82,0.45 -1.88,0.67 -3.16,0.67 -1.07,0 -2.02,-0.17 -2.83,-0.5 -0.81,-0.33 -1.48,-0.79 -2,-1.36 -0.52,-0.571 -0.88,-1.22 -1.08,-1.95l1.78 -0.71 -0.03 0.01zm-67.049 -12.75l3.76 0 0 17.1 -3.76 0 0 -17.1zm-8.82 0c1.38,0 2.54,0.25 3.46,0.74 0.92,0.5 1.61,1.16 2.06,1.98 0.46,0.82 0.68,1.72 0.68,2.7 0,0.67 -0.12,1.32 -0.35,1.97 -0.24,0.64 -0.6,1.23 -1.1,1.76 -0.49,0.52 -1.12,0.94 -1.9,1.25l3.7 6.7 -4.18 0 -3.25 -6.23 -2.81 0 0 6.23 -3.76 0 0 -17.1 7.45 0zm2.37 5.42c0,-0.7 -0.21,-1.25 -0.62,-1.66 -0.42,-0.41 -1.06,-0.61 -1.94,-0.61l-3.49 0 0 4.57 3.49 0c0.59,0 1.07,-0.09 1.44,-0.27 0.37,-0.18 0.66,-0.44 0.84,-0.79 0.19,-0.35 0.28,-0.76 0.28,-1.23l0 -0.01zm-15.8 0.1c-0.47,-0.86 -1.07,-1.49 -1.8,-1.89 -0.72,-0.4 -1.53,-0.6 -2.43,-0.6 -0.94,0 -1.8,0.24 -2.55,0.72 -0.76,0.48 -1.35,1.14 -1.78,1.97 -0.43,0.83 -0.65,1.78 -0.65,2.83 0,1.05 0.21,2.07 0.64,2.89 0.42,0.82 1.02,1.47 1.78,1.93 0.77,0.46 1.66,0.7 2.69,0.7 0.64,0 1.22,-0.11 1.76,-0.33 0.54,-0.22 1.02,-0.53 1.44,-0.92 0.42,-0.39 0.78,-0.84 1.07,-1.34l0 -0.78 -4.4 0 0 -2.98 7.94 0 0 4.45c-0.39,0.9 -0.96,1.73 -1.71,2.5 -0.75,0.77 -1.65,1.4 -2.71,1.88 -1.06,0.48 -2.26,0.72 -3.61,0.72 -1.27,0 -2.43,-0.21 -3.49,-0.64 -1.06,-0.43 -1.98,-1.03 -2.76,-1.81 -0.78,-0.78 -1.39,-1.71 -1.82,-2.77 -0.43,-1.07 -0.65,-2.24 -0.65,-3.51 0,-1.27 0.22,-2.44 0.65,-3.5 0.43,-1.07 1.03,-1.99 1.81,-2.77 0.77,-0.78 1.69,-1.38 2.75,-1.81 1.06,-0.42 2.22,-0.64 3.49,-0.64 1.19,0 2.31,0.19 3.36,0.56 1.05,0.37 1.97,0.92 2.75,1.62 0.78,0.71 1.36,1.57 1.73,2.58l-3.49 0.93 -0.01 0.01zm-15.29 -5.52l0 17.1 -3.81 0 -6.94 -10.9 0 10.9 -3.76 0 0 -17.1 3.81 0 6.91 10.95 0 -10.95 3.79 0zm-16.78 3.15l-8.65 0 0 3.91 6.47 0 0 2.98 -6.47 0 0 3.91 8.65 0 0 3.15 -12.41 0 0 -17.1 12.41 0 0 3.15z"/>
 </g>
</svg>
