<svg xmlns="http://www.w3.org/2000/svg" xml:space="preserve" width="256" height="256" style="shape-rendering:geometricPrecision;text-rendering:geometricPrecision;image-rendering:optimizeQuality;fill-rule:evenodd;clip-rule:evenodd" viewBox="0 0 256 256"><defs><style>.fil0,.fil1{fill:#25f4ee;fill-rule:nonzero}.fil1{fill:#fe2c55}</style></defs><g id="Layer_x0020_1"><g id="_2191637675536"><path class="fil0" d="M103.023 100.82v-9.976a74 74 0 0 0-10.462-.897c-33.94-.073-63.988 21.922-74.181 54.295s1.834 67.613 29.693 86.997a77.53 77.53 0 0 1-20.877-52.921c0-42.15 33.69-76.579 75.821-77.496z"/><path class="fil0" d="M104.904 213.823c18.977-.026 34.575-14.976 35.406-33.934V10.713h30.906a58 58 0 0 1-.901-10.182V0l-42.272.001v169.013c-.703 19.055-16.338 34.148-35.405 34.178a35.94 35.94 0 0 1-16.353-4.087 35.5 35.5 0 0 0 28.62 14.718zm124.041-145.71v-9.404h-.023a57.76 57.76 0 0 1-31.95-9.647 58.65 58.65 0 0 0 31.976 19.054zm0 0"/><path class="fil1" d="M196.974 49.061a58.2 58.2 0 0 1-14.473-38.412v-.022l-11.285.003a58.57 58.57 0 0 0 25.756 38.434zM92.557 132.219c-19.528.099-35.307 15.96-35.307 35.486a35.49 35.49 0 0 0 18.95 31.402 35.47 35.47 0 0 1-6.728-20.771c0-19.551 15.855-35.406 35.406-35.406h.026c3.54.046 7.081.602 10.466 1.641v-43.015a73 73 0 0 0-10.467-.819l-1.88.002v32.706a36.5 36.5 0 0 0-10.465-1.228zm0 0"/><path class="fil1" d="M228.945 68.113v32.707a100.34 100.34 0 0 1-58.624-19.047v85.938c-.091 42.882-34.879 77.598-77.761 77.598-.038-.005-.104-.005-.142-.005a76.96 76.96 0 0 1-44.347-14.063A77.64 77.64 0 0 0 104.903 256c42.849 0 77.588-34.73 77.598-77.578V92.726a100.56 100.56 0 0 0 58.535 18.806h.172V69.418a60 60 0 0 1-12.263-1.303zm0 0"/><path d="M170.318 167.706V81.768a100.36 100.36 0 0 0 58.476 18.807h.233V67.868a58.64 58.64 0 0 1-32.057-18.805 58.56 58.56 0 0 1-25.751-38.432l-30.909-.001v169.262c-.776 19.013-16.425 34.038-35.457 34.038a35.49 35.49 0 0 1-28.733-14.661 35.49 35.49 0 0 1-18.956-31.401c0-19.526 15.783-35.392 35.309-35.487 3.549.03 7.076.59 10.465 1.639l.002-32.71c-42.284.708-76.202 35.212-76.202 77.505a77.57 77.57 0 0 0 21.256 53.327 77.07 77.07 0 0 0 43.063 13.176c.497 0 1.014-.01 1.502-.019 42.882 0 77.671-34.716 77.761-77.598zm0 0" style="fill:#000;fill-rule:nonzero"/></g></g></svg>