<svg xmlns="http://www.w3.org/2000/svg" xml:space="preserve" width="200" height="45" style="shape-rendering:geometricPrecision;text-rendering:geometricPrecision;image-rendering:optimizeQuality;fill-rule:evenodd;clip-rule:evenodd" viewBox="0 0 200 44.995">
  <path d="M11.4 36.725h10.68l-10.68-8.11v8.11zm-8.9-19.58h8.9l10.68 8.11v-8.11h8.9v-8.9H2.5v8.9z" style="fill:#03ab02"/>
  <path d="M37.539 13.995h14.36v3.15h-5.3v13.95h-3.76v-13.95h-5.3v-3.15zm108.129.01v17.099h-1.98l-9.14-13.969v13.969h-1.95V14.005h1.98l9.14 13.95v-13.95h1.95zm14.89 1.71h-9.26v5.84h6.96v1.71h-6.96v6.13h9.26v1.709h-11.21V14.005h11.21v1.71zm8.76 15.389h-2.15l-4.81-17.099h2.08l3.81 14.73 4.2-14.73h2.17l4.18 14.71 3.84-14.71h2.05l-4.81 17.099h-2.15l-4.2-14.169-4.2 14.169h-.01zm18.63-4.349c.1.439.31.879.62 1.31.32.43.76.789 1.32 1.07.56.289 1.28.43 2.16.43 1.25 0 2.18-.29 2.79-.88.6-.591.9-1.28.9-2.08 0-.64-.17-1.16-.51-1.56-.34-.41-.81-.751-1.39-1.011-.59-.269-1.25-.509-1.98-.72-.65-.179-1.3-.379-1.94-.599-.64-.22-1.23-.5-1.75-.83-.52-.33-.94-.77-1.25-1.31-.31-.54-.46-1.211-.46-2 0-.96.23-1.8.68-2.5.46-.71 1.1-1.26 1.93-1.65.83-.39 1.8-.59 2.91-.59.96 0 1.8.139 2.52.42.72.28 1.32.659 1.8 1.159s.83 1.07 1.06 1.721l-1.73.659c-.11-.37-.33-.74-.66-1.09-.33-.35-.75-.639-1.27-.869-.52-.23-1.12-.34-1.78-.34-.66 0-1.24.11-1.77.34-.53.23-.95.55-1.26.979-.31.421-.46.941-.46 1.541 0 .65.18 1.17.55 1.55.37.38.85.69 1.47.93.61.24 1.28.46 2.02.669.67.211 1.32.441 1.94.681.63.24 1.19.55 1.69.9.5.359.89.81 1.18 1.339.29.541.44 1.2.44 1.981 0 .859-.2 1.67-.61 2.409-.41.74-1.02 1.341-1.84 1.781-.82.45-1.88.67-3.16.67-1.07 0-2.02-.17-2.83-.5-.81-.33-1.48-.79-2-1.36a4.707 4.707 0 0 1-1.08-1.95l1.78-.71-.03.01zm-67.049-12.75h3.76v17.1h-3.76v-17.1zm-8.82 0c1.38 0 2.54.25 3.46.74.92.5 1.61 1.16 2.06 1.98.46.82.68 1.72.68 2.7 0 .67-.12 1.32-.35 1.97-.24.64-.6 1.23-1.1 1.76-.49.52-1.12.94-1.9 1.25l3.7 6.7h-4.18l-3.25-6.23h-2.81v6.23h-3.76v-17.1h7.45zm2.37 5.42c0-.7-.21-1.25-.62-1.66-.42-.41-1.06-.61-1.94-.61h-3.49v4.57h3.49c.59 0 1.07-.09 1.44-.27.37-.18.66-.44.84-.79.19-.35.28-.76.28-1.23v-.01zm-15.8.1c-.47-.86-1.07-1.49-1.8-1.89-.72-.4-1.53-.6-2.43-.6-.94 0-1.8.24-2.55.72-.76.48-1.35 1.14-1.78 1.97-.43.83-.65 1.78-.65 2.83s.21 2.07.64 2.89c.42.82 1.02 1.47 1.78 1.93.77.46 1.66.7 2.69.7a4.596 4.596 0 0 0 3.2-1.25c.42-.39.78-.84 1.07-1.34v-.78h-4.4v-2.98h7.94v4.45c-.39.9-.96 1.73-1.71 2.5s-1.65 1.4-2.71 1.88-2.26.72-3.61.72c-1.27 0-2.43-.21-3.49-.64a8.22 8.22 0 0 1-2.76-1.81 8.288 8.288 0 0 1-1.82-2.77c-.43-1.07-.65-2.24-.65-3.51 0-1.27.22-2.44.65-3.5a8.165 8.165 0 0 1 1.81-2.77 8.08 8.08 0 0 1 2.75-1.81c1.06-.42 2.22-.64 3.49-.64 1.19 0 2.31.19 3.36.56 1.05.37 1.97.92 2.75 1.62.78.71 1.36 1.57 1.73 2.58l-3.49.93-.01.01zm-15.29-5.52v17.1h-3.81l-6.94-10.9v10.9h-3.76v-17.1h3.81l6.91 10.95v-10.95h3.79zm-16.78 3.15h-8.65v3.91h6.47v2.98h-6.47v3.91h8.65v3.15h-12.41v-17.1h12.41v3.15z" style="fill:#d2d3d5"/>
</svg>
