<?xml version="1.0" encoding="utf-8"?>
<!-- Generator: Adobe Illustrator 27.2.0, SVG Export Plug-In . SVG Version: 6.00 Build 0)  -->
<svg version="1.1" id="Layer_1" xmlns="http://www.w3.org/2000/svg" xmlns:xlink="http://www.w3.org/1999/xlink" x="0px" y="0px"
	 viewBox="0 0 230 49" style="enable-background:new 0 0 230 49;" xml:space="preserve">
<style type="text/css">
	.st0{fill-rule:evenodd;clip-rule:evenodd;fill:#48B1FF;}
	.st1{fill-rule:evenodd;clip-rule:evenodd;fill:#F2F2F2;}
	.st2{fill:#DBDBDB;}
</style>
<path class="st0" d="M20.9,38.2h-9.6h-0.5V44h10.7v-5.9H20.9z M25.4,33.6l1.8-1.8c6.1-6.1,6.1-16.2,0-22.3c-1.1-1.1-2.4-2-3.7-2.7
	c0.1,0.3,0.2,0.5,0.3,0.8c1,2.9,1.6,6.9,1.6,11.2c0,4.3-0.6,8.2-1.6,11.2c-0.5,1.4-1.1,2.6-1.8,3.7H25.4z M10.8,33.6
	c-0.7-1-1.3-2.3-1.8-3.7c-1-2.9-1.6-6.9-1.6-11.2C7.4,14.5,8,10.6,9,7.6c0.1-0.4,0.3-0.8,0.5-1.2C7.8,7.2,6.3,8.2,5,9.6
	c-6.1,6.1-6.1,16.2,0,22.3l1.8,1.8H10.8z M16.6,5l-0.2,0c-2.6,0.1-4.7,6.3-4.7,13.9c0,7.7,2.1,13.9,4.7,13.9c2.6,0,4.7-6.2,4.7-13.9
	C21.2,11.3,19.1,5.2,16.6,5z"/>
<path class="st1" d="M38.8,15.3h15.3v3.4h-5.7v14.9h-4V18.7h-5.7L38.8,15.3L38.8,15.3z M127.9,15.4h4v18.3h-4V15.4z M118.5,15.4
	c1.5,0,2.7,0.3,3.7,0.8c1,0.5,1.7,1.2,2.2,2.1c0.5,0.9,0.7,1.8,0.7,2.9c0,0.7-0.1,1.4-0.4,2.1c-0.3,0.7-0.6,1.3-1.2,1.9
	c-0.5,0.6-1.2,1-2,1.3l3.9,7.2H121l-3.5-6.7h-3v6.7h-4V15.4L118.5,15.4L118.5,15.4z M121,21.1c0-0.7-0.2-1.3-0.7-1.8
	c-0.4-0.4-1.1-0.7-2.1-0.7h-3.7v4.9h3.7c0.6,0,1.1-0.1,1.5-0.3c0.4-0.2,0.7-0.5,0.9-0.8C120.9,22.1,121,21.7,121,21.1z M104.1,21.3
	c-0.5-0.9-1.1-1.6-1.9-2c-0.8-0.4-1.6-0.6-2.6-0.6c-1,0-1.9,0.3-2.7,0.8c-0.8,0.5-1.4,1.2-1.9,2.1c-0.5,0.9-0.7,1.9-0.7,3
	c0,1.2,0.2,2.2,0.7,3.1c0.5,0.9,1.1,1.6,1.9,2.1c0.8,0.5,1.8,0.7,2.9,0.7c0.7,0,1.3-0.1,1.9-0.4c0.6-0.2,1.1-0.6,1.5-1
	c0.5-0.4,0.8-0.9,1.1-1.4v-0.8h-4.7v-3.2h8.5v4.8c-0.4,1-1,1.8-1.8,2.7c-0.8,0.8-1.8,1.5-2.9,2c-1.1,0.5-2.4,0.8-3.9,0.8
	c-1.4,0-2.6-0.2-3.7-0.7c-1.1-0.5-2.1-1.1-2.9-1.9c-0.8-0.8-1.5-1.8-1.9-3c-0.5-1.1-0.7-2.4-0.7-3.7c0-1.4,0.2-2.6,0.7-3.7
	c0.5-1.1,1.1-2.1,1.9-3c0.8-0.8,1.8-1.5,2.9-1.9c1.1-0.5,2.4-0.7,3.7-0.7c1.3,0,2.5,0.2,3.6,0.6c1.1,0.4,2.1,1,2.9,1.7
	c0.8,0.8,1.5,1.7,1.9,2.8L104.1,21.3L104.1,21.3z M87.8,15.4v18.3h-4.1L76.3,22v11.7h-4V15.4h4.1l7.4,11.7V15.4H87.8z M69.9,18.7
	h-9.2v4.2h6.9v3.2h-6.9v4.2h9.2v3.4H56.6V15.4h13.3V18.7L69.9,18.7z"/>
<path class="st2" d="M139.3,15.4H153v1.8h-5.8v16.4h-2.1V17.2h-5.8V15.4L139.3,15.4z M166.4,20.8c0-1.1-0.3-2-1-2.6
	c-0.6-0.6-1.7-1-3.2-1h-4.3v7.2h4.4c1,0,1.7-0.1,2.3-0.4c0.6-0.3,1-0.7,1.3-1.3C166.2,22.1,166.4,21.5,166.4,20.8L166.4,20.8z
	 M162.3,15.4c1.4,0,2.6,0.2,3.5,0.7c0.9,0.5,1.6,1.1,2,1.9c0.5,0.8,0.7,1.7,0.7,2.7c0,0.7-0.1,1.4-0.4,2c-0.2,0.6-0.6,1.2-1.1,1.7
	c-0.5,0.5-1.1,0.9-1.9,1.2c-0.8,0.3-1.7,0.4-2.8,0.4h-4.4v7.5h-2.1V15.4L162.3,15.4L162.3,15.4z M163.8,25.4l5.1,8.2h-2.4l-4.9-8.2
	H163.8z M178.7,17.2h-0.9l-6,16.4h-2.1l6.7-18.3h3.8l6.7,18.3h-2.1L178.7,17.2z M172.9,27h10.7v1.8h-10.7V27z M198.8,15.4h2.2
	l-6.9,18.3h-2.4l-6.8-18.3h2.2l5.9,16.1L198.8,15.4z M215.5,17.2h-9.9v6.2h7.4v1.8h-7.4v6.6h9.9v1.8h-12V15.4h12V17.2z M221,15.4
	v16.4h8.5v1.8h-10.6V15.4L221,15.4L221,15.4z"/>
</svg>
