<?xml version="1.0" encoding="UTF-8"?>
<!DOCTYPE svg PUBLIC "-//W3C//DTD SVG 1.1//EN" "http://www.w3.org/Graphics/SVG/1.1/DTD/svg11.dtd">
<!-- Creator: CorelDRAW -->
<svg xmlns="http://www.w3.org/2000/svg" xml:space="preserve" width="217px" height="38px" version="1.1" style="shape-rendering:geometricPrecision; text-rendering:geometricPrecision; image-rendering:optimizeQuality; fill-rule:evenodd; clip-rule:evenodd"
viewBox="0 0 217 38"
 xmlns:xlink="http://www.w3.org/1999/xlink"
 xmlns:xodm="http://www.corel.com/coreldraw/odm/2003">
 <defs>
  <style type="text/css">
   <![CDATA[
    .fil0 {fill:#48B1FF}
    .fil2 {fill:#DBDBDB}
    .fil1 {fill:#F2F2F2}
   ]]>
  </style>
 </defs>
 <g id="Layer_x0020_1">
  <metadata id="CorelCorpID_0Corel-Layer"/>
  <path class="fil0" d="M19.16 32.21l-9.62 0 0 5.55 10.11 0 0 -5.55 -0.49 0zm4.27 -4.27l1.72 -1.72c5.8,-5.81 5.8,-15.3 0,-21.1 -1.06,-1.06 -2.23,-1.92 -3.48,-2.59 0.1,0.25 0.19,0.5 0.28,0.77 0.95,2.78 1.54,6.52 1.54,10.59 0,4.07 -0.59,7.81 -1.54,10.59 -0.46,1.33 -1.02,2.49 -1.69,3.46l3.17 0zm-13.89 0c-0.67,-0.97 -1.24,-2.13 -1.7,-3.46 -0.95,-2.78 -1.53,-6.52 -1.53,-10.59 0,-4.07 0.58,-7.81 1.53,-10.59 0.14,-0.4 0.29,-0.78 0.44,-1.15 -1.54,0.71 -2.97,1.7 -4.24,2.97 -5.81,5.8 -5.81,15.29 0,21.1l1.72 1.72 3.78 0zm5.49 -27.16l-0.2 0c-2.45,0.09 -4.42,5.92 -4.42,13.11 0,7.18 2.01,13.12 4.49,13.12 2.48,0 4.49,-5.88 4.49,-13.12 0,-7.25 -1.93,-12.9 -4.35,-13.11l-0.01 0z"/>
  <path class="fil1" d="M36.12 10.6l14.53 0 0 3.19 -5.36 0 0 14.11 -3.8 0 0 -14.11 -5.37 0 0 -3.19zm84.34 0.01l3.8 0 0 17.3 -3.8 0 0 -17.3zm-8.92 0c1.39,0 2.57,0.25 3.5,0.76 0.93,0.5 1.63,1.17 2.08,2 0.47,0.83 0.69,1.74 0.69,2.73 0,0.68 -0.12,1.34 -0.35,2 -0.25,0.64 -0.61,1.24 -1.12,1.78 -0.49,0.52 -1.13,0.95 -1.92,1.26l3.74 6.78 -4.22 0 -3.29 -6.3 -2.85 0 0 6.3 -3.8 0 0 -17.3 7.54 0 0 -0.01zm2.4 5.48c0,-0.7 -0.22,-1.26 -0.63,-1.68 -0.43,-0.41 -1.07,-0.61 -1.96,-0.61l-3.54 0 0 4.62 3.54 0c0.59,0 1.08,-0.09 1.45,-0.27 0.38,-0.18 0.67,-0.45 0.85,-0.8 0.19,-0.36 0.29,-0.77 0.29,-1.25l0 -0.01zm-15.99 0.1c-0.48,-0.87 -1.08,-1.5 -1.82,-1.91 -0.73,-0.4 -1.55,-0.6 -2.46,-0.6 -0.95,0 -1.82,0.24 -2.58,0.72 -0.77,0.49 -1.37,1.16 -1.8,2 -0.44,0.84 -0.66,1.79 -0.66,2.86 0,1.07 0.21,2.09 0.65,2.92 0.42,0.83 1.03,1.49 1.8,1.96 0.78,0.46 1.68,0.7 2.72,0.7 0.65,0 1.24,-0.11 1.78,-0.33 0.55,-0.22 1.03,-0.53 1.46,-0.93 0.42,-0.39 0.79,-0.85 1.08,-1.36l0 -0.78 -4.45 0 0 -3.02 8.03 0 0 4.5c-0.39,0.91 -0.97,1.75 -1.73,2.53 -0.76,0.78 -1.67,1.42 -2.74,1.9 -1.07,0.49 -2.29,0.73 -3.65,0.73 -1.29,0 -2.46,-0.21 -3.53,-0.63 -1.07,-0.43 -2.01,-1.05 -2.79,-1.84 -0.79,-0.79 -1.41,-1.73 -1.85,-2.8 -0.43,-1.08 -0.65,-2.26 -0.65,-3.55 0,-1.29 0.22,-2.47 0.65,-3.54 0.44,-1.08 1.05,-2.01 1.83,-2.8 0.79,-0.79 1.72,-1.4 2.79,-1.83 1.07,-0.43 2.24,-0.64 3.53,-0.64 1.2,0 2.34,0.19 3.4,0.57 1.06,0.37 1.99,0.93 2.78,1.63 0.79,0.72 1.38,1.59 1.75,2.61l-3.53 0.94 -0.01 -0.01zm-15.47 -5.58l0 17.3 -3.85 0 -7.03 -11.03 0 11.03 -3.8 0 0 -17.3 3.85 0 7 11.08 0 -11.08 3.83 0zm-16.98 3.19l-8.75 0 0 3.95 6.55 0 0 3.02 -6.55 0 0 3.95 8.75 0 0 3.19 -12.55 0 0 -17.3 12.55 0 0 3.19z"/>
  <path class="fil2" d="M155.67 20.42c0.74,-0.28 1.35,-0.65 1.83,-1.13 0.48,-0.47 0.83,-1.02 1.05,-1.63 0.22,-0.6 0.34,-1.25 0.34,-1.93 0,-0.95 -0.22,-1.82 -0.65,-2.58 -0.44,-0.76 -1.07,-1.38 -1.94,-1.84 -0.87,-0.47 -1.98,-0.69 -3.33,-0.69l-6.08 0 0 17.3 1.97 0 0 -7.07 3.85 0 4.23 7.07 2.25 0 -4.45 -7.25c0.32,-0.06 0.64,-0.14 0.92,-0.24l0.01 -0.01zm18.49 7.49l2.01 0 -6.31 -17.3 -3.56 0 -6.32 17.3 2 0 1.67 -4.55 8.86 0 1.65 4.55zm-9.88 -6.28l3.41 -9.3 0.82 0 3.38 9.3 -7.6 0 -0.01 0zm44.32 4.55l0 -15.57 -1.97 0 0 17.3 10.06 0 0 -1.73 -8.09 0zm-26.53 -0.36l-5.57 -15.21 -2.1 0 6.47 17.3 2.28 0 6.57 -17.3 -2.1 0 -5.55 15.21zm9.99 2.09l11.34 0 0 -1.73 -9.37 0 0 -6.2 7.05 0 0 -1.73 -7.05 0 0 -5.91 9.37 0 0 -1.73 -11.34 0 0 17.3zm-60.79 -15.57l5.5 0 0 15.57 1.98 0 0 -15.57 5.49 0 0 -1.73 -12.97 0 0 1.73zm17.6 0l4.11 0c1.38,0 2.37,0.3 2.99,0.91 0.61,0.61 0.91,1.44 0.91,2.47 0,0.68 -0.13,1.26 -0.4,1.78 -0.28,0.51 -0.69,0.91 -1.27,1.18 -0.56,0.29 -1.3,0.43 -2.21,0.43l-4.13 0 0 -6.77z"/>
 </g>
</svg>
