<?xml version="1.0" encoding="UTF-8"?>
<!DOCTYPE svg PUBLIC "-//W3C//DTD SVG 1.1//EN" "http://www.w3.org/Graphics/SVG/1.1/DTD/svg11.dtd">
<!-- Creator: CorelDRAW -->
<svg xmlns="http://www.w3.org/2000/svg" xml:space="preserve" width="117px" height="33px" version="1.1" style="shape-rendering:geometricPrecision; text-rendering:geometricPrecision; image-rendering:optimizeQuality; fill-rule:evenodd; clip-rule:evenodd"
viewBox="0 0 117 33.236"
 xmlns:xlink="http://www.w3.org/1999/xlink"
 xmlns:xodm="http://www.corel.com/coreldraw/odm/2003">
 <defs>
  <style type="text/css">
   <![CDATA[
    .fil0 {fill:#242728}
    .fil1 {fill:#2E3234;fill-rule:nonzero}
    .fil3 {fill:#33CCFF;fill-rule:nonzero}
    .fil2 {fill:#B4B4B4;fill-rule:nonzero}
   ]]>
  </style>
 </defs>
 <g id="Layer_x0020_1">
  <metadata id="CorelCorpID_0Corel-Layer"/>
  <path class="fil0" d="M2.324 0.997l111.685 0c1.097,0 1.994,0.897 1.994,1.994l0 27.922c0,1.097 -0.897,1.994 -1.994,1.994l-111.685 0c-1.098,0 -1.995,-0.897 -1.995,-1.994l0 -27.922c0,-1.097 0.897,-1.994 1.995,-1.994z"/>
  <path class="fil1" d="M2.324 0.498l111.685 0c0.686,0 1.31,0.281 1.761,0.732 0.451,0.451 0.732,1.075 0.732,1.761l0 27.922c0,0.685 -0.281,1.308 -0.733,1.76 -0.45,0.452 -1.074,0.733 -1.76,0.733l-111.685 0c-0.686,0 -1.311,-0.281 -1.762,-0.732 -0.451,-0.453 -0.732,-1.076 -0.732,-1.761l0 -27.922c0,-0.686 0.281,-1.31 0.732,-1.761 0.451,-0.451 1.076,-0.732 1.762,-0.732zm111.685 0.997l-111.685 0c-0.412,0 -0.786,0.169 -1.057,0.44 -0.271,0.271 -0.439,0.645 -0.439,1.056l0 27.922c0,0.412 0.168,0.786 0.437,1.056 0.273,0.271 0.647,0.439 1.059,0.439l111.685 0c0.411,0 0.785,-0.168 1.056,-0.439 0.271,-0.27 0.44,-0.644 0.44,-1.056l0 -27.922c0,-0.411 -0.169,-0.785 -0.44,-1.056 -0.271,-0.271 -0.645,-0.44 -1.056,-0.44z"/>
  <path class="fil2" d="M53.294 12.477l-3.744 0 0 11.196 -2.163 0 0 -11.196 -3.738 0 0 -1.837 9.645 0 0 1.837zm13.244 1.889l-2.745 9.307 -2.209 0 -1.691 -6.307c-0.065,-0.242 -0.109,-0.515 -0.127,-0.819l-0.037 0c-0.013,0.205 -0.066,0.471 -0.165,0.8l-1.833 6.326 -2.165 0 -2.734 -9.307 2.181 0 1.691 6.707c0.053,0.202 0.09,0.466 0.109,0.801l0.061 0c0.019,-0.255 0.069,-0.528 0.146,-0.819l1.884 -6.689 1.979 0 1.672 6.735c0.056,0.211 0.096,0.478 0.118,0.801l0.065 0c0.013,-0.227 0.059,-0.494 0.137,-0.801l1.653 -6.735 2.01 0zm2.625 -1.954c-0.344,0 -0.639,-0.112 -0.884,-0.335 -0.248,-0.227 -0.369,-0.509 -0.369,-0.857 0,-0.344 0.121,-0.632 0.369,-0.862 0.245,-0.23 0.54,-0.344 0.884,-0.344 0.357,0 0.661,0.114 0.909,0.344 0.248,0.23 0.372,0.518 0.372,0.862 0,0.329 -0.124,0.608 -0.372,0.841 -0.248,0.233 -0.552,0.351 -0.909,0.351zm1.046 11.261l-2.11 0 0 -9.307 2.11 0 0 9.307zm7.66 -0.099c-0.41,0.205 -0.953,0.307 -1.626,0.307 -1.805,0 -2.709,-0.866 -2.709,-2.6l0 -5.261 -1.554 0 0 -1.654 1.554 0 0 -2.153 2.11 -0.602 0 2.755 2.225 0 0 1.654 -2.225 0 0 4.653c0,0.552 0.099,0.946 0.298,1.182 0.202,0.236 0.534,0.354 1.002,0.354 0.357,0 0.664,-0.103 0.925,-0.307l0 1.672zm6.726 0c-0.41,0.205 -0.953,0.307 -1.626,0.307 -1.806,0 -2.709,-0.866 -2.709,-2.6l0 -5.261 -1.554 0 0 -1.654 1.554 0 0 -2.153 2.11 -0.602 0 2.755 2.225 0 0 1.654 -2.225 0 0 4.653c0,0.552 0.099,0.946 0.298,1.182 0.202,0.236 0.534,0.354 1.002,0.354 0.357,0 0.664,-0.103 0.925,-0.307l0 1.672zm9.589 -3.98l-6.341 0c0.022,0.859 0.288,1.523 0.794,1.988 0.506,0.469 1.201,0.701 2.085,0.701 0.996,0 1.905,-0.298 2.736,-0.89l0 1.697c-0.847,0.533 -1.97,0.8 -3.363,0.8 -1.368,0 -2.441,-0.421 -3.22,-1.265 -0.779,-0.847 -1.17,-2.036 -1.17,-3.568 0,-1.449 0.429,-2.628 1.288,-3.54 0.856,-0.912 1.92,-1.368 3.192,-1.368 1.275,0 2.258,0.409 2.957,1.225 0.694,0.819 1.042,1.955 1.042,3.41l0 0.81zm-2.035 -1.493c-0.006,-0.757 -0.183,-1.346 -0.537,-1.768 -0.351,-0.419 -0.834,-0.63 -1.452,-0.63 -0.608,0 -1.12,0.221 -1.542,0.664 -0.421,0.441 -0.679,1.021 -0.775,1.734l4.306 0zm9.446 -1.728c-0.254,-0.198 -0.623,-0.298 -1.101,-0.298 -0.623,0 -1.144,0.283 -1.563,0.844 -0.419,0.565 -0.627,1.331 -0.627,2.299l0 4.455 -2.11 0 0 -9.307 2.11 0 0 1.918 0.037 0c0.205,-0.655 0.521,-1.164 0.949,-1.533 0.428,-0.366 0.903,-0.549 1.431,-0.549 0.381,0 0.673,0.059 0.874,0.173l0 1.998z"/>
  <path id="path4223" class="fil3" d="M19.5 25.398c-1.721,-0.464 -3.301,-1.772 -4.11,-3.402 -0.619,-1.25 -0.618,-1.241 -0.62,-6.985 -0.073,-4.968 -0.045,-5.128 0.286,-5.607 0.703,-1.173 2.255,-1.424 3.272,-0.528 0.714,0.628 0.77,0.841 0.77,2.898l0 1.783 3 0c1.835,0 3.175,0.038 3.45,0.097 1.565,0.336 2.16,2.208 1.073,3.38 -0.128,0.138 -0.392,0.336 -0.587,0.441 -0.341,0.185 -0.467,0.192 -3.644,0.218l-3.292 0.027 0 0.795c0,1.157 0.12,1.536 0.657,2.073 0.628,0.627 0.795,0.656 3.734,0.658 2.281,0.002 2.486,0.015 2.855,0.182 1.4,0.634 1.749,2.322 0.716,3.467 -0.603,0.669 -0.643,0.676 -3.985,0.672 -2.609,-0.003 -3.033,-0.023 -3.575,-0.169l0 0z" inkscape:connector-curvature="0" sodipodi:nodetypes="csccsscssssscssccsscccsssccccssssssccssscccssscsscccsssssscccssssscsssscsscsscccscccsccsssscsssssscscccsssssssscscccccccssscscssssssssssssscssssssss"/>
 </g>
</svg>
