<svg xmlns="http://www.w3.org/2000/svg" width="116" height="33" viewBox="0 0 115.34 32.53" style="shape-rendering:geometricPrecision;text-rendering:geometricPrecision;image-rendering:optimizeQuality;fill-rule:evenodd;clip-rule:evenodd">
  <style>
    .f0 {fill:#242728}
    .f1 {fill:#666}
    .f2 {fill:#B4B4B4}
    .f3 {fill:#3CF;fill-rule:nonzero}
  </style>
  <path class="f0" d="M2.47.49h110.4c1.09 0 1.98.89 1.98 1.97v27.6c0 1.09-.89 1.97-1.98 1.97H2.47c-1.09 0-1.97-.88-1.97-1.97V2.46C.5 1.38 1.38.49 2.47.49z"/>
  <path class="f1" d="M2.47 0h110.4c.68 0 1.3.28 1.74.72.45.45.72 1.07.72 1.74v27.6c0 .68-.28 1.3-.72 1.74-.45.45-1.07.73-1.74.73H2.47c-.68 0-1.3-.28-1.74-.73-.45-.44-.73-1.06-.73-1.74V2.46c0-.67.28-1.29.73-1.74C1.17.28 1.79 0 2.47 0zm110.41.99H2.47c-.41 0-.78.16-1.05.43-.26.27-.43.64-.43 1.04v27.6c0 .41.16.78.43 1.05.27.26.64.43 1.05.43h110.41c.4 0 .77-.17 1.04-.43.27-.27.44-.64.44-1.05V2.46c0-.4-.17-.77-.44-1.04-.27-.27-.64-.43-1.04-.43z"/>
  <g class="f2">
    <path d="M52.85 11.84h-3.7v11.07h-2.14V11.84h-3.7V10.03h9.54v1.81zM65.95 13.71l-2.72 9.2h-2.18l-1.67-6.24c-.07-.23-.11-.5-.13-.81h-.03c-.02.2-.07.46-.17.79l-1.81 6.26h-2.14l-2.7-9.2h2.15l1.68 6.63c.05.2.09.46.1.79h.06c.02-.25.07-.52.15-.81l1.86-6.61h1.96l1.65 6.66c.06.2.1.47.12.79h.06c.02-.22.06-.49.14-.79l1.63-6.66h1.99zM68.54 11.78c-.34 0-.63-.11-.87-.33s-.37-.5-.37-.85c0-.34.12-.62.37-.85.24-.23.53-.34.87-.34s.65.11.9.34c.24.23.37.51.37.85 0 .33-.13.6-.37.83-.25.23-.55.35-.9.35zm1.04 11.13h-2.09V13.7h2.09v9.2zM77.15 22.81c-.4.21-.94.31-1.61.31-1.78 0-2.68-.86-2.68-2.57v-5.2h-1.54v-1.64h1.54V11.6l2.08-.6v2.73h2.2v1.63h-2.2v4.6c0 .55.1.94.3 1.17.2.23.52.35.99.35.35 0 .65-.1.91-.3l.01 1.65zM83.8 22.81c-.4.21-.94.31-1.61.31-1.78 0-2.68-.86-2.68-2.57v-5.2h-1.54v-1.64h1.54V11.6l2.08-.6v2.73h2.2v1.63h-2.2v4.6c0 .55.1.94.3 1.17.2.23.53.35.99.35.35 0 .65-.1.91-.3l.01 1.65zM93.28 18.88h-6.27c.02.85.29 1.5.79 1.96.5.47 1.18.7 2.06.7.98 0 1.88-.3 2.7-.88v1.68c-.84.53-1.95.79-3.32.79-1.35 0-2.42-.42-3.19-1.25-.77-.84-1.15-2.01-1.15-3.53 0-1.43.42-2.6 1.27-3.5.85-.9 1.9-1.35 3.16-1.35 1.26 0 2.23.41 2.92 1.21.69.81 1.03 1.93 1.03 3.37v.8h0zm-2.01-1.48c0-.75-.18-1.33-.53-1.75-.35-.41-.83-.62-1.44-.62-.6 0-1.11.22-1.52.66-.42.43-.67 1.01-.77 1.71h4.26zM100.61 15.69c-.25-.2-.62-.3-1.09-.3-.62 0-1.13.28-1.55.84-.41.56-.62 1.31-.62 2.27v4.4h-2.09v-9.2h2.09v1.9h.03c.21-.65.52-1.15.94-1.52.42-.36.89-.54 1.42-.54.37 0 .66.06.86.17v1.98z"/>
  </g>
  <path class="f3" d="M19.45 24.61c-1.7-.45-3.26-1.75-4.06-3.36-.61-1.24-.61-1.23-.61-6.9-.08-4.92-.05-5.07.28-5.55.7-1.16 2.23-1.4 3.24-.52.7.62.76.83.76 2.86v1.76h2.97c1.81 0 3.14.04 3.41.1 1.54.33 2.13 2.18 1.06 3.34-.13.13-.39.33-.58.43-.34.19-.46.19-3.6.22l-3.26.03v.78c0 1.15.12 1.52.65 2.05.62.62.79.65 3.69.65 2.26 0 2.46.02 2.82.18 1.39.63 1.73 2.3 0.71 3.43-.6.66-.64.67-3.94.66-2.58 0-3-.02-3.53-.16z"/>
</svg>