<?xml version="1.0" encoding="utf-8"?>
<!-- Generator: Adobe Illustrator 26.5.0, SVG Export Plug-In . SVG Version: 6.00 Build 0)  -->
<svg version="1.1" id="Layer_1" xmlns:xodm="http://www.corel.com/coreldraw/odm/2003"
	 xmlns="http://www.w3.org/2000/svg" xmlns:xlink="http://www.w3.org/1999/xlink" x="0px" y="0px" width="16px" height="16px"
	 viewBox="0 0 16 16" style="enable-background:new 0 0 16 16;" xml:space="preserve">
<style type="text/css">
	.st0{opacity:0.25;fill:#FFFFFF;}
	.st1{opacity:0.1;fill:#FFFFFF;}
	.st2{fill:#FFFFFF;}
</style>
<path class="st0" d="M8,1L3,2.7V8c0,2.3,0.9,5.5,5,7C8,15,8,1,8,1z"/>
<path class="st1" d="M8,1v14c4.1-1.5,5-4.7,5-7V2.7L8,1z"/>
<path class="st2" d="M8,1.1l5,1.7V8c0,2.3-0.9,5.4-5,6.9C3.9,13.4,3,10.3,3,8V2.7L8,1.1z M8,0L2,2c0,2.1,0,4.1,0,6
	c0,2.9,1.2,6.4,6,8c4.8-1.6,6-5.1,6-8c0-1.9,0-3.9,0-6L8,0L8,0z"/>
<path class="st2" d="M11,4c0.6,0,1,0.4,1,1s-0.4,1-1,1s-1-0.4-1-1S10.4,4,11,4 M11,3C9.9,3,9,3.9,9,5s0.9,2,2,2s2-0.9,2-2
	S12.1,3,11,3L11,3z"/>
<path class="st2" d="M11,7.5C11,7.5,11,7.5,11,7.5C10.7,8.9,9.5,10,8,10c-1.7,0-3-1.3-3-3s1.3-3,3-3c0.2,0,0.5,0,0.7,0.1
	C8.8,3.8,9,3.5,9.2,3.2C8.9,3.1,8.4,3,8,3C5.8,3,4,4.8,4,7s1.8,4,4,4c2.1,0,3.8-1.6,4-3.7C11.7,7.4,11.3,7.5,11,7.5z"/>
</svg>
