<?xml version="1.0" encoding="UTF-8"?>
<!DOCTYPE svg PUBLIC "-//W3C//DTD SVG 1.1//EN" "http://www.w3.org/Graphics/SVG/1.1/DTD/svg11.dtd">
<!-- Creator: CorelDRAW -->
<svg xmlns="http://www.w3.org/2000/svg" xml:space="preserve" width="16px" height="16px" version="1.1" style="shape-rendering:geometricPrecision; text-rendering:geometricPrecision; image-rendering:optimizeQuality; fill-rule:evenodd; clip-rule:evenodd"
viewBox="0 0 16 16"
 xmlns:xlink="http://www.w3.org/1999/xlink"
 xmlns:xodm="http://www.corel.com/coreldraw/odm/2003">
 <defs>
  <style type="text/css">
   <![CDATA[
    .fil0 {fill:white;fill-rule:nonzero}
   ]]>
  </style>
 </defs>
 <g id="Layer_x0020_1">
  <metadata id="CorelCorpID_0Corel-Layer"/>
  <path class="fil0" d="M1.06 15.98l6.01 -6.01 -0.99 -0.99 -6.01 6.01 0.99 0.99zm12.94 -11.98l-2 0 0 -2 2 -2 -2 0 -2 2 0 3 -1.5 1.5 1 1 1.5 -1.5 3 0 2 -2 0 -2 -2 2zm-9.5 -0.5l3.5 -3.5 -2 0c-0.8,0 -1.4,0.4 -2,1l-2 2 0.5 0.5 -0.5 0.5 -1 0 -1 1 2 2 1 -1 0 -1 0.5 -0.5 11.5 11.5 1 -1 -11.5 -11.5z"/>
 </g>
</svg>
