<?xml version="1.0" encoding="UTF-8"?>
<!DOCTYPE svg PUBLIC "-//W3C//DTD SVG 1.1//EN" "http://www.w3.org/Graphics/SVG/1.1/DTD/svg11.dtd">
<!-- Creator: CorelDRAW -->
<svg xmlns="http://www.w3.org/2000/svg" xml:space="preserve" width="16" height="16" style="shape-rendering:geometricPrecision;text-rendering:geometricPrecision;image-rendering:optimizeQuality;fill-rule:evenodd;clip-rule:evenodd" viewBox="0 0 16 16"><path d="m1.06 15.98 6.01-6.01-.99-.99-6.01 6.01.99.99zM14 4h-2V2l2-2h-2l-2 2v3L8.5 6.5l1 1L11 6h3l2-2V2l-2 2zm-9.5-.5L8 0H6c-.8 0-1.4.4-2 1L2 3l.5.5L2 4H1L0 5l2 2 1-1V5l.5-.5L15 16l1-1L4.5 3.5z" style="fill:#fff;fill-rule:nonzero"/></svg>
